SplineFontDB: 3.0
FontName: Merriweather-Light
FullName: Merriweather Light
FamilyName: Merriweather
Weight: Light
Copyright: Copyright (c) 2011, Sorkin Type Co (www.sorkintype.com)\nwith Reserved Font Name "Merriweather".\n\nThis Font Software is licensed under the SIL Open Font License,\nVersion 1.1. This license is available with a FAQ at:\nhttp://scripts.sil.org/OFL
Version: 1.003
ItalicAngle: 0
UnderlinePosition: -136
UnderlineWidth: 112
Ascent: 1638
Descent: 410
LayerCount: 2
Layer: 0 1 "Back"  1
Layer: 1 1 "Fore"  0
XUID: [1021 631 1661839179 8356734]
FSType: 0
OS2Version: 3
OS2_WeightWidthSlopeOnly: 0
OS2_UseTypoMetrics: 1
CreationTime: 1311979620
ModificationTime: 1311969034
PfmFamily: 17
TTFWeight: 250
TTFWidth: 5
LineGap: 0
VLineGap: 0
Panose: 2 6 5 3 5 4 6 3 7 4
OS2TypoAscent: 282
OS2TypoAOffset: 1
OS2TypoDescent: -230
OS2TypoDOffset: 1
OS2TypoLinegap: 0
OS2WinAscent: 0
OS2WinAOffset: 1
OS2WinDescent: 0
OS2WinDOffset: 1
HheadAscent: 0
HheadAOffset: 1
HheadDescent: 0
HheadDOffset: 1
OS2SubXSize: 2937
OS2SubYSize: 2726
OS2SubXOff: 0
OS2SubYOff: 588
OS2SupXSize: 2937
OS2SupYSize: 2726
OS2SupXOff: 0
OS2SupYOff: 2001
OS2StrikeYSize: 111
OS2StrikeYPos: 798
OS2FamilyClass: 768
OS2Vendor: 'STC '
OS2CodePages: 00000001.00000000
OS2UnicodeRanges: 800000a7.50000000.00000000.00000000
Lookup: 4 0 0 "'dlig' Discretionary Ligatures in Latin lookup 0"  {"'dlig' Discretionary Ligatures in Latin lookup 0 subtable"  } ['dlig' ('latn' <'dflt' > ) ]
Lookup: 258 0 0 "'kern' Horizontal Kerning in Latin lookup 0"  {"'kern' Horizontal Kerning in Latin lookup 0 subtable"  } ['kern' ('latn' <'dflt' > ) ]
DEI: 91125
TtTable: prep
PUSHW_1
 511
SCANCTRL
PUSHB_1
 4
SCANTYPE
EndTTInstrs
ShortTable: maxp 16
  1
  0
  344
  127
  7
  0
  0
  1
  0
  0
  0
  0
  0
  0
  0
  0
EndShort

StartChar: .notdef
Encoding: 65536 -1 0
Width: 1770
Flags: W
LayerCount: 2
Fore
SplineSet
177 1416 m 1,0,-1
 1593 1416 l 1,1,-1
 1593 0 l 1,2,-1
 177 0 l 1,3,-1
 177 1416 l 1,0,-1
543 267 m 1,4,-1
 884 630 l 1,5,-1
 1232 263 l 1,6,-1
 1320 351 l 1,7,-1
 961 709 l 1,8,-1
 1319 1053 l 1,9,-1
 1226 1143 l 1,10,-1
 886 783 l 1,11,-1
 542 1147 l 1,12,-1
 454 1057 l 1,13,-1
 808 707 l 1,14,-1
 451 371 l 1,15,-1
 543 267 l 1,4,-1
EndSplineSet
EndChar

StartChar: a
Encoding: 97 97 5
Width: 1145
Flags: W
LayerCount: 2
Fore
SplineSet
111 312 m 1,0,1
 117 381 117 381 153 434 c 128,-1,2
 189 487 189 487 244.5 526.5 c 128,-1,3
 300 566 300 566 370.5 592.5 c 128,-1,4
 441 619 441 619 515.5 635 c 128,-1,5
 590 651 590 651 663.5 658 c 128,-1,6
 737 665 737 665 800 665 c 1,7,-1
 800 753 l 2,8,9
 800 837 800 837 779.5 892 c 128,-1,10
 759 947 759 947 721 979 c 128,-1,11
 683 1011 683 1011 628.5 1024 c 128,-1,12
 574 1037 574 1037 505 1037 c 0,13,14
 467 1037 467 1037 422.5 1029.5 c 128,-1,15
 378 1022 378 1022 334.5 1009 c 128,-1,16
 291 996 291 996 251 980 c 128,-1,17
 211 964 211 964 183 947 c 1,18,-1
 154 1018 l 1,19,20
 191 1048 191 1048 245 1071 c 128,-1,21
 299 1094 299 1094 355.5 1109 c 128,-1,22
 412 1124 412 1124 465 1131.5 c 128,-1,23
 518 1139 518 1139 555 1139 c 0,24,25
 634 1139 634 1139 705 1123 c 128,-1,26
 776 1107 776 1107 829.5 1066 c 128,-1,27
 883 1025 883 1025 914 954 c 128,-1,28
 945 883 945 883 945 773 c 2,29,-1
 943 71 l 1,30,-1
 1075 71 l 1,31,-1
 1075 16 l 1,32,33
 1046 2 1046 2 1000 -7.5 c 128,-1,34
 954 -17 954 -17 902 -17 c 0,35,36
 885 -17 885 -17 868 -14.5 c 128,-1,37
 851 -12 851 -12 837.5 -2.5 c 128,-1,38
 824 7 824 7 816 26.5 c 128,-1,39
 808 46 808 46 808 80 c 2,40,-1
 808 120 l 1,41,42
 780 88 780 88 745.5 62 c 128,-1,43
 711 36 711 36 667 17.5 c 128,-1,44
 623 -1 623 -1 568.5 -11.5 c 128,-1,45
 514 -22 514 -22 448 -22 c 0,46,47
 381 -22 381 -22 318.5 0 c 128,-1,48
 256 22 256 22 208 64 c 128,-1,49
 160 106 160 106 133 168.5 c 128,-1,50
 106 231 106 231 111 312 c 1,0,1
258 310 m 0,51,52
 257 248 257 248 276 203.5 c 128,-1,53
 295 159 295 159 330 130.5 c 128,-1,54
 365 102 365 102 413.5 88.5 c 128,-1,55
 462 75 462 75 521 75 c 0,56,57
 575 75 575 75 620 87 c 128,-1,58
 665 99 665 99 700 116 c 128,-1,59
 735 133 735 133 760 151 c 128,-1,60
 785 169 785 169 799 181 c 1,61,62
 799 217 799 217 799 264.5 c 128,-1,63
 799 312 799 312 799 365.5 c 128,-1,64
 799 419 799 419 799.5 475 c 128,-1,65
 800 531 800 531 800 584 c 1,66,67
 746 584 746 584 685 579 c 128,-1,68
 624 574 624 574 563.5 561.5 c 128,-1,69
 503 549 503 549 448 528.5 c 128,-1,70
 393 508 393 508 351 477.5 c 128,-1,71
 309 447 309 447 283.5 405.5 c 128,-1,72
 258 364 258 364 258 310 c 0,51,52
EndSplineSet
EndChar

StartChar: b
Encoding: 98 98 6
Width: 1264
Flags: W
LayerCount: 2
Fore
SplineSet
215 1500 m 1,0,-1
 44 1525 l 1,1,-1
 44 1593 l 1,2,-1
 324 1623 l 1,3,-1
 359 1606 l 1,4,-1
 359 1020 l 1,5,6
 389 1044 389 1044 426 1067.5 c 128,-1,7
 463 1091 463 1091 507 1110 c 128,-1,8
 551 1129 551 1129 602.5 1141 c 128,-1,9
 654 1153 654 1153 712 1153 c 0,10,11
 797 1153 797 1153 877.5 1123.5 c 128,-1,12
 958 1094 958 1094 1020 1028.5 c 128,-1,13
 1082 963 1082 963 1120 859 c 128,-1,14
 1158 755 1158 755 1158 605 c 0,15,16
 1158 473 1158 473 1117 358 c 128,-1,17
 1076 243 1076 243 1001.5 157 c 128,-1,18
 927 71 927 71 822.5 21.5 c 128,-1,19
 718 -28 718 -28 592 -28 c 0,20,21
 521 -28 521 -28 457.5 -20 c 128,-1,22
 394 -12 394 -12 343.5 0 c 128,-1,23
 293 12 293 12 259 25.5 c 128,-1,24
 225 39 225 39 215 50 c 1,25,-1
 215 1500 l 1,0,-1
359 134 m 1,26,27
 367 113 367 113 391 98 c 128,-1,28
 415 83 415 83 449.5 73.5 c 128,-1,29
 484 64 484 64 525.5 59.5 c 128,-1,30
 567 55 567 55 610 55 c 0,31,32
 686 55 686 55 758.5 86.5 c 128,-1,33
 831 118 831 118 887 182 c 128,-1,34
 943 246 943 246 978 342.5 c 128,-1,35
 1013 439 1013 439 1014 570 c 0,36,37
 1015 702 1015 702 985.5 793 c 128,-1,38
 956 884 956 884 905.5 940 c 128,-1,39
 855 996 855 996 789.5 1021 c 128,-1,40
 724 1046 724 1046 654 1046 c 0,41,42
 611 1046 611 1046 568.5 1037.5 c 128,-1,43
 526 1029 526 1029 487.5 1014.5 c 128,-1,44
 449 1000 449 1000 416 980 c 128,-1,45
 383 960 383 960 359 937 c 1,46,-1
 359 134 l 1,26,27
EndSplineSet
EndChar

StartChar: c
Encoding: 99 99 7
Width: 1051
Flags: W
LayerCount: 2
Fore
SplineSet
106 538 m 0,0,1
 105 676 105 676 146.5 787 c 128,-1,2
 188 898 188 898 261.5 977 c 128,-1,3
 335 1056 335 1056 434 1100 c 128,-1,4
 533 1144 533 1144 648 1149 c 0,5,6
 689 1150 689 1150 732 1147.5 c 128,-1,7
 775 1145 775 1145 814 1138.5 c 128,-1,8
 853 1132 853 1132 885 1122 c 128,-1,9
 917 1112 917 1112 937 1099 c 1,10,-1
 937 885 l 1,11,-1
 863 885 l 1,12,-1
 822 1013 l 1,13,14
 787 1040 787 1040 737 1049.5 c 128,-1,15
 687 1059 687 1059 636 1059 c 0,16,17
 558 1059 558 1059 488 1029.5 c 128,-1,18
 418 1000 418 1000 364.5 943 c 128,-1,19
 311 886 311 886 279 801.5 c 128,-1,20
 247 717 247 717 246 607 c 0,21,22
 245 464 245 464 279 364.5 c 128,-1,23
 313 265 313 265 368.5 203 c 128,-1,24
 424 141 424 141 495 112.5 c 128,-1,25
 566 84 566 84 639 84 c 0,26,27
 673 84 673 84 715.5 89 c 128,-1,28
 758 94 758 94 800 104 c 128,-1,29
 842 114 842 114 879 128 c 128,-1,30
 916 142 916 142 940 160 c 1,31,-1
 967 88 l 1,32,33
 938 62 938 62 895.5 42 c 128,-1,34
 853 22 853 22 802 8 c 128,-1,35
 751 -6 751 -6 695 -13.5 c 128,-1,36
 639 -21 639 -21 582 -21 c 0,37,38
 468 -21 468 -21 379.5 21 c 128,-1,39
 291 63 291 63 230.5 138 c 128,-1,40
 170 213 170 213 138.5 315.5 c 128,-1,41
 107 418 107 418 106 538 c 0,0,1
EndSplineSet
EndChar

StartChar: d
Encoding: 100 100 8
Width: 1269
Flags: W
LayerCount: 2
Fore
SplineSet
548 -24 m 0,0,1
 461 -24 461 -24 381 9 c 128,-1,2
 301 42 301 42 240 111.5 c 128,-1,3
 179 181 179 181 143 287.5 c 128,-1,4
 107 394 107 394 107 541 c 0,5,6
 107 675 107 675 152 787.5 c 128,-1,7
 197 900 197 900 274.5 981 c 128,-1,8
 352 1062 352 1062 456.5 1107.5 c 128,-1,9
 561 1153 561 1153 680 1153 c 0,10,11
 725 1153 725 1153 760 1148.5 c 128,-1,12
 795 1144 795 1144 822 1137 c 128,-1,13
 849 1130 849 1130 869.5 1122.5 c 128,-1,14
 890 1115 890 1115 906 1109 c 1,15,-1
 906 1497 l 1,16,-1
 701 1521 l 1,17,-1
 701 1590 l 1,18,-1
 1012 1622 l 1,19,-1
 1050 1602 l 1,20,-1
 1050 71 l 1,21,-1
 1186 71 l 1,22,-1
 1186 10 l 1,23,24
 1170 3 1170 3 1147 -3 c 128,-1,25
 1124 -9 1124 -9 1099 -13.5 c 128,-1,26
 1074 -18 1074 -18 1049 -20.5 c 128,-1,27
 1024 -23 1024 -23 1003 -23 c 0,28,29
 985 -23 985 -23 968 -20.5 c 128,-1,30
 951 -18 951 -18 938.5 -9 c 128,-1,31
 926 0 926 0 918.5 17.5 c 128,-1,32
 911 35 911 35 911 66 c 2,33,-1
 911 95 l 1,34,35
 891 77 891 77 858.5 56.5 c 128,-1,36
 826 36 826 36 780.5 18 c 128,-1,37
 735 0 735 0 676.5 -12 c 128,-1,38
 618 -24 618 -24 548 -24 c 0,0,1
604 81 m 0,39,40
 666 81 666 81 718 92 c 0,41,42
 790 106 790 106 835.5 133 c 128,-1,43
 881 160 881 160 906 183 c 1,44,-1
 906 983 l 1,45,46
 896 994 896 994 879.5 1008.5 c 128,-1,47
 863 1023 863 1023 835.5 1036 c 128,-1,48
 808 1049 808 1049 766 1058 c 128,-1,49
 724 1067 724 1067 663 1067 c 0,50,51
 589 1067 589 1067 516.5 1039 c 128,-1,52
 444 1011 444 1011 385.5 951 c 128,-1,53
 327 891 327 891 290 798 c 128,-1,54
 253 705 253 705 251 575 c 0,55,56
 249 450 249 450 276.5 357.5 c 128,-1,57
 304 265 304 265 352 203.5 c 128,-1,58
 400 142 400 142 465 111.5 c 128,-1,59
 530 81 530 81 604 81 c 0,39,40
EndSplineSet
EndChar

StartChar: e
Encoding: 101 101 9
Width: 1145
Flags: W
LayerCount: 2
Fore
SplineSet
103 556 m 0,0,1
 103 684 103 684 144 792.5 c 128,-1,2
 185 901 185 901 257.5 980.5 c 128,-1,3
 330 1060 330 1060 431 1105 c 128,-1,4
 532 1150 532 1150 652 1152 c 0,5,6
 738 1153 738 1153 808 1125.5 c 128,-1,7
 878 1098 878 1098 928.5 1044.5 c 128,-1,8
 979 991 979 991 1007 913 c 128,-1,9
 1035 835 1035 835 1037 736 c 0,10,11
 1039 685 1039 685 1035.5 645.5 c 128,-1,12
 1032 606 1032 606 1027 574 c 1,13,-1
 250 574 l 1,14,-1
 250 563 l 1,15,16
 248 438 248 438 279.5 347 c 128,-1,17
 311 256 311 256 366 196.5 c 128,-1,18
 421 137 421 137 495 108.5 c 128,-1,19
 569 80 569 80 653 80 c 0,20,21
 701 80 701 80 750 86.5 c 128,-1,22
 799 93 799 93 843 104 c 128,-1,23
 887 115 887 115 922.5 129 c 128,-1,24
 958 143 958 143 979 157 c 1,25,-1
 1010 88 l 1,26,27
 981 62 981 62 934.5 41 c 128,-1,28
 888 20 888 20 833 5.5 c 128,-1,29
 778 -9 778 -9 718 -16.5 c 128,-1,30
 658 -24 658 -24 601 -24 c 0,31,32
 480 -24 480 -24 387 17.5 c 128,-1,33
 294 59 294 59 231 134.5 c 128,-1,34
 168 210 168 210 135.5 317 c 128,-1,35
 103 424 103 424 103 556 c 0,0,1
884 664 m 1,36,37
 888 727 888 727 884 784.5 c 128,-1,38
 880 842 880 842 864.5 891 c 128,-1,39
 849 940 849 940 821 977.5 c 128,-1,40
 793 1015 793 1015 750 1038 c 0,41,42
 693 1069 693 1069 614 1069 c 0,43,44
 545 1069 545 1069 484 1043.5 c 128,-1,45
 423 1018 423 1018 375 967.5 c 128,-1,46
 327 917 327 917 295 841 c 128,-1,47
 263 765 263 765 253 664 c 1,48,-1
 884 664 l 1,36,37
EndSplineSet
EndChar

StartChar: f
Encoding: 102 102 10
Width: 837
Flags: W
LayerCount: 2
Fore
SplineSet
119 68 m 1,0,-1
 323 85 l 1,1,-1
 323 996 l 1,2,-1
 97 996 l 1,3,-1
 97 1056 l 1,4,-1
 323 1100 l 1,5,-1
 323 1205 l 2,6,7
 323 1317 323 1317 360.5 1405.5 c 128,-1,8
 398 1494 398 1494 456 1555.5 c 128,-1,9
 514 1617 514 1617 584.5 1649.5 c 128,-1,10
 655 1682 655 1682 721 1682 c 0,11,12
 751 1682 751 1682 773.5 1680.5 c 128,-1,13
 796 1679 796 1679 813 1677 c 128,-1,14
 830 1675 830 1675 842 1672 c 128,-1,15
 854 1669 854 1669 864 1665 c 1,16,-1
 864 1536 l 1,17,18
 846 1547 846 1547 802.5 1556 c 128,-1,19
 759 1565 759 1565 692 1565 c 0,20,21
 650 1565 650 1565 609.5 1553.5 c 128,-1,22
 569 1542 569 1542 537.5 1509 c 128,-1,23
 506 1476 506 1476 487 1416.5 c 128,-1,24
 468 1357 468 1357 468 1261 c 2,25,-1
 468 1100 l 1,26,-1
 795 1100 l 1,27,-1
 795 996 l 1,28,-1
 468 996 l 1,29,-1
 468 84 l 1,30,-1
 709 68 l 1,31,-1
 709 0 l 1,32,-1
 119 0 l 1,33,-1
 119 68 l 1,0,-1
EndSplineSet
EndChar

StartChar: g
Encoding: 103 103 11
Width: 1203
Flags: W
LayerCount: 2
Fore
SplineSet
127 -240 m 0,0,1
 127 -192 127 -192 144 -148 c 128,-1,2
 161 -104 161 -104 187 -67.5 c 128,-1,3
 213 -31 213 -31 243.5 -3.5 c 128,-1,4
 274 24 274 24 300 40 c 1,5,6
 261 55 261 55 240.5 75.5 c 128,-1,7
 220 96 220 96 210.5 118.5 c 128,-1,8
 201 141 201 141 200 163.5 c 128,-1,9
 199 186 199 186 199 207 c 0,10,11
 199 227 199 227 206.5 255.5 c 128,-1,12
 214 284 214 284 229 316 c 128,-1,13
 244 348 244 348 266 380.5 c 128,-1,14
 288 413 288 413 317 440 c 1,15,16
 237 485 237 485 190 562.5 c 128,-1,17
 143 640 143 640 143 754 c 0,18,19
 143 856 143 856 182 932 c 128,-1,20
 221 1008 221 1008 284.5 1058 c 128,-1,21
 348 1108 348 1108 430 1133.5 c 128,-1,22
 512 1159 512 1159 599 1161 c 0,23,24
 680 1163 680 1163 751.5 1145 c 128,-1,25
 823 1127 823 1127 880 1088 c 1,26,27
 902 1108 902 1108 944.5 1120.5 c 128,-1,28
 987 1133 987 1133 1057 1133 c 2,29,-1
 1176 1133 l 1,30,-1
 1176 1016 l 1,31,32
 1174 1016 1174 1016 1152 1016 c 128,-1,33
 1130 1016 1130 1016 1098 1016 c 128,-1,34
 1066 1016 1066 1016 1027.5 1016.5 c 128,-1,35
 989 1017 989 1017 954 1017 c 1,36,37
 985 974 985 974 1002.5 918 c 128,-1,38
 1020 862 1020 862 1020 791 c 0,39,40
 1020 693 1020 693 984 616.5 c 128,-1,41
 948 540 948 540 886.5 487.5 c 128,-1,42
 825 435 825 435 744.5 408 c 128,-1,43
 664 381 664 381 575 381 c 0,44,45
 457 381 457 381 365 418 c 1,46,47
 354 400 354 400 347 379 c 128,-1,48
 340 358 340 358 336 337 c 128,-1,49
 332 316 332 316 330.5 296.5 c 128,-1,50
 329 277 329 277 329 262 c 0,51,52
 329 192 329 192 364 163 c 128,-1,53
 399 134 399 134 482 130 c 1,54,55
 497 128 497 128 527 127.5 c 128,-1,56
 557 127 557 127 593 126.5 c 128,-1,57
 629 126 629 126 666.5 126 c 128,-1,58
 704 126 704 126 733 126 c 0,59,60
 826 126 826 126 892 112.5 c 128,-1,61
 958 99 958 99 1002.5 76.5 c 128,-1,62
 1047 54 1047 54 1073 24.5 c 128,-1,63
 1099 -5 1099 -5 1112.5 -37 c 128,-1,64
 1126 -69 1126 -69 1129.5 -101.5 c 128,-1,65
 1133 -134 1133 -134 1133 -163 c 0,66,67
 1133 -249 1133 -249 1095 -317 c 128,-1,68
 1057 -385 1057 -385 988.5 -432.5 c 128,-1,69
 920 -480 920 -480 824.5 -505.5 c 128,-1,70
 729 -531 729 -531 614 -531 c 0,71,72
 520 -531 520 -531 432 -516.5 c 128,-1,73
 344 -502 344 -502 276.5 -468 c 128,-1,74
 209 -434 209 -434 168 -378.5 c 128,-1,75
 127 -323 127 -323 127 -240 c 0,0,1
601 465 m 0,76,77
 730 465 730 465 804 539 c 128,-1,78
 878 613 878 613 878 765 c 0,79,80
 878 927 878 927 801 1003 c 128,-1,81
 724 1079 724 1079 575 1079 c 0,82,83
 517 1079 517 1079 464.5 1063 c 128,-1,84
 412 1047 412 1047 372 1011 c 128,-1,85
 332 975 332 975 308.5 918 c 128,-1,86
 285 861 285 861 285 779 c 0,87,88
 285 711 285 711 304 653.5 c 128,-1,89
 323 596 323 596 362 554 c 128,-1,90
 401 512 401 512 460.5 488.5 c 128,-1,91
 520 465 520 465 601 465 c 0,76,77
268 -192 m 0,92,93
 268 -268 268 -268 302.5 -317 c 128,-1,94
 337 -366 337 -366 390.5 -394 c 128,-1,95
 444 -422 444 -422 509 -432.5 c 128,-1,96
 574 -443 574 -443 634 -443 c 0,97,98
 713 -443 713 -443 782.5 -429 c 128,-1,99
 852 -415 852 -415 904 -385.5 c 128,-1,100
 956 -356 956 -356 985.5 -310.5 c 128,-1,101
 1015 -265 1015 -265 1015 -201 c 0,102,103
 1015 -155 1015 -155 1003.5 -117.5 c 128,-1,104
 992 -80 992 -80 958.5 -53 c 128,-1,105
 925 -26 925 -26 864 -10.5 c 128,-1,106
 803 5 803 5 704 6 c 2,107,-1
 534 7 l 2,108,109
 425 7 425 7 358 22 c 1,110,111
 341 6 341 6 324.5 -14.5 c 128,-1,112
 308 -35 308 -35 295.5 -61 c 128,-1,113
 283 -87 283 -87 275.5 -119.5 c 128,-1,114
 268 -152 268 -152 268 -192 c 0,92,93
EndSplineSet
EndChar

StartChar: h
Encoding: 104 104 12
Width: 1404
Flags: W
LayerCount: 2
Fore
SplineSet
131 68 m 1,0,-1
 283 86 l 1,1,-1
 283 1496 l 1,2,-1
 112 1520 l 1,3,-1
 112 1589 l 1,4,-1
 388 1623 l 1,5,-1
 427 1602 l 1,6,-1
 426 1130 l 1,7,-1
 423 983 l 1,8,9
 467 1017 467 1017 521.5 1046.5 c 128,-1,10
 576 1076 576 1076 632 1097 c 128,-1,11
 688 1118 688 1118 741.5 1130 c 128,-1,12
 795 1142 795 1142 836 1142 c 0,13,14
 938 1142 938 1142 1004 1113 c 128,-1,15
 1070 1084 1070 1084 1109 1020 c 128,-1,16
 1148 956 1148 956 1163 854 c 128,-1,17
 1178 752 1178 752 1177 607 c 1,18,-1
 1177 85 l 1,19,-1
 1332 68 l 1,20,-1
 1332 0 l 1,21,-1
 867 -1 l 1,22,-1
 867 68 l 1,23,-1
 1032 85 l 1,24,-1
 1032 549 l 2,25,26
 1032 678 1032 678 1022.5 769.5 c 128,-1,27
 1013 861 1013 861 985 918.5 c 128,-1,28
 957 976 957 976 906 1003 c 128,-1,29
 855 1030 855 1030 772 1030 c 0,30,31
 735 1030 735 1030 689.5 1022 c 128,-1,32
 644 1014 644 1014 597.5 1000 c 128,-1,33
 551 986 551 986 506.5 965 c 128,-1,34
 462 944 462 944 427 919 c 1,35,-1
 427 85 l 1,36,-1
 583 68 l 1,37,-1
 583 0 l 1,38,-1
 131 0 l 1,39,-1
 131 68 l 1,0,-1
EndSplineSet
EndChar

StartChar: i
Encoding: 105 105 13
Width: 683
Flags: W
LayerCount: 2
Fore
SplineSet
340 1415 m 0,0,1
 321 1415 321 1415 303 1421.5 c 128,-1,2
 285 1428 285 1428 271.5 1441 c 128,-1,3
 258 1454 258 1454 249.5 1471.5 c 128,-1,4
 241 1489 241 1489 241 1512 c 0,5,6
 241 1537 241 1537 251.5 1558 c 128,-1,7
 262 1579 262 1579 278.5 1594.5 c 128,-1,8
 295 1610 295 1610 316 1618.5 c 128,-1,9
 337 1627 337 1627 358 1627 c 0,10,11
 410 1627 410 1627 434 1598.5 c 128,-1,12
 458 1570 458 1570 458 1529 c 0,13,14
 458 1503 458 1503 448 1482 c 128,-1,15
 438 1461 438 1461 421.5 1446 c 128,-1,16
 405 1431 405 1431 383.5 1423 c 128,-1,17
 362 1415 362 1415 340 1415 c 0,0,1
140 68 m 1,18,-1
 305 84 l 1,19,-1
 305 971 l 1,20,-1
 161 1021 l 1,21,-1
 161 1072 l 1,22,-1
 406 1133 l 1,23,-1
 444 1114 l 1,24,-1
 444 85 l 1,25,-1
 611 68 l 1,26,-1
 611 0 l 1,27,-1
 140 0 l 1,28,-1
 140 68 l 1,18,-1
EndSplineSet
EndChar

StartChar: j
Encoding: 106 106 14
Width: 650
Flags: W
LayerCount: 2
Fore
SplineSet
337 1408 m 0,0,1
 318 1408 318 1408 300 1414.5 c 128,-1,2
 282 1421 282 1421 268.5 1433.5 c 128,-1,3
 255 1446 255 1446 246.5 1464 c 128,-1,4
 238 1482 238 1482 238 1505 c 0,5,6
 238 1530 238 1530 248.5 1551 c 128,-1,7
 259 1572 259 1572 276 1587.5 c 128,-1,8
 293 1603 293 1603 314 1611.5 c 128,-1,9
 335 1620 335 1620 356 1620 c 0,10,11
 408 1620 408 1620 431.5 1591.5 c 128,-1,12
 455 1563 455 1563 455 1522 c 0,13,14
 455 1496 455 1496 445 1475 c 128,-1,15
 435 1454 435 1454 418.5 1439 c 128,-1,16
 402 1424 402 1424 380.5 1416 c 128,-1,17
 359 1408 359 1408 337 1408 c 0,0,1
303 971 m 1,18,-1
 152 1021 l 1,19,-1
 152 1072 l 1,20,-1
 406 1132 l 1,21,-1
 445 1114 l 1,22,-1
 445 -16 l 2,23,24
 445 -133 445 -133 422 -225.5 c 128,-1,25
 399 -318 399 -318 355 -382.5 c 128,-1,26
 311 -447 311 -447 246.5 -481 c 128,-1,27
 182 -515 182 -515 99 -515 c 0,28,29
 89 -515 89 -515 72 -514 c 128,-1,30
 55 -513 55 -513 38.5 -511 c 128,-1,31
 22 -509 22 -509 8 -506 c 128,-1,32
 -6 -503 -6 -503 -10 -500 c 1,33,-1
 -10 -395 l 1,34,35
 -2 -398 -2 -398 13 -400 c 128,-1,36
 28 -402 28 -402 44.5 -403.5 c 128,-1,37
 61 -405 61 -405 76 -405.5 c 128,-1,38
 91 -406 91 -406 100 -406 c 0,39,40
 148 -406 148 -406 186 -387.5 c 128,-1,41
 224 -369 224 -369 250 -323 c 128,-1,42
 276 -277 276 -277 289.5 -199 c 128,-1,43
 303 -121 303 -121 303 -2 c 2,44,-1
 303 971 l 1,18,-1
EndSplineSet
EndChar

StartChar: k
Encoding: 107 107 15
Width: 1274
Flags: W
LayerCount: 2
Fore
SplineSet
121 68 m 1,0,-1
 283 85 l 1,1,-1
 283 1496 l 1,2,-1
 107 1520 l 1,3,-1
 107 1589 l 1,4,-1
 393 1623 l 1,5,-1
 428 1602 l 1,6,-1
 428 763 l 1,7,-1
 424 540 l 1,8,-1
 932 1035 l 1,9,-1
 782 1047 l 1,10,-1
 782 1129 l 1,11,-1
 1221 1129 l 1,12,-1
 1221 1048 l 1,13,-1
 1066 1034 l 1,14,-1
 694 678 l 1,15,-1
 1143 85 l 1,16,-1
 1290 67 l 1,17,-1
 1290 0 l 1,18,-1
 834 0 l 1,19,-1
 834 67 l 1,20,-1
 982 86 l 1,21,-1
 606 604 l 1,22,-1
 423 432 l 1,23,-1
 428 196 l 1,24,-1
 428 85 l 1,25,-1
 583 68 l 1,26,-1
 583 0 l 1,27,-1
 121 0 l 1,28,-1
 121 68 l 1,0,-1
EndSplineSet
EndChar

StartChar: l
Encoding: 108 108 16
Width: 698
Flags: W
LayerCount: 2
Fore
SplineSet
137 68 m 1,0,-1
 304 85 l 1,1,-1
 304 1496 l 1,2,-1
 141 1520 l 1,3,-1
 141 1589 l 1,4,-1
 413 1623 l 1,5,-1
 448 1602 l 1,6,-1
 448 84 l 1,7,-1
 624 68 l 1,8,-1
 624 0 l 1,9,-1
 137 0 l 1,10,-1
 137 68 l 1,0,-1
EndSplineSet
EndChar

StartChar: m
Encoding: 109 109 17
Width: 2070
Flags: W
LayerCount: 2
Fore
SplineSet
139 67 m 1,0,-1
 281 86 l 1,1,-1
 281 968 l 1,2,-1
 134 1021 l 1,3,-1
 134 1073 l 1,4,-1
 372 1133 l 1,5,-1
 408 1114 l 1,6,-1
 408 976 l 1,7,8
 443 1004 443 1004 493.5 1032.5 c 128,-1,9
 544 1061 544 1061 601 1084.5 c 128,-1,10
 658 1108 658 1108 717 1123 c 128,-1,11
 776 1138 776 1138 828 1139 c 0,12,13
 936 1141 936 1141 1001 1108 c 128,-1,14
 1066 1075 1066 1075 1101 999 c 1,15,16
 1134 1024 1134 1024 1184 1048.5 c 128,-1,17
 1234 1073 1234 1073 1290 1092.5 c 128,-1,18
 1346 1112 1346 1112 1403.5 1124.5 c 128,-1,19
 1461 1137 1461 1137 1510 1139 c 0,20,21
 1603 1142 1603 1142 1667 1118 c 128,-1,22
 1731 1094 1731 1094 1770 1037 c 128,-1,23
 1809 980 1809 980 1826 887.5 c 128,-1,24
 1843 795 1843 795 1843 661 c 2,25,-1
 1843 85 l 1,26,-1
 2012 67 l 1,27,-1
 2012 0 l 1,28,-1
 1556 0 l 1,29,-1
 1556 67 l 1,30,-1
 1699 85 l 1,31,-1
 1699 636 l 2,32,33
 1699 739 1699 739 1689.5 814 c 128,-1,34
 1680 889 1680 889 1652.5 938 c 128,-1,35
 1625 987 1625 987 1574.5 1009.5 c 128,-1,36
 1524 1032 1524 1032 1442 1030 c 0,37,38
 1402 1029 1402 1029 1360.5 1020.5 c 128,-1,39
 1319 1012 1319 1012 1278 998.5 c 128,-1,40
 1237 985 1237 985 1198.5 967.5 c 128,-1,41
 1160 950 1160 950 1127 931 c 1,42,43
 1138 883 1138 883 1144.5 814.5 c 128,-1,44
 1151 746 1151 746 1151 671 c 2,45,-1
 1151 85 l 1,46,-1
 1309 67 l 1,47,-1
 1309 0 l 1,48,-1
 854 0 l 1,49,-1
 854 67 l 1,50,-1
 1007 86 l 1,51,-1
 1007 655 l 2,52,53
 1007 755 1007 755 998 826.5 c 128,-1,54
 989 898 989 898 963 944 c 128,-1,55
 937 990 937 990 888 1010.5 c 128,-1,56
 839 1031 839 1031 760 1029 c 0,57,58
 723 1028 723 1028 680.5 1018.5 c 128,-1,59
 638 1009 638 1009 594.5 993 c 128,-1,60
 551 977 551 977 508 955 c 128,-1,61
 465 933 465 933 427 907 c 1,62,-1
 427 650 l 2,63,64
 427 616 427 616 427 572 c 128,-1,65
 427 528 427 528 427 478 c 128,-1,66
 427 428 427 428 426.5 374.5 c 128,-1,67
 426 321 426 321 426 269.5 c 128,-1,68
 426 218 426 218 426 170.5 c 128,-1,69
 426 123 426 123 426 85 c 1,70,-1
 584 67 l 1,71,-1
 584 0 l 1,72,-1
 139 0 l 1,73,-1
 139 67 l 1,0,-1
EndSplineSet
EndChar

StartChar: n
Encoding: 110 110 18
Width: 1396
Flags: W
LayerCount: 2
Fore
SplineSet
137 68 m 1,0,-1
 280 86 l 1,1,-1
 280 968 l 1,2,-1
 133 1021 l 1,3,-1
 133 1072 l 1,4,-1
 370 1133 l 1,5,-1
 407 1114 l 1,6,-1
 407 976 l 1,7,8
 441 1003 441 1003 492 1032 c 128,-1,9
 543 1061 543 1061 600.5 1084.5 c 128,-1,10
 658 1108 658 1108 718 1124 c 128,-1,11
 778 1140 778 1140 829 1142 c 0,12,13
 923 1145 923 1145 988.5 1121 c 128,-1,14
 1054 1097 1054 1097 1094.5 1040 c 128,-1,15
 1135 983 1135 983 1153 890.5 c 128,-1,16
 1171 798 1171 798 1171 663 c 2,17,-1
 1171 85 l 1,18,-1
 1334 68 l 1,19,-1
 1334 0 l 1,20,-1
 873 0 l 1,21,-1
 873 68 l 1,22,-1
 1027 85 l 1,23,-1
 1027 645 l 2,24,25
 1027 751 1027 751 1014.5 826 c 128,-1,26
 1002 901 1002 901 971.5 947.5 c 128,-1,27
 941 994 941 994 890.5 1014 c 128,-1,28
 840 1034 840 1034 765 1031 c 0,29,30
 727 1029 727 1029 683 1019.5 c 128,-1,31
 639 1010 639 1010 594.5 993.5 c 128,-1,32
 550 977 550 977 506.5 955 c 128,-1,33
 463 933 463 933 425 907 c 1,34,-1
 425 85 l 1,35,-1
 583 68 l 1,36,-1
 583 0 l 1,37,-1
 137 0 l 1,38,-1
 137 68 l 1,0,-1
EndSplineSet
EndChar

StartChar: o
Encoding: 111 111 19
Width: 1231
Flags: W
LayerCount: 2
Fore
SplineSet
104 581 m 0,0,1
 106 713 106 713 149.5 818.5 c 128,-1,2
 193 924 193 924 265.5 997.5 c 128,-1,3
 338 1071 338 1071 433.5 1111 c 128,-1,4
 529 1151 529 1151 634 1152 c 0,5,6
 721 1153 721 1153 792 1131.5 c 128,-1,7
 863 1110 863 1110 918 1071 c 128,-1,8
 973 1032 973 1032 1012.5 978.5 c 128,-1,9
 1052 925 1052 925 1077.5 860.5 c 128,-1,10
 1103 796 1103 796 1115 724 c 128,-1,11
 1127 652 1127 652 1127 577 c 0,12,13
 1126 445 1126 445 1086 334.5 c 128,-1,14
 1046 224 1046 224 976.5 144.5 c 128,-1,15
 907 65 907 65 812.5 20.5 c 128,-1,16
 718 -24 718 -24 608 -24 c 0,17,18
 516 -24 516 -24 443 -1 c 128,-1,19
 370 22 370 22 313.5 63 c 128,-1,20
 257 104 257 104 217 161 c 128,-1,21
 177 218 177 218 151.5 285.5 c 128,-1,22
 126 353 126 353 114.5 428 c 128,-1,23
 103 503 103 503 104 581 c 0,0,1
615 63 m 0,24,25
 702 61 702 61 768.5 93.5 c 128,-1,26
 835 126 835 126 880.5 190 c 128,-1,27
 926 254 926 254 949.5 349 c 128,-1,28
 973 444 973 444 973 568 c 0,29,30
 973 669 973 669 954 759.5 c 128,-1,31
 935 850 935 850 893 918.5 c 128,-1,32
 851 987 851 987 784.5 1027.5 c 128,-1,33
 718 1068 718 1068 624 1070 c 0,34,35
 537 1071 537 1071 469 1039 c 128,-1,36
 401 1007 401 1007 354 944.5 c 128,-1,37
 307 882 307 882 282.5 792.5 c 128,-1,38
 258 703 258 703 258 590 c 0,39,40
 258 485 258 485 278 390 c 128,-1,41
 298 295 298 295 341.5 223 c 128,-1,42
 385 151 385 151 452.5 108 c 128,-1,43
 520 65 520 65 615 63 c 0,24,25
EndSplineSet
EndChar

StartChar: p
Encoding: 112 112 20
Width: 1324
Flags: W
LayerCount: 2
Fore
SplineSet
419 -260 m 1,0,-1
 419 -426 l 1,1,-1
 649 -444 l 1,2,-1
 649 -511 l 1,3,-1
 121 -511 l 1,4,-1
 121 -444 l 1,5,-1
 275 -424 l 1,6,-1
 275 968 l 1,7,-1
 130 1021 l 1,8,-1
 130 1072 l 1,9,-1
 365 1133 l 1,10,-1
 403 1113 l 1,11,-1
 403 1001 l 1,12,13
 430 1028 430 1028 468.5 1054.5 c 128,-1,14
 507 1081 507 1081 555 1103 c 128,-1,15
 603 1125 603 1125 659 1138.5 c 128,-1,16
 715 1152 715 1152 777 1152 c 0,17,18
 861 1152 861 1152 940 1122 c 128,-1,19
 1019 1092 1019 1092 1080.5 1025.5 c 128,-1,20
 1142 959 1142 959 1179.5 853 c 128,-1,21
 1217 747 1217 747 1217 595 c 0,22,23
 1217 466 1217 466 1176 353 c 128,-1,24
 1135 240 1135 240 1060.5 156 c 128,-1,25
 986 72 986 72 881.5 23.5 c 128,-1,26
 777 -25 777 -25 651 -25 c 0,27,28
 588 -25 588 -25 528.5 -13.5 c 128,-1,29
 469 -2 469 -2 415 22 c 1,30,-1
 419 -260 l 1,0,-1
419 151 m 1,31,32
 442 111 442 111 506 85 c 128,-1,33
 570 59 570 59 661 58 c 0,34,35
 739 58 739 58 812.5 87.5 c 128,-1,36
 886 117 886 117 943.5 180.5 c 128,-1,37
 1001 244 1001 244 1036.5 343 c 128,-1,38
 1072 442 1072 442 1073 579 c 0,39,40
 1074 704 1074 704 1045.5 793.5 c 128,-1,41
 1017 883 1017 883 968.5 940.5 c 128,-1,42
 920 998 920 998 855 1025 c 128,-1,43
 790 1052 790 1052 718 1052 c 0,44,45
 660 1052 660 1052 612.5 1039 c 128,-1,46
 565 1026 565 1026 527.5 1007 c 128,-1,47
 490 988 490 988 462.5 967 c 128,-1,48
 435 946 435 946 418 931 c 1,49,-1
 419 539 l 1,50,-1
 419 151 l 1,31,32
EndSplineSet
EndChar

StartChar: q
Encoding: 113 113 21
Width: 1242
Flags: W
LayerCount: 2
Fore
SplineSet
544 -28 m 0,0,1
 505 -28 505 -28 457.5 -19.5 c 128,-1,2
 410 -11 410 -11 361 12 c 128,-1,3
 312 35 312 35 266 75.5 c 128,-1,4
 220 116 220 116 184 179 c 128,-1,5
 148 242 148 242 126 331.5 c 128,-1,6
 104 421 104 421 104 543 c 0,7,8
 104 672 104 672 147.5 783 c 128,-1,9
 191 894 191 894 269 976.5 c 128,-1,10
 347 1059 347 1059 454 1106 c 128,-1,11
 561 1153 561 1153 688 1153 c 0,12,13
 755 1153 755 1153 817.5 1140 c 128,-1,14
 880 1127 880 1127 925 1104 c 1,15,-1
 1011 1136 l 1,16,-1
 1048 1121 l 1,17,-1
 1048 -419 l 1,18,-1
 1194 -437 l 1,19,-1
 1194 -511 l 1,20,-1
 679 -511 l 1,21,-1
 679 -437 l 1,22,-1
 904 -418 l 1,23,-1
 904 -47 l 1,24,-1
 908 103 l 1,25,26
 888 86 888 86 856.5 63 c 128,-1,27
 825 40 825 40 780 20 c 128,-1,28
 735 0 735 0 676 -14 c 128,-1,29
 617 -28 617 -28 544 -28 c 0,0,1
595 78 m 0,30,31
 657 78 657 78 707 88.5 c 128,-1,32
 757 99 757 99 795 115 c 128,-1,33
 833 131 833 131 860 149.5 c 128,-1,34
 887 168 887 168 904 185 c 1,35,-1
 904 987 l 1,36,37
 880 1012 880 1012 851.5 1028.5 c 128,-1,38
 823 1045 823 1045 792.5 1054 c 128,-1,39
 762 1063 762 1063 729 1066.5 c 128,-1,40
 696 1070 696 1070 663 1070 c 0,41,42
 586 1070 586 1070 512 1040 c 128,-1,43
 438 1010 438 1010 380 948 c 128,-1,44
 322 886 322 886 285.5 791 c 128,-1,45
 249 696 249 696 247 566 c 0,46,47
 245 447 245 447 270 355.5 c 128,-1,48
 295 264 295 264 340.5 202.5 c 128,-1,49
 386 141 386 141 451 109.5 c 128,-1,50
 516 78 516 78 595 78 c 0,30,31
EndSplineSet
EndChar

StartChar: r
Encoding: 114 114 22
Width: 923
Flags: W
LayerCount: 2
Fore
SplineSet
106 68 m 1,0,-1
 282 87 l 1,1,-1
 282 968 l 1,2,-1
 135 1021 l 1,3,-1
 135 1072 l 1,4,-1
 371 1133 l 1,5,-1
 409 1114 l 1,6,-1
 409 974 l 1,7,8
 430 1000 430 1000 472.5 1029 c 128,-1,9
 515 1058 515 1058 567 1082.5 c 128,-1,10
 619 1107 619 1107 675.5 1123 c 128,-1,11
 732 1139 732 1139 783 1139 c 0,12,13
 816 1139 816 1139 843.5 1137.5 c 128,-1,14
 871 1136 871 1136 882 1132 c 1,15,-1
 882 978 l 1,16,17
 854 989 854 989 819 997 c 128,-1,18
 784 1005 784 1005 723 1005 c 0,19,20
 675 1005 675 1005 631 996 c 128,-1,21
 587 987 587 987 549.5 974 c 128,-1,22
 512 961 512 961 481 945.5 c 128,-1,23
 450 930 450 930 427 915 c 1,24,-1
 427 87 l 1,25,-1
 730 68 l 1,26,-1
 730 0 l 1,27,-1
 106 0 l 1,28,-1
 106 68 l 1,0,-1
EndSplineSet
EndChar

StartChar: s
Encoding: 115 115 23
Width: 1048
Flags: W
LayerCount: 2
Fore
SplineSet
160 279 m 1,0,-1
 231 279 l 1,1,-1
 263 143 l 1,2,3
 314 100 314 100 375.5 82 c 128,-1,4
 437 64 437 64 505 61 c 0,5,6
 566 59 566 59 619 69.5 c 128,-1,7
 672 80 672 80 711 105 c 128,-1,8
 750 130 750 130 772.5 170 c 128,-1,9
 795 210 795 210 795 266 c 0,10,11
 795 320 795 320 767.5 357 c 128,-1,12
 740 394 740 394 696 422.5 c 128,-1,13
 652 451 652 451 596.5 474 c 128,-1,14
 541 497 541 497 485 522 c 0,15,16
 425 549 425 549 368.5 579.5 c 128,-1,17
 312 610 312 610 268.5 650 c 128,-1,18
 225 690 225 690 199 740.5 c 128,-1,19
 173 791 173 791 174 857 c 0,20,21
 175 932 175 932 211.5 987 c 128,-1,22
 248 1042 248 1042 304 1078 c 128,-1,23
 360 1114 360 1114 429 1132 c 128,-1,24
 498 1150 498 1150 565 1152 c 0,25,26
 614 1153 614 1153 661.5 1147 c 128,-1,27
 709 1141 709 1141 750.5 1130.5 c 128,-1,28
 792 1120 792 1120 825 1106.5 c 128,-1,29
 858 1093 858 1093 878 1080 c 1,30,-1
 878 879 l 1,31,-1
 810 879 l 1,32,-1
 776 1004 l 1,33,34
 744 1034 744 1034 691 1053.5 c 128,-1,35
 638 1073 638 1073 572 1073 c 0,36,37
 511 1073 511 1073 463.5 1059.5 c 128,-1,38
 416 1046 416 1046 382.5 1020.5 c 128,-1,39
 349 995 349 995 331.5 960 c 128,-1,40
 314 925 314 925 313 882 c 0,41,42
 312 833 312 833 334.5 798 c 128,-1,43
 357 763 357 763 395.5 734.5 c 128,-1,44
 434 706 434 706 485.5 682 c 128,-1,45
 537 658 537 658 594 631 c 0,46,47
 631 614 631 614 670.5 597 c 128,-1,48
 710 580 710 580 747.5 559.5 c 128,-1,49
 785 539 785 539 819 514.5 c 128,-1,50
 853 490 853 490 878 458.5 c 128,-1,51
 903 427 903 427 918 387.5 c 128,-1,52
 933 348 933 348 933 298 c 0,53,54
 933 219 933 219 901 158.5 c 128,-1,55
 869 98 869 98 812 57.5 c 128,-1,56
 755 17 755 17 677 -3.5 c 128,-1,57
 599 -24 599 -24 508 -24 c 256,58,59
 417 -24 417 -24 326.5 -2.5 c 128,-1,60
 236 19 236 19 160 61 c 1,61,-1
 160 279 l 1,0,-1
EndSplineSet
EndChar

StartChar: t
Encoding: 116 116 24
Width: 862
Flags: W
LayerCount: 2
Fore
SplineSet
272 1019 m 1,0,-1
 112 1019 l 1,1,-1
 112 1079 l 1,2,3
 154 1087 154 1087 183 1091.5 c 128,-1,4
 212 1096 212 1096 232 1102 c 128,-1,5
 252 1108 252 1108 264.5 1118.5 c 128,-1,6
 277 1129 277 1129 288 1148 c 1,7,8
 294 1161 294 1161 302 1192.5 c 128,-1,9
 310 1224 310 1224 317.5 1260 c 128,-1,10
 325 1296 325 1296 330.5 1330.5 c 128,-1,11
 336 1365 336 1365 338 1386 c 1,12,-1
 414 1386 l 1,13,-1
 414 1116 l 1,14,-1
 789 1116 l 1,15,-1
 789 1019 l 1,16,-1
 414 1019 l 1,17,-1
 414 417 l 2,18,19
 414 316 414 316 418.5 251 c 128,-1,20
 423 186 423 186 436.5 148.5 c 128,-1,21
 450 111 450 111 476 96.5 c 128,-1,22
 502 82 502 82 546 82 c 0,23,24
 582 82 582 82 617 89 c 128,-1,25
 652 96 652 96 683 106 c 128,-1,26
 714 116 714 116 738 127.5 c 128,-1,27
 762 139 762 139 774 147 c 1,28,-1
 799 76 l 1,29,30
 776 51 776 51 738.5 32.5 c 128,-1,31
 701 14 701 14 658 1.5 c 128,-1,32
 615 -11 615 -11 571 -17.5 c 128,-1,33
 527 -24 527 -24 493 -24 c 0,34,35
 439 -24 439 -24 397.5 -9 c 128,-1,36
 356 6 356 6 328 39.5 c 128,-1,37
 300 73 300 73 286 126 c 128,-1,38
 272 179 272 179 272 255 c 2,39,-1
 272 1019 l 1,0,-1
EndSplineSet
EndChar

StartChar: u
Encoding: 117 117 25
Width: 1292
Flags: W
LayerCount: 2
Fore
SplineSet
214 1017 m 1,0,-1
 111 1037 l 1,1,-1
 111 1097 l 1,2,-1
 326 1139 l 1,3,-1
 356 1121 l 1,4,-1
 356 432 l 2,5,6
 356 340 356 340 365 274.5 c 128,-1,7
 374 209 374 209 400 166 c 128,-1,8
 426 123 426 123 473 103 c 128,-1,9
 520 83 520 83 595 83 c 0,10,11
 653 83 653 83 707 99 c 128,-1,12
 761 115 761 115 805.5 137.5 c 128,-1,13
 850 160 850 160 881.5 182.5 c 128,-1,14
 913 205 913 205 928 219 c 1,15,-1
 928 1007 l 1,16,-1
 803 1029 l 1,17,-1
 803 1093 l 1,18,-1
 1042 1138 l 1,19,-1
 1071 1121 l 1,20,-1
 1071 71 l 1,21,-1
 1197 71 l 1,22,-1
 1197 10 l 1,23,24
 1183 4 1183 4 1162.5 -2.5 c 128,-1,25
 1142 -9 1142 -9 1119.5 -13.5 c 128,-1,26
 1097 -18 1097 -18 1074.5 -21 c 128,-1,27
 1052 -24 1052 -24 1034 -24 c 0,28,29
 989 -24 989 -24 965.5 -5.5 c 128,-1,30
 942 13 942 13 942 52 c 2,31,-1
 942 142 l 1,32,33
 844 61 844 61 742.5 20 c 128,-1,34
 641 -21 641 -21 538 -21 c 0,35,36
 460 -21 460 -21 405.5 -4.5 c 128,-1,37
 351 12 351 12 315 42.5 c 128,-1,38
 279 73 279 73 259 116 c 128,-1,39
 239 159 239 159 229 212.5 c 128,-1,40
 219 266 219 266 216.5 329 c 128,-1,41
 214 392 214 392 214 461 c 2,42,-1
 214 1017 l 1,0,-1
EndSplineSet
EndChar

StartChar: v
Encoding: 118 118 26
Width: 1188
Flags: W
LayerCount: 2
Fore
SplineSet
111 1022 m 1,0,-1
 2 1038 l 1,1,-1
 2 1119 l 1,2,-1
 420 1119 l 1,3,-1
 420 1038 l 1,4,-1
 275 1021 l 1,5,-1
 532 395 l 1,6,-1
 626 122 l 1,7,-1
 718 387 l 1,8,-1
 947 1020 l 1,9,-1
 804 1037 l 1,10,-1
 804 1119 l 1,11,-1
 1189 1119 l 1,12,-1
 1189 1038 l 1,13,-1
 1072 1019 l 1,14,-1
 661 -24 l 1,15,-1
 557 -24 l 1,16,-1
 111 1022 l 1,0,-1
EndSplineSet
EndChar

StartChar: w
Encoding: 119 119 27
Width: 1692
Flags: W
LayerCount: 2
Fore
SplineSet
118 1021 m 1,0,-1
 2 1037 l 1,1,-1
 2 1119 l 1,2,-1
 424 1119 l 1,3,-1
 424 1037 l 1,4,-1
 266 1020 l 1,5,-1
 496 283 l 1,6,-1
 535 123 l 1,7,-1
 570 282 l 1,8,-1
 800 1119 l 1,9,-1
 928 1119 l 1,10,-1
 1161 283 l 1,11,-1
 1205 115 l 1,12,-1
 1246 277 l 1,13,-1
 1442 1021 l 1,14,-1
 1305 1037 l 1,15,-1
 1305 1119 l 1,16,-1
 1690 1119 l 1,17,-1
 1690 1038 l 1,18,-1
 1561 1019 l 1,19,-1
 1259 -25 l 1,20,-1
 1122 -25 l 1,21,-1
 886 786 l 1,22,-1
 855 946 l 1,23,-1
 814 786 l 1,24,-1
 588 -25 l 1,25,-1
 463 -25 l 1,26,-1
 118 1021 l 1,0,-1
EndSplineSet
EndChar

StartChar: x
Encoding: 120 120 28
Width: 1168
Flags: W
LayerCount: 2
Fore
SplineSet
18 68 m 1,0,-1
 167 86 l 1,1,-1
 512 545 l 1,2,-1
 157 1022 l 1,3,-1
 4 1037 l 1,4,-1
 4 1119 l 1,5,-1
 483 1119 l 1,6,-1
 483 1037 l 1,7,-1
 327 1023 l 1,8,-1
 548 699 l 1,9,-1
 604 616 l 1,10,-1
 655 697 l 1,11,-1
 879 1024 l 1,12,-1
 733 1037 l 1,13,-1
 733 1119 l 1,14,-1
 1149 1119 l 1,15,-1
 1149 1037 l 1,16,-1
 999 1021 l 1,17,-1
 654 560 l 1,18,-1
 1010 85 l 1,19,-1
 1161 68 l 1,20,-1
 1161 0 l 1,21,-1
 680 0 l 1,22,-1
 680 68 l 1,23,-1
 839 84 l 1,24,25
 797 147 797 147 759.5 201 c 128,-1,26
 722 255 722 255 693 296 c 128,-1,27
 664 337 664 337 646 362 c 128,-1,28
 628 387 628 387 626 391 c 2,29,-1
 560 484 l 1,30,-1
 514 407 l 1,31,-1
 292 84 l 1,32,-1
 475 68 l 1,33,-1
 475 0 l 1,34,-1
 18 0 l 1,35,-1
 18 68 l 1,0,-1
EndSplineSet
EndChar

StartChar: y
Encoding: 121 121 29
Width: 1150
Flags: W
LayerCount: 2
Fore
SplineSet
150 -377 m 1,0,1
 167 -382 167 -382 189.5 -385.5 c 128,-1,2
 212 -389 212 -389 230 -390 c 0,3,4
 266 -391 266 -391 311 -376.5 c 128,-1,5
 356 -362 356 -362 402 -321.5 c 128,-1,6
 448 -281 448 -281 493 -209.5 c 128,-1,7
 538 -138 538 -138 574 -25 c 1,8,-1
 547 -25 l 1,9,-1
 126 1022 l 1,10,-1
 2 1037 l 1,11,-1
 2 1119 l 1,12,-1
 452 1119 l 1,13,-1
 452 1037 l 1,14,-1
 287 1021 l 1,15,-1
 542 322 l 1,16,-1
 633 67 l 1,17,-1
 701 305 l 1,18,-1
 921 1023 l 1,19,-1
 757 1037 l 1,20,-1
 757 1119 l 1,21,-1
 1171 1119 l 1,22,-1
 1171 1037 l 1,23,-1
 1047 1023 l 1,24,25
 982 827 982 827 932 678.5 c 128,-1,26
 882 530 882 530 845 419.5 c 128,-1,27
 808 309 808 309 781.5 232 c 128,-1,28
 755 155 755 155 737 103 c 128,-1,29
 719 51 719 51 707.5 19.5 c 128,-1,30
 696 -12 696 -12 688 -32 c 0,31,32
 649 -133 649 -133 609 -213.5 c 128,-1,33
 569 -294 569 -294 525 -353.5 c 128,-1,34
 481 -413 481 -413 429.5 -451.5 c 128,-1,35
 378 -490 378 -490 316 -505 c 0,36,37
 277 -515 277 -515 229 -515 c 0,38,39
 219 -515 219 -515 207 -514 c 128,-1,40
 195 -513 195 -513 183.5 -511 c 128,-1,41
 172 -509 172 -509 163 -506 c 128,-1,42
 154 -503 154 -503 150 -500 c 1,43,-1
 150 -377 l 1,44,-1
 150 -377 l 1,0,1
EndSplineSet
EndChar

StartChar: z
Encoding: 122 122 30
Width: 1078
Flags: W
LayerCount: 2
Fore
SplineSet
165 172 m 1,0,-1
 743 943 l 1,1,-1
 829 1047 l 1,2,-1
 255 1031 l 1,3,-1
 207 841 l 1,4,-1
 135 841 l 1,5,-1
 137 1119 l 1,6,-1
 977 1119 l 1,7,-1
 1000 1052 l 1,8,-1
 360 203 l 1,9,-1
 260 77 l 1,10,-1
 884 96 l 1,11,-1
 941 276 l 1,12,13
 958 276 958 276 980 275.5 c 128,-1,14
 1002 275 1002 275 1019 275 c 1,15,-1
 1002 0 l 1,16,-1
 117 0 l 1,17,-1
 88 70 l 1,18,-1
 165 172 l 1,0,-1
EndSplineSet
EndChar

StartChar: A
Encoding: 65 65 31
Width: 1493
Flags: W
LayerCount: 2
Fore
SplineSet
2 67 m 1,0,-1
 148 91 l 1,1,-1
 686 1561 l 1,2,-1
 807 1561 l 1,3,-1
 1330 91 l 1,4,-1
 1495 67 l 1,5,-1
 1495 0 l 1,6,-1
 1007 0 l 1,7,-1
 1007 67 l 1,8,-1
 1175 91 l 1,9,-1
 1048 455 l 1,10,-1
 404 455 l 1,11,-1
 278 91 l 1,12,-1
 452 67 l 1,13,-1
 452 0 l 1,14,-1
 2 0 l 1,15,-1
 2 67 l 1,0,-1
1017 546 m 1,16,-1
 803 1159 l 1,17,-1
 729 1392 l 1,18,-1
 435 546 l 1,19,-1
 1017 546 l 1,16,-1
EndSplineSet
EndChar

StartChar: B
Encoding: 66 66 32
Width: 1419
Flags: W
LayerCount: 2
Fore
SplineSet
106 67 m 1,0,-1
 284 92 l 1,1,-1
 284 1462 l 1,2,-1
 110 1477 l 1,3,-1
 110 1553 l 1,4,-1
 351 1553 l 1,5,6
 396 1554 396 1554 439.5 1556 c 128,-1,7
 483 1558 483 1558 529 1560.5 c 128,-1,8
 575 1563 575 1563 626.5 1564.5 c 128,-1,9
 678 1566 678 1566 738 1566 c 0,10,11
 856 1566 856 1566 947 1541.5 c 128,-1,12
 1038 1517 1038 1517 1099.5 1472 c 128,-1,13
 1161 1427 1161 1427 1192.5 1362.5 c 128,-1,14
 1224 1298 1224 1298 1224 1217 c 0,15,16
 1224 1148 1224 1148 1206 1085 c 128,-1,17
 1188 1022 1188 1022 1151 970.5 c 128,-1,18
 1114 919 1114 919 1056 881.5 c 128,-1,19
 998 844 998 844 919 828 c 1,20,21
 1001 828 1001 828 1075 803 c 128,-1,22
 1149 778 1149 778 1205 730.5 c 128,-1,23
 1261 683 1261 683 1293.5 614 c 128,-1,24
 1326 545 1326 545 1326 458 c 0,25,26
 1326 355 1326 355 1287 268.5 c 128,-1,27
 1248 182 1248 182 1167.5 119 c 128,-1,28
 1087 56 1087 56 965.5 21 c 128,-1,29
 844 -14 844 -14 679 -14 c 0,30,31
 636 -14 636 -14 591 -12 c 128,-1,32
 546 -10 546 -10 502.5 -8 c 128,-1,33
 459 -6 459 -6 420.5 -3.5 c 128,-1,34
 382 -1 382 -1 352 0 c 1,35,-1
 106 0 l 1,36,-1
 106 67 l 1,0,-1
431 863 m 1,37,38
 458 859 458 859 498.5 857.5 c 128,-1,39
 539 856 539 856 582 856 c 128,-1,40
 625 856 625 856 664.5 856.5 c 128,-1,41
 704 857 704 857 729 857 c 0,42,43
 802 857 802 857 867 876 c 128,-1,44
 932 895 932 895 980 935.5 c 128,-1,45
 1028 976 1028 976 1056 1039 c 128,-1,46
 1084 1102 1084 1102 1084 1189 c 0,47,48
 1084 1268 1084 1268 1053.5 1324 c 128,-1,49
 1023 1380 1023 1380 971 1415.5 c 128,-1,50
 919 1451 919 1451 850.5 1467 c 128,-1,51
 782 1483 782 1483 706 1483 c 0,52,53
 676 1483 676 1483 637.5 1482.5 c 128,-1,54
 599 1482 599 1482 560.5 1480.5 c 128,-1,55
 522 1479 522 1479 488 1476 c 128,-1,56
 454 1473 454 1473 433 1468 c 1,57,-1
 431 863 l 1,37,38
432 103 m 1,58,59
 450 96 450 96 484.5 90.5 c 128,-1,60
 519 85 519 85 559.5 81 c 128,-1,61
 600 77 600 77 641.5 74.5 c 128,-1,62
 683 72 683 72 715 72 c 0,63,64
 799 72 799 72 881 88.5 c 128,-1,65
 963 105 963 105 1027.5 146 c 128,-1,66
 1092 187 1092 187 1131.5 255.5 c 128,-1,67
 1171 324 1171 324 1171 429 c 0,68,69
 1171 522 1171 522 1140.5 586 c 128,-1,70
 1110 650 1110 650 1055.5 689.5 c 128,-1,71
 1001 729 1001 729 926 746.5 c 128,-1,72
 851 764 851 764 762 764 c 0,73,74
 727 764 727 764 681.5 764 c 128,-1,75
 636 764 636 764 590 764 c 128,-1,76
 544 764 544 764 502 763 c 128,-1,77
 460 762 460 762 432 760 c 1,78,-1
 432 103 l 1,58,59
EndSplineSet
EndChar

StartChar: C
Encoding: 67 67 33
Width: 1410
Flags: W
LayerCount: 2
Fore
SplineSet
87 731 m 0,0,1
 87 858 87 858 117 969.5 c 128,-1,2
 147 1081 147 1081 201 1174 c 128,-1,3
 255 1267 255 1267 329.5 1340 c 128,-1,4
 404 1413 404 1413 494 1463.5 c 128,-1,5
 584 1514 584 1514 685 1540.5 c 128,-1,6
 786 1567 786 1567 893 1567 c 0,7,8
 965 1567 965 1567 1027 1558.5 c 128,-1,9
 1089 1550 1089 1550 1140.5 1538.5 c 128,-1,10
 1192 1527 1192 1527 1234 1515 c 128,-1,11
 1276 1503 1276 1503 1309 1496 c 1,12,-1
 1294 1220 l 1,13,-1
 1213 1220 l 1,14,-1
 1175 1400 l 1,15,16
 1113 1439 1113 1439 1033.5 1458.5 c 128,-1,17
 954 1478 954 1478 849 1478 c 0,18,19
 771 1478 771 1478 695.5 1457.5 c 128,-1,20
 620 1437 620 1437 552 1396.5 c 128,-1,21
 484 1356 484 1356 427 1296.5 c 128,-1,22
 370 1237 370 1237 328.5 1159 c 128,-1,23
 287 1081 287 1081 263.5 985.5 c 128,-1,24
 240 890 240 890 240 778 c 0,25,26
 240 681 240 681 257.5 589 c 128,-1,27
 275 497 275 497 309.5 416.5 c 128,-1,28
 344 336 344 336 395.5 269 c 128,-1,29
 447 202 447 202 514.5 154 c 128,-1,30
 582 106 582 106 665.5 80 c 128,-1,31
 749 54 749 54 848 55 c 0,32,33
 970 56 970 56 1061.5 87.5 c 128,-1,34
 1153 119 1153 119 1198 166 c 1,35,-1
 1242 335 l 1,36,37
 1257 335 1257 335 1276 334.5 c 128,-1,38
 1295 334 1295 334 1310 334 c 1,39,-1
 1310 63 l 1,40,41
 1274 61 1274 61 1230.5 47 c 128,-1,42
 1187 33 1187 33 1127.5 16 c 128,-1,43
 1068 -1 1068 -1 988.5 -14.5 c 128,-1,44
 909 -28 909 -28 802 -28 c 0,45,46
 647 -28 647 -28 516 28 c 128,-1,47
 385 84 385 84 289.5 185 c 128,-1,48
 194 286 194 286 140.5 425 c 128,-1,49
 87 564 87 564 87 731 c 0,0,1
EndSplineSet
EndChar

StartChar: D
Encoding: 68 68 34
Width: 1593
Flags: W
LayerCount: 2
Fore
SplineSet
106 67 m 1,0,-1
 286 92 l 1,1,-1
 286 1461 l 1,2,-1
 110 1477 l 1,3,-1
 110 1553 l 1,4,-1
 359 1553 l 2,5,6
 417 1553 417 1553 467 1555 c 128,-1,7
 517 1557 517 1557 562.5 1559.5 c 128,-1,8
 608 1562 608 1562 652 1564 c 128,-1,9
 696 1566 696 1566 743 1566 c 0,10,11
 933 1567 933 1567 1075 1516.5 c 128,-1,12
 1217 1466 1217 1466 1311.5 1369.5 c 128,-1,13
 1406 1273 1406 1273 1453 1133.5 c 128,-1,14
 1500 994 1500 994 1500 817 c 0,15,16
 1500 620 1500 620 1440.5 465.5 c 128,-1,17
 1381 311 1381 311 1273.5 204.5 c 128,-1,18
 1166 98 1166 98 1017.5 42.5 c 128,-1,19
 869 -13 869 -13 692 -10 c 0,20,21
 656 -10 656 -10 614.5 -8 c 128,-1,22
 573 -6 573 -6 530.5 -4 c 128,-1,23
 488 -2 488 -2 444.5 -0.5 c 128,-1,24
 401 1 401 1 361 1 c 0,25,26
 338 1 338 1 304 1 c 128,-1,27
 270 1 270 1 233.5 0.5 c 128,-1,28
 197 0 197 0 163 0 c 128,-1,29
 129 0 129 0 106 0 c 1,30,-1
 106 67 l 1,0,-1
434 100 m 1,31,32
 503 88 503 88 569.5 81 c 128,-1,33
 636 74 636 74 713 76 c 0,34,35
 841 78 841 78 955.5 120 c 128,-1,36
 1070 162 1070 162 1156.5 247.5 c 128,-1,37
 1243 333 1243 333 1294 464 c 128,-1,38
 1345 595 1345 595 1345 776 c 0,39,40
 1345 954 1345 954 1301.5 1087.5 c 128,-1,41
 1258 1221 1258 1221 1175 1309.5 c 128,-1,42
 1092 1398 1092 1398 972 1440.5 c 128,-1,43
 852 1483 852 1483 698 1479 c 0,44,45
 617 1477 617 1477 550 1472.5 c 128,-1,46
 483 1468 483 1468 434 1461 c 1,47,-1
 434 100 l 1,31,32
EndSplineSet
EndChar

StartChar: E
Encoding: 69 69 35
Width: 1319
Flags: W
LayerCount: 2
Fore
SplineSet
102 67 m 1,0,-1
 282 91 l 1,1,-1
 282 1461 l 1,2,-1
 106 1477 l 1,3,-1
 106 1553 l 1,4,-1
 1143 1553 l 1,5,-1
 1172 1267 l 1,6,-1
 1087 1267 l 1,7,-1
 1041 1461 l 1,8,-1
 429 1472 l 1,9,-1
 429 865 l 1,10,-1
 837 872 l 1,11,-1
 863 1033 l 1,12,-1
 942 1033 l 1,13,-1
 942 609 l 1,14,-1
 863 609 l 1,15,-1
 837 776 l 1,16,-1
 429 782 l 1,17,-1
 429 84 l 1,18,-1
 1087 100 l 1,19,-1
 1178 333 l 1,20,-1
 1252 315 l 1,21,-1
 1207 0 l 1,22,-1
 102 0 l 1,23,-1
 102 67 l 1,0,-1
EndSplineSet
EndChar

StartChar: F
Encoding: 70 70 36
Width: 1238
Flags: W
LayerCount: 2
Fore
SplineSet
104 67 m 1,0,-1
 295 92 l 1,1,-1
 295 1461 l 1,2,-1
 119 1477 l 1,3,-1
 119 1553 l 1,4,-1
 1178 1553 l 1,5,-1
 1200 1268 l 1,6,-1
 1122 1266 l 1,7,-1
 1076 1456 l 1,8,-1
 443 1468 l 1,9,-1
 443 834 l 1,10,-1
 906 842 l 1,11,-1
 939 998 l 1,12,-1
 1015 998 l 1,13,-1
 1015 578 l 1,14,-1
 930 578 l 1,15,-1
 906 744 l 1,16,-1
 442 751 l 1,17,-1
 443 91 l 1,18,-1
 752 73 l 1,19,-1
 752 0 l 1,20,-1
 104 0 l 1,21,-1
 104 67 l 1,0,-1
EndSplineSet
EndChar

StartChar: G
Encoding: 71 71 37
Width: 1536
Flags: W
LayerCount: 2
Fore
SplineSet
86 731 m 0,0,1
 86 923 86 923 150 1077 c 128,-1,2
 214 1231 214 1231 323.5 1340 c 128,-1,3
 433 1449 433 1449 579 1507.5 c 128,-1,4
 725 1566 725 1566 889 1566 c 0,5,6
 979 1566 979 1566 1049.5 1558 c 128,-1,7
 1120 1550 1120 1550 1174 1539 c 128,-1,8
 1228 1528 1228 1528 1268 1516.5 c 128,-1,9
 1308 1505 1308 1505 1337 1499 c 1,10,-1
 1324 1226 l 1,11,-1
 1241 1226 l 1,12,-1
 1201 1403 l 1,13,14
 1186 1415 1186 1415 1154.5 1428.5 c 128,-1,15
 1123 1442 1123 1442 1078 1453 c 128,-1,16
 1033 1464 1033 1464 974 1471.5 c 128,-1,17
 915 1479 915 1479 844 1478 c 0,18,19
 727 1477 727 1477 618 1430 c 128,-1,20
 509 1383 509 1383 424.5 1293.5 c 128,-1,21
 340 1204 340 1204 289.5 1074 c 128,-1,22
 239 944 239 944 239 777 c 0,23,24
 239 686 239 686 254 597 c 128,-1,25
 269 508 269 508 300 428 c 128,-1,26
 331 348 331 348 378.5 280 c 128,-1,27
 426 212 426 212 491 162 c 128,-1,28
 556 112 556 112 638.5 84 c 128,-1,29
 721 56 721 56 822 56 c 0,30,31
 870 56 870 56 923 61.5 c 128,-1,32
 976 67 976 67 1026.5 79 c 128,-1,33
 1077 91 1077 91 1120 109.5 c 128,-1,34
 1163 128 1163 128 1192 153 c 1,35,-1
 1192 618 l 1,36,-1
 915 633 l 1,37,-1
 915 708 l 1,38,-1
 1476 708 l 1,39,-1
 1476 633 l 1,40,-1
 1340 616 l 1,41,-1
 1340 75 l 1,42,43
 1307 72 1307 72 1249.5 56 c 128,-1,44
 1192 40 1192 40 1118.5 21 c 128,-1,45
 1045 2 1045 2 959 -13 c 128,-1,46
 873 -28 873 -28 782 -28 c 0,47,48
 627 -28 627 -28 499 29 c 128,-1,49
 371 86 371 86 279 187 c 128,-1,50
 187 288 187 288 136.5 427.5 c 128,-1,51
 86 567 86 567 86 731 c 0,0,1
EndSplineSet
EndChar

StartChar: H
Encoding: 72 72 38
Width: 1706
Flags: W
LayerCount: 2
Fore
SplineSet
106 67 m 1,0,-1
 278 92 l 1,1,-1
 278 1462 l 1,2,-1
 113 1477 l 1,3,-1
 113 1553 l 1,4,-1
 588 1553 l 1,5,-1
 588 1477 l 1,6,-1
 426 1462 l 1,7,-1
 426 794 l 1,8,-1
 1263 794 l 1,9,-1
 1263 1462 l 1,10,-1
 1099 1477 l 1,11,-1
 1099 1553 l 1,12,-1
 1569 1553 l 1,13,-1
 1569 1477 l 1,14,-1
 1411 1462 l 1,15,-1
 1411 92 l 1,16,-1
 1585 67 l 1,17,-1
 1585 0 l 1,18,-1
 1093 0 l 1,19,-1
 1093 67 l 1,20,-1
 1263 91 l 1,21,-1
 1263 703 l 1,22,-1
 426 703 l 1,23,-1
 426 91 l 1,24,-1
 596 67 l 1,25,-1
 596 0 l 1,26,-1
 106 0 l 1,27,-1
 106 67 l 1,0,-1
EndSplineSet
EndChar

StartChar: I
Encoding: 73 73 39
Width: 763
Flags: W
LayerCount: 2
Fore
SplineSet
136 67 m 1,0,-1
 305 91 l 1,1,-1
 305 1462 l 1,2,-1
 139 1477 l 1,3,-1
 139 1553 l 1,4,-1
 621 1553 l 1,5,-1
 621 1477 l 1,6,-1
 453 1462 l 1,7,-1
 453 91 l 1,8,-1
 629 67 l 1,9,-1
 629 0 l 1,10,-1
 136 0 l 1,11,-1
 136 67 l 1,0,-1
EndSplineSet
EndChar

StartChar: J
Encoding: 74 74 40
Width: 720
Flags: W
LayerCount: 2
Fore
SplineSet
250 -60 m 1,0,1
 265 -16 265 -16 273.5 33 c 128,-1,2
 282 82 282 82 286 138 c 128,-1,3
 290 194 290 194 291 259 c 128,-1,4
 292 324 292 324 292 401 c 2,5,-1
 292 1462 l 1,6,-1
 117 1477 l 1,7,-1
 117 1553 l 1,8,-1
 621 1553 l 1,9,-1
 621 1477 l 1,10,-1
 441 1462 l 1,11,-1
 441 475 l 2,12,13
 441 351 441 351 440.5 240 c 128,-1,14
 440 129 440 129 423 35 c 1,15,16
 405 -55 405 -55 358.5 -128 c 128,-1,17
 312 -201 312 -201 248.5 -255 c 128,-1,18
 185 -309 185 -309 109 -342.5 c 128,-1,19
 33 -376 33 -376 -43 -387 c 1,20,-1
 -86 -328 l 1,21,22
 37 -295 37 -295 124.5 -226 c 128,-1,23
 212 -157 212 -157 250 -60 c 1,0,1
EndSplineSet
EndChar

StartChar: K
Encoding: 75 75 41
Width: 1419
Flags: W
LayerCount: 2
Fore
SplineSet
106 67 m 1,0,-1
 268 91 l 1,1,-1
 268 1463 l 1,2,-1
 109 1477 l 1,3,-1
 109 1553 l 1,4,-1
 578 1553 l 1,5,-1
 578 1477 l 1,6,-1
 417 1463 l 1,7,-1
 417 716 l 1,8,-1
 1056 1461 l 1,9,-1
 896 1477 l 1,10,11
 896 1494 896 1494 895.5 1515 c 128,-1,12
 895 1536 895 1536 895 1553 c 1,13,-1
 1356 1553 l 1,14,-1
 1356 1477 l 1,15,-1
 1197 1461 l 1,16,-1
 695 894 l 1,17,18
 718 870 718 870 752.5 822.5 c 128,-1,19
 787 775 787 775 828 714 c 128,-1,20
 869 653 869 653 914.5 583.5 c 128,-1,21
 960 514 960 514 1005 445.5 c 128,-1,22
 1050 377 1050 377 1093 313.5 c 128,-1,23
 1136 250 1136 250 1172 201.5 c 128,-1,24
 1208 153 1208 153 1234 124.5 c 128,-1,25
 1260 96 1260 96 1273 96 c 1,26,-1
 1425 67 l 1,27,-1
 1425 0 l 1,28,-1
 1164 0 l 2,29,30
 1151 0 1151 0 1125.5 28.5 c 128,-1,31
 1100 57 1100 57 1067 105 c 128,-1,32
 1034 153 1034 153 994.5 216 c 128,-1,33
 955 279 955 279 913 347.5 c 128,-1,34
 871 416 871 416 828 485.5 c 128,-1,35
 785 555 785 555 745 615.5 c 128,-1,36
 705 676 705 676 670 723.5 c 128,-1,37
 635 771 635 771 609 796 c 1,38,-1
 417 580 l 1,39,-1
 417 90 l 1,40,-1
 594 67 l 1,41,-1
 594 0 l 1,42,-1
 106 0 l 1,43,-1
 106 67 l 1,0,-1
EndSplineSet
EndChar

StartChar: L
Encoding: 76 76 42
Width: 1244
Flags: W
LayerCount: 2
Fore
SplineSet
106 67 m 1,0,-1
 286 92 l 1,1,-1
 286 1454 l 1,2,-1
 110 1469 l 1,3,-1
 110 1553 l 1,4,-1
 629 1553 l 1,5,-1
 629 1469 l 1,6,-1
 434 1454 l 1,7,-1
 433 86 l 1,8,-1
 1038 105 l 1,9,-1
 1146 350 l 1,10,-1
 1214 318 l 1,11,-1
 1149 0 l 1,12,-1
 106 0 l 1,13,-1
 106 67 l 1,0,-1
EndSplineSet
EndChar

StartChar: M
Encoding: 77 77 43
Width: 1977
Flags: W
LayerCount: 2
Fore
SplineSet
77 67 m 1,0,-1
 263 91 l 1,1,-1
 365 1455 l 1,2,-1
 164 1470 l 1,3,-1
 164 1553 l 1,4,-1
 575 1553 l 1,5,-1
 976 374 l 1,6,-1
 1018 235 l 1,7,-1
 1062 377 l 1,8,-1
 1442 1553 l 1,9,-1
 1828 1553 l 1,10,-1
 1828 1470 l 1,11,-1
 1631 1455 l 1,12,-1
 1749 91 l 1,13,-1
 1943 67 l 1,14,-1
 1943 0 l 1,15,-1
 1418 0 l 1,16,-1
 1418 67 l 1,17,-1
 1609 91 l 1,18,-1
 1521 1118 l 1,19,-1
 1507 1458 l 1,20,-1
 1455 1267 l 1,21,-1
 1025 -15 l 1,22,-1
 972 -15 l 1,23,-1
 557 1159 l 2,24,25
 546 1189 546 1189 533 1227 c 128,-1,26
 520 1265 520 1265 506.5 1305 c 128,-1,27
 493 1345 493 1345 479.5 1385 c 128,-1,28
 466 1425 466 1425 454 1459 c 1,29,-1
 439 1064 l 1,30,-1
 382 92 l 1,31,-1
 595 67 l 1,32,-1
 595 0 l 1,33,-1
 77 0 l 1,34,-1
 77 67 l 1,0,-1
EndSplineSet
EndChar

StartChar: N
Encoding: 78 78 44
Width: 1662
Flags: W
LayerCount: 2
Fore
SplineSet
104 67 m 1,0,-1
 280 90 l 1,1,-1
 280 1454 l 1,2,-1
 110 1469 l 1,3,-1
 110 1553 l 1,4,-1
 436 1553 l 1,5,-1
 1155 399 l 1,6,-1
 1303 128 l 1,7,-1
 1303 1455 l 1,8,-1
 1129 1470 l 1,9,-1
 1129 1553 l 1,10,-1
 1585 1553 l 1,11,-1
 1585 1470 l 1,12,-1
 1412 1455 l 1,13,-1
 1412 0 l 1,14,-1
 1250 0 l 1,15,-1
 539 1112 l 1,16,-1
 391 1392 l 1,17,18
 391 1315 391 1315 391 1209.5 c 128,-1,19
 391 1104 391 1104 391 984.5 c 128,-1,20
 391 865 391 865 390.5 738.5 c 128,-1,21
 390 612 390 612 390 493 c 128,-1,22
 390 374 390 374 390 270 c 128,-1,23
 390 166 390 166 390 91 c 1,24,-1
 596 67 l 1,25,-1
 596 0 l 1,26,-1
 104 0 l 1,27,-1
 104 67 l 1,0,-1
EndSplineSet
EndChar

StartChar: O
Encoding: 79 79 45
Width: 1554
Flags: W
LayerCount: 2
Fore
SplineSet
90 755 m 0,0,1
 94 951 94 951 152 1101 c 128,-1,2
 210 1251 210 1251 307 1353.5 c 128,-1,3
 404 1456 404 1456 531.5 1509.5 c 128,-1,4
 659 1563 659 1563 801 1566 c 0,5,6
 954 1569 954 1569 1078 1512.5 c 128,-1,7
 1202 1456 1202 1456 1289 1353 c 128,-1,8
 1376 1250 1376 1250 1421.5 1106 c 128,-1,9
 1467 962 1467 962 1464 791 c 0,10,11
 1460 596 1460 596 1404.5 445 c 128,-1,12
 1349 294 1349 294 1255.5 189.5 c 128,-1,13
 1162 85 1162 85 1038 30 c 128,-1,14
 914 -25 914 -25 774 -28 c 0,15,16
 618 -31 618 -31 490.5 25.5 c 128,-1,17
 363 82 363 82 273 186 c 128,-1,18
 183 290 183 290 135 435.5 c 128,-1,19
 87 581 87 581 90 755 c 0,0,1
788 55 m 0,20,21
 903 55 903 55 998 106 c 128,-1,22
 1093 157 1093 157 1160.5 252.5 c 128,-1,23
 1228 348 1228 348 1265.5 484 c 128,-1,24
 1303 620 1303 620 1303 790 c 0,25,26
 1303 934 1303 934 1269 1060 c 128,-1,27
 1235 1186 1235 1186 1169 1280 c 128,-1,28
 1103 1374 1103 1374 1006.5 1428.5 c 128,-1,29
 910 1483 910 1483 786 1483 c 0,30,31
 670 1483 670 1483 572 1434.5 c 128,-1,32
 474 1386 474 1386 403 1293 c 128,-1,33
 332 1200 332 1200 292 1065 c 128,-1,34
 252 930 252 930 252 756 c 0,35,36
 252 608 252 608 289 480 c 128,-1,37
 326 352 326 352 395.5 257.5 c 128,-1,38
 465 163 465 163 564 109 c 128,-1,39
 663 55 663 55 788 55 c 0,20,21
EndSplineSet
EndChar

StartChar: P
Encoding: 80 80 46
Width: 1296
Flags: W
LayerCount: 2
Fore
SplineSet
86 67 m 1,0,-1
 287 92 l 1,1,-1
 287 1454 l 1,2,-1
 108 1469 l 1,3,-1
 108 1553 l 1,4,-1
 358 1553 l 2,5,6
 388 1553 388 1553 428.5 1555 c 128,-1,7
 469 1557 469 1557 516 1559.5 c 128,-1,8
 563 1562 563 1562 613.5 1564 c 128,-1,9
 664 1566 664 1566 714 1566 c 0,10,11
 829 1566 829 1566 925 1543.5 c 128,-1,12
 1021 1521 1021 1521 1090 1467.5 c 128,-1,13
 1159 1414 1159 1414 1197.5 1324.5 c 128,-1,14
 1236 1235 1236 1235 1236 1100 c 0,15,16
 1236 978 1236 978 1187 883 c 128,-1,17
 1138 788 1138 788 1057 723.5 c 128,-1,18
 976 659 976 659 871.5 626 c 128,-1,19
 767 593 767 593 657 594 c 0,20,21
 574 594 574 594 520.5 594.5 c 128,-1,22
 467 595 467 595 435 592 c 1,23,-1
 435 92 l 1,24,-1
 711 67 l 1,25,-1
 711 0 l 1,26,-1
 86 0 l 1,27,-1
 86 67 l 1,0,-1
435 685 m 1,28,29
 491 676 491 676 549 674.5 c 128,-1,30
 607 673 607 673 654 674 c 0,31,32
 744 675 744 675 823 697 c 128,-1,33
 902 719 902 719 960.5 769 c 128,-1,34
 1019 819 1019 819 1053 900 c 128,-1,35
 1087 981 1087 981 1087 1098 c 0,36,37
 1087 1294 1087 1294 980 1390.5 c 128,-1,38
 873 1487 873 1487 653 1480 c 0,39,40
 629 1479 629 1479 600 1478 c 128,-1,41
 571 1477 571 1477 542 1475 c 128,-1,42
 513 1473 513 1473 485 1470 c 128,-1,43
 457 1467 457 1467 435 1461 c 1,44,-1
 435 685 l 1,28,29
EndSplineSet
EndChar

StartChar: Q
Encoding: 81 81 47
Width: 1554
Flags: W
LayerCount: 2
Fore
SplineSet
87 755 m 0,0,1
 90 886 90 886 117 996 c 128,-1,2
 144 1106 144 1106 191.5 1195.5 c 128,-1,3
 239 1285 239 1285 304 1353.5 c 128,-1,4
 369 1422 369 1422 447 1468.5 c 128,-1,5
 525 1515 525 1515 614 1539.5 c 128,-1,6
 703 1564 703 1564 798 1566 c 0,7,8
 951 1569 951 1569 1075 1512.5 c 128,-1,9
 1199 1456 1199 1456 1285.5 1353 c 128,-1,10
 1372 1250 1372 1250 1417.5 1106 c 128,-1,11
 1463 962 1463 962 1460 791 c 0,12,13
 1457 618 1457 618 1412 479.5 c 128,-1,14
 1367 341 1367 341 1291.5 239 c 128,-1,15
 1216 137 1216 137 1114 73.5 c 128,-1,16
 1012 10 1012 10 894 -14 c 1,17,18
 913 -72 913 -72 952 -112.5 c 128,-1,19
 991 -153 991 -153 1041.5 -178.5 c 128,-1,20
 1092 -204 1092 -204 1150 -216 c 128,-1,21
 1208 -228 1208 -228 1266 -228 c 0,22,23
 1317 -228 1317 -228 1362 -217.5 c 128,-1,24
 1407 -207 1407 -207 1433 -187 c 1,25,-1
 1448 -284 l 1,26,27
 1439 -298 1439 -298 1417.5 -310.5 c 128,-1,28
 1396 -323 1396 -323 1366 -333 c 128,-1,29
 1336 -343 1336 -343 1298 -348.5 c 128,-1,30
 1260 -354 1260 -354 1218 -354 c 0,31,32
 1147 -354 1147 -354 1082 -336.5 c 128,-1,33
 1017 -319 1017 -319 963 -280 c 128,-1,34
 909 -241 909 -241 868.5 -178.5 c 128,-1,35
 828 -116 828 -116 806 -26 c 1,36,-1
 770 -28 l 1,37,38
 615 -31 615 -31 487.5 25.5 c 128,-1,39
 360 82 360 82 270 186 c 128,-1,40
 180 290 180 290 132 435.5 c 128,-1,41
 84 581 84 581 87 755 c 0,0,1
785 55 m 0,42,43
 900 55 900 55 994.5 106 c 128,-1,44
 1089 157 1089 157 1156.5 252.5 c 128,-1,45
 1224 348 1224 348 1261.5 484 c 128,-1,46
 1299 620 1299 620 1299 790 c 0,47,48
 1299 934 1299 934 1265 1060 c 128,-1,49
 1231 1186 1231 1186 1165 1280 c 128,-1,50
 1099 1374 1099 1374 1003 1428.5 c 128,-1,51
 907 1483 907 1483 783 1483 c 0,52,53
 667 1483 667 1483 569 1434.5 c 128,-1,54
 471 1386 471 1386 400 1293 c 128,-1,55
 329 1200 329 1200 289 1065 c 128,-1,56
 249 930 249 930 249 756 c 0,57,58
 249 608 249 608 286 480 c 128,-1,59
 323 352 323 352 392.5 257.5 c 128,-1,60
 462 163 462 163 561 109 c 128,-1,61
 660 55 660 55 785 55 c 0,42,43
EndSplineSet
EndChar

StartChar: R
Encoding: 82 82 48
Width: 1419
Flags: W
LayerCount: 2
Fore
SplineSet
86 67 m 1,0,-1
 287 92 l 1,1,-1
 287 1454 l 1,2,-1
 108 1469 l 1,3,-1
 108 1553 l 1,4,-1
 362 1553 l 1,5,6
 414 1554 414 1554 491.5 1560 c 128,-1,7
 569 1566 569 1566 669 1566 c 0,8,9
 783 1566 783 1566 878 1546 c 128,-1,10
 973 1526 973 1526 1041.5 1478 c 128,-1,11
 1110 1430 1110 1430 1148.5 1349.5 c 128,-1,12
 1187 1269 1187 1269 1187 1148 c 0,13,14
 1187 1070 1187 1070 1162 1000.5 c 128,-1,15
 1137 931 1137 931 1091 875 c 128,-1,16
 1045 819 1045 819 980 777 c 128,-1,17
 915 735 915 735 835 713 c 1,18,19
 837 711 837 711 839 711 c 0,20,21
 875 700 875 700 910 668 c 128,-1,22
 945 636 945 636 979.5 591 c 128,-1,23
 1014 546 1014 546 1046.5 492.5 c 128,-1,24
 1079 439 1079 439 1109.5 384.5 c 128,-1,25
 1140 330 1140 330 1168 279 c 128,-1,26
 1196 228 1196 228 1221 187 c 128,-1,27
 1246 146 1246 146 1267.5 120 c 128,-1,28
 1289 94 1289 94 1306 91 c 2,29,-1
 1428 67 l 1,30,-1
 1428 0 l 1,31,-1
 1172 0 l 2,32,33
 1155 0 1155 0 1133 30 c 128,-1,34
 1111 60 1111 60 1084.5 109 c 128,-1,35
 1058 158 1058 158 1027.5 220.5 c 128,-1,36
 997 283 997 283 963.5 348 c 128,-1,37
 930 413 930 413 893.5 475 c 128,-1,38
 857 537 857 537 818.5 584.5 c 128,-1,39
 780 632 780 632 739 660.5 c 128,-1,40
 698 689 698 689 656 686 c 1,41,-1
 660 689 l 1,42,43
 606 687 606 687 549 687 c 128,-1,44
 492 687 492 687 435 687 c 1,45,-1
 435 91 l 1,46,-1
 652 67 l 1,47,-1
 652 0 l 1,48,-1
 86 0 l 1,49,-1
 86 67 l 1,0,-1
435 777 m 1,50,51
 452 775 452 775 483.5 773.5 c 128,-1,52
 515 772 515 772 549 771 c 128,-1,53
 583 770 583 770 615 769.5 c 128,-1,54
 647 769 647 769 666 769 c 0,55,56
 757 770 757 770 825.5 795.5 c 128,-1,57
 894 821 894 821 940 867.5 c 128,-1,58
 986 914 986 914 1009.5 980.5 c 128,-1,59
 1033 1047 1033 1047 1033 1130 c 0,60,61
 1033 1216 1033 1216 1012 1283.5 c 128,-1,62
 991 1351 991 1351 944.5 1396.5 c 128,-1,63
 898 1442 898 1442 823.5 1464.5 c 128,-1,64
 749 1487 749 1487 641 1483 c 0,65,66
 617 1482 617 1482 589 1481.5 c 128,-1,67
 561 1481 561 1481 533.5 1479.5 c 128,-1,68
 506 1478 506 1478 480.5 1475.5 c 128,-1,69
 455 1473 455 1473 435 1467 c 1,70,-1
 435 777 l 1,50,51
EndSplineSet
EndChar

StartChar: S
Encoding: 83 83 49
Width: 1229
Flags: W
LayerCount: 2
Fore
SplineSet
154 362 m 1,0,-1
 227 362 l 1,1,-1
 274 158 l 1,2,3
 305 128 305 128 348 108.5 c 128,-1,4
 391 89 391 89 438.5 77.5 c 128,-1,5
 486 66 486 66 535.5 61.5 c 128,-1,6
 585 57 585 57 629 57 c 0,7,8
 693 57 693 57 757 73 c 128,-1,9
 821 89 821 89 872.5 124 c 128,-1,10
 924 159 924 159 956 216 c 128,-1,11
 988 273 988 273 988 355 c 0,12,13
 988 424 988 424 954.5 478 c 128,-1,14
 921 532 921 532 866 576.5 c 128,-1,15
 811 621 811 621 740.5 659 c 128,-1,16
 670 697 670 697 595 733 c 0,17,18
 515 772 515 772 438 814.5 c 128,-1,19
 361 857 361 857 300.5 909 c 128,-1,20
 240 961 240 961 202 1026.5 c 128,-1,21
 164 1092 164 1092 164 1177 c 0,22,23
 164 1247 164 1247 185.5 1303.5 c 128,-1,24
 207 1360 207 1360 244 1403 c 128,-1,25
 281 1446 281 1446 329.5 1477 c 128,-1,26
 378 1508 378 1508 432 1527.5 c 128,-1,27
 486 1547 486 1547 542 1556.5 c 128,-1,28
 598 1566 598 1566 650 1566 c 0,29,30
 727 1566 727 1566 788 1558.5 c 128,-1,31
 849 1551 849 1551 896.5 1539.5 c 128,-1,32
 944 1528 944 1528 978 1514 c 128,-1,33
 1012 1500 1012 1500 1034 1487 c 1,34,-1
 1034 1220 l 1,35,-1
 966 1220 l 1,36,-1
 907 1419 l 1,37,38
 863 1457 863 1457 790 1473 c 128,-1,39
 717 1489 717 1489 637 1488 c 0,40,41
 583 1488 583 1488 523.5 1472.5 c 128,-1,42
 464 1457 464 1457 414.5 1423 c 128,-1,43
 365 1389 365 1389 333 1334 c 128,-1,44
 301 1279 301 1279 301 1200 c 0,45,46
 301 1137 301 1137 332 1086.5 c 128,-1,47
 363 1036 363 1036 414 994.5 c 128,-1,48
 465 953 465 953 531.5 918 c 128,-1,49
 598 883 598 883 669 849 c 0,50,51
 724 823 724 823 779 795 c 128,-1,52
 834 767 834 767 885 736 c 128,-1,53
 936 705 936 705 980 670 c 128,-1,54
 1024 635 1024 635 1056.5 593.5 c 128,-1,55
 1089 552 1089 552 1107.5 502.5 c 128,-1,56
 1126 453 1126 453 1126 394 c 0,57,58
 1126 284 1126 284 1085 205 c 128,-1,59
 1044 126 1044 126 973.5 75.5 c 128,-1,60
 903 25 903 25 809 1 c 128,-1,61
 715 -23 715 -23 610 -23 c 0,62,63
 535 -23 535 -23 462.5 -14.5 c 128,-1,64
 390 -6 390 -6 328.5 7 c 128,-1,65
 267 20 267 20 221 35 c 128,-1,66
 175 50 175 50 154 63 c 1,67,-1
 154 362 l 1,0,-1
EndSplineSet
EndChar

StartChar: T
Encoding: 84 84 50
Width: 1270
Flags: W
LayerCount: 2
Fore
SplineSet
316 67 m 1,0,-1
 578 92 l 1,1,-1
 578 1469 l 1,2,-1
 162 1452 l 1,3,-1
 101 1251 l 1,4,-1
 30 1249 l 1,5,-1
 55 1553 l 1,6,-1
 1246 1553 l 1,7,-1
 1244 1246 l 1,8,-1
 1179 1237 l 1,9,-1
 1138 1452 l 1,10,-1
 726 1469 l 1,11,-1
 726 92 l 1,12,-1
 1002 67 l 1,13,-1
 1002 0 l 1,14,-1
 316 0 l 1,15,-1
 316 67 l 1,0,-1
EndSplineSet
EndChar

StartChar: U
Encoding: 85 85 51
Width: 1576
Flags: W
LayerCount: 2
Fore
SplineSet
186 1462 m 1,0,-1
 33 1477 l 1,1,-1
 33 1553 l 1,2,-1
 509 1553 l 1,3,-1
 509 1477 l 1,4,-1
 335 1461 l 1,5,-1
 335 642 l 2,6,7
 335 469 335 469 370.5 355.5 c 128,-1,8
 406 242 406 242 469.5 174.5 c 128,-1,9
 533 107 533 107 620 79.5 c 128,-1,10
 707 52 707 52 811 52 c 0,11,12
 922 52 922 52 1003.5 93 c 128,-1,13
 1085 134 1085 134 1138 212 c 128,-1,14
 1191 290 1191 290 1216.5 403.5 c 128,-1,15
 1242 517 1242 517 1242 663 c 2,16,-1
 1242 1460 l 1,17,-1
 1069 1477 l 1,18,-1
 1069 1553 l 1,19,-1
 1513 1553 l 1,20,-1
 1513 1477 l 1,21,-1
 1357 1460 l 1,22,-1
 1357 664 l 2,23,24
 1357 477 1357 477 1315 345.5 c 128,-1,25
 1273 214 1273 214 1197.5 131 c 128,-1,26
 1122 48 1122 48 1016 10 c 128,-1,27
 910 -28 910 -28 782 -28 c 0,28,29
 623 -28 623 -28 510 13.5 c 128,-1,30
 397 55 397 55 325 139 c 128,-1,31
 253 223 253 223 219.5 350 c 128,-1,32
 186 477 186 477 186 647 c 2,33,-1
 186 1462 l 1,0,-1
EndSplineSet
EndChar

StartChar: V
Encoding: 86 86 52
Width: 1425
Flags: W
LayerCount: 2
Fore
SplineSet
143 1463 m 1,0,-1
 5 1477 l 1,1,-1
 5 1553 l 1,2,-1
 511 1553 l 1,3,-1
 511 1477 l 1,4,-1
 313 1462 l 1,5,-1
 702 338 l 1,6,-1
 761 149 l 1,7,-1
 813 339 l 1,8,-1
 1156 1462 l 1,9,-1
 989 1477 l 1,10,-1
 989 1552 l 1,11,-1
 1427 1552 l 1,12,-1
 1427 1477 l 1,13,-1
 1284 1462 l 1,14,-1
 794 -20 l 1,15,-1
 685 -20 l 1,16,-1
 143 1463 l 1,0,-1
EndSplineSet
EndChar

StartChar: W
Encoding: 87 87 53
Width: 2101
Flags: W
LayerCount: 2
Fore
SplineSet
141 1462 m 1,0,-1
 5 1476 l 1,1,-1
 5 1553 l 1,2,-1
 503 1553 l 1,3,-1
 503 1476 l 1,4,-1
 305 1462 l 1,5,-1
 658 342 l 1,6,-1
 717 156 l 1,7,-1
 772 334 l 1,8,-1
 1012 1281 l 1,9,-1
 958 1462 l 1,10,-1
 793 1476 l 1,11,-1
 793 1553 l 1,12,-1
 1305 1553 l 1,13,-1
 1305 1476 l 1,14,-1
 1114 1462 l 1,15,-1
 1418 329 l 1,16,-1
 1464 150 l 1,17,-1
 1511 354 l 1,18,-1
 1805 1462 l 1,19,-1
 1623 1476 l 1,20,-1
 1623 1553 l 1,21,-1
 2089 1553 l 1,22,-1
 2089 1476 l 1,23,-1
 1930 1462 l 1,24,-1
 1500 -20 l 1,25,-1
 1381 -20 l 1,26,-1
 1068 1080 l 1,27,-1
 768 -20 l 1,28,-1
 642 -20 l 1,29,-1
 141 1462 l 1,0,-1
EndSplineSet
EndChar

StartChar: X
Encoding: 88 88 54
Width: 1420
Flags: W
LayerCount: 2
Fore
SplineSet
15 67 m 1,0,-1
 193 91 l 1,1,-1
 637 790 l 1,2,-1
 214 1463 l 1,3,-1
 55 1477 l 1,4,-1
 55 1553 l 1,5,-1
 584 1553 l 1,6,-1
 584 1476 l 1,7,-1
 391 1462 l 1,8,-1
 736 874 l 1,9,-1
 1086 1462 l 1,10,-1
 914 1477 l 1,11,-1
 914 1553 l 1,12,-1
 1373 1553 l 1,13,-1
 1373 1477 l 1,14,-1
 1223 1463 l 1,15,-1
 791 810 l 1,16,-1
 1229 91 l 1,17,-1
 1408 67 l 1,18,-1
 1408 0 l 1,19,-1
 859 0 l 1,20,-1
 859 68 l 1,21,-1
 1061 91 l 1,22,-1
 687 713 l 1,23,-1
 333 90 l 1,24,-1
 535 67 l 1,25,-1
 535 0 l 1,26,-1
 15 0 l 1,27,-1
 15 67 l 1,0,-1
EndSplineSet
EndChar

StartChar: Y
Encoding: 89 89 55
Width: 1352
Flags: W
LayerCount: 2
Fore
SplineSet
422 67 m 1,0,-1
 625 92 l 1,1,-1
 625 640 l 1,2,-1
 134 1462 l 1,3,-1
 12 1477 l 1,4,-1
 12 1553 l 1,5,-1
 472 1553 l 1,6,-1
 472 1476 l 1,7,-1
 304 1462 l 1,8,-1
 655 829 l 1,9,-1
 708 722 l 1,10,-1
 757 830 l 1,11,-1
 1077 1461 l 1,12,-1
 906 1477 l 1,13,-1
 906 1553 l 1,14,-1
 1337 1553 l 1,15,-1
 1337 1477 l 1,16,-1
 1202 1455 l 1,17,-1
 772 637 l 1,18,-1
 772 92 l 1,19,-1
 983 67 l 1,20,-1
 983 0 l 1,21,-1
 422 0 l 1,22,-1
 422 67 l 1,0,-1
EndSplineSet
EndChar

StartChar: Z
Encoding: 90 90 56
Width: 1352
Flags: W
LayerCount: 2
Fore
SplineSet
988 1325 m 1,0,-1
 1105 1470 l 1,1,-1
 321 1452 l 1,2,-1
 244 1228 l 1,3,-1
 161 1241 l 1,4,-1
 190 1554 l 1,5,-1
 1246 1554 l 1,6,-1
 1269 1487 l 1,7,-1
 396 248 l 1,8,-1
 269 85 l 1,9,-1
 1096 115 l 1,10,-1
 1211 367 l 1,11,-1
 1290 349 l 1,12,-1
 1218 1 l 1,13,-1
 122 1 l 1,14,-1
 98 70 l 1,15,-1
 988 1325 l 1,0,-1
EndSplineSet
EndChar

StartChar: ampersand
Encoding: 38 38 57
Width: 1569
Flags: W
LayerCount: 2
Fore
SplineSet
188 356 m 0,0,1
 188 437 188 437 217.5 498 c 128,-1,2
 247 559 247 559 294.5 606.5 c 128,-1,3
 342 654 342 654 402.5 690.5 c 128,-1,4
 463 727 463 727 525 758 c 1,5,6
 491 803 491 803 456 851 c 128,-1,7
 421 899 421 899 392.5 951.5 c 128,-1,8
 364 1004 364 1004 345.5 1060.5 c 128,-1,9
 327 1117 327 1117 326 1177 c 0,10,11
 324 1268 324 1268 352.5 1339 c 128,-1,12
 381 1410 381 1410 431.5 1459 c 128,-1,13
 482 1508 482 1508 550 1533.5 c 128,-1,14
 618 1559 618 1559 696 1559 c 0,15,16
 781 1559 781 1559 844 1533.5 c 128,-1,17
 907 1508 907 1508 948.5 1464.5 c 128,-1,18
 990 1421 990 1421 1010.5 1363 c 128,-1,19
 1031 1305 1031 1305 1033 1240 c 1,20,21
 1034 1162 1034 1162 1007 1090.5 c 128,-1,22
 980 1019 980 1019 933.5 957.5 c 128,-1,23
 887 896 887 896 826 845 c 128,-1,24
 765 794 765 794 698 756 c 1,25,26
 722 727 722 727 754.5 688.5 c 128,-1,27
 787 650 787 650 824 607 c 128,-1,28
 861 564 861 564 901 519.5 c 128,-1,29
 941 475 941 475 979 434 c 128,-1,30
 1017 393 1017 393 1051 357.5 c 128,-1,31
 1085 322 1085 322 1111 298 c 2,32,-1
 1156 257 l 1,33,34
 1185 311 1185 311 1195.5 371 c 128,-1,35
 1206 431 1206 431 1206 491 c 0,36,37
 1206 543 1206 543 1200.5 585.5 c 128,-1,38
 1195 628 1195 628 1187.5 659.5 c 128,-1,39
 1180 691 1180 691 1172 710.5 c 128,-1,40
 1164 730 1164 730 1159 738 c 1,41,-1
 1299 738 l 1,42,43
 1311 706 1311 706 1324 652.5 c 128,-1,44
 1337 599 1337 599 1337 521 c 0,45,46
 1337 438 1337 438 1313.5 349.5 c 128,-1,47
 1290 261 1290 261 1236 189 c 1,48,49
 1272 161 1272 161 1303.5 141 c 128,-1,50
 1335 121 1335 121 1365 108 c 128,-1,51
 1395 95 1395 95 1425.5 89 c 128,-1,52
 1456 83 1456 83 1489 82 c 1,53,-1
 1489 15 l 1,54,55
 1460 4 1460 4 1427.5 2.5 c 128,-1,56
 1395 1 1395 1 1356 6 c 1,57,58
 1307 11 1307 11 1253.5 36.5 c 128,-1,59
 1200 62 1200 62 1144 101 c 1,60,61
 1105 67 1105 67 1055 42 c 128,-1,62
 1005 17 1005 17 950.5 0.5 c 128,-1,63
 896 -16 896 -16 840.5 -24 c 128,-1,64
 785 -32 785 -32 736 -32 c 0,65,66
 685 -32 685 -32 624.5 -25.5 c 128,-1,67
 564 -19 564 -19 503 -2 c 128,-1,68
 442 15 442 15 385 43 c 128,-1,69
 328 71 328 71 284.5 114.5 c 128,-1,70
 241 158 241 158 214.5 217.5 c 128,-1,71
 188 277 188 277 188 356 c 0,0,1
648 817 m 1,72,73
 772 879 772 879 841 981 c 128,-1,74
 910 1083 910 1083 908 1217 c 0,75,76
 907 1259 907 1259 896.5 1305 c 128,-1,77
 886 1351 886 1351 860 1390 c 128,-1,78
 834 1429 834 1429 790 1454.5 c 128,-1,79
 746 1480 746 1480 679 1480 c 0,80,81
 640 1480 640 1480 600 1466 c 128,-1,82
 560 1452 560 1452 527.5 1421.5 c 128,-1,83
 495 1391 495 1391 474.5 1343 c 128,-1,84
 454 1295 454 1295 455 1227 c 0,85,86
 456 1154 456 1154 476.5 1092.5 c 128,-1,87
 497 1031 497 1031 526 980 c 128,-1,88
 555 929 555 929 588 888.5 c 128,-1,89
 621 848 621 848 648 817 c 1,72,73
326 371 m 0,90,91
 326 296 326 296 360 238 c 128,-1,92
 394 180 394 180 451.5 140.5 c 128,-1,93
 509 101 509 101 585 81 c 128,-1,94
 661 61 661 61 744 61 c 0,95,96
 789 61 789 61 835 65.5 c 128,-1,97
 881 70 881 70 924 81 c 128,-1,98
 967 92 967 92 1005.5 110.5 c 128,-1,99
 1044 129 1044 129 1073 156 c 1,100,101
 1067 161 1067 161 1061 166 c 128,-1,102
 1055 171 1055 171 1050 176 c 0,103,104
 1016 205 1016 205 975 245 c 128,-1,105
 934 285 934 285 889.5 331 c 128,-1,106
 845 377 845 377 800 426.5 c 128,-1,107
 755 476 755 476 713 524 c 128,-1,108
 671 572 671 572 634.5 616 c 128,-1,109
 598 660 598 660 571 696 c 1,110,111
 508 663 508 663 461.5 629.5 c 128,-1,112
 415 596 415 596 385 558 c 128,-1,113
 355 520 355 520 340.5 474 c 128,-1,114
 326 428 326 428 326 371 c 0,90,91
EndSplineSet
EndChar

StartChar: zero
Encoding: 48 48 58
Width: 1327
Flags: W
LayerCount: 2
Fore
SplineSet
131 632 m 0,0,1
 133 777 133 777 178.5 892 c 128,-1,2
 224 1007 224 1007 300 1086.5 c 128,-1,3
 376 1166 376 1166 474.5 1208.5 c 128,-1,4
 573 1251 573 1251 681 1252 c 0,5,6
 827 1253 827 1253 926 1204.5 c 128,-1,7
 1025 1156 1025 1156 1085.5 1071 c 128,-1,8
 1146 986 1146 986 1171.5 870.5 c 128,-1,9
 1197 755 1197 755 1196 623 c 0,10,11
 1195 479 1195 479 1152.5 359 c 128,-1,12
 1110 239 1110 239 1037 153.5 c 128,-1,13
 964 68 964 68 866 20 c 128,-1,14
 768 -28 768 -28 656 -28 c 0,15,16
 561 -28 561 -28 484.5 -3 c 128,-1,17
 408 22 408 22 349.5 66.5 c 128,-1,18
 291 111 291 111 249 173 c 128,-1,19
 207 235 207 235 180.5 308.5 c 128,-1,20
 154 382 154 382 142 464 c 128,-1,21
 130 546 130 546 131 632 c 0,0,1
657 56 m 0,22,23
 758 54 758 54 831 93 c 128,-1,24
 904 132 904 132 951 205.5 c 128,-1,25
 998 279 998 279 1020.5 383 c 128,-1,26
 1043 487 1043 487 1043 615 c 0,27,28
 1043 732 1043 732 1022 832 c 128,-1,29
 1001 932 1001 932 957 1006.5 c 128,-1,30
 913 1081 913 1081 844 1123.5 c 128,-1,31
 775 1166 775 1166 678 1168 c 1,32,33
 577 1169 577 1169 503.5 1132.5 c 128,-1,34
 430 1096 430 1096 381 1027 c 128,-1,35
 332 958 332 958 308.5 859.5 c 128,-1,36
 285 761 285 761 285 638 c 0,37,38
 285 525 285 525 307 421 c 128,-1,39
 329 317 329 317 374.5 236.5 c 128,-1,40
 420 156 420 156 490 107 c 128,-1,41
 560 58 560 58 657 56 c 0,22,23
EndSplineSet
EndChar

StartChar: one
Encoding: 49 49 59
Width: 933
Flags: W
LayerCount: 2
Fore
SplineSet
123 68 m 1,0,-1
 426 89 l 1,1,-1
 426 1086 l 1,2,3
 388 1072 388 1072 354 1060.5 c 128,-1,4
 320 1049 320 1049 287 1039 c 128,-1,5
 254 1029 254 1029 220 1020 c 128,-1,6
 186 1011 186 1011 148 1001 c 1,7,-1
 133 1078 l 1,8,9
 178 1092 178 1092 238 1117 c 128,-1,10
 298 1142 298 1142 355 1170 c 128,-1,11
 412 1198 412 1198 457.5 1223.5 c 128,-1,12
 503 1249 503 1249 521 1264 c 1,13,-1
 574 1249 l 1,14,-1
 572 89 l 1,15,-1
 859 68 l 1,16,-1
 859 0 l 1,17,-1
 123 0 l 1,18,-1
 123 68 l 1,0,-1
EndSplineSet
EndChar

StartChar: two
Encoding: 50 50 60
Width: 1221
Flags: W
LayerCount: 2
Fore
SplineSet
141 61 m 1,0,1
 232 117 232 117 319 180.5 c 128,-1,2
 406 244 406 244 483.5 312 c 128,-1,3
 561 380 561 380 626.5 452 c 128,-1,4
 692 524 692 524 739.5 596 c 128,-1,5
 787 668 787 668 813 739.5 c 128,-1,6
 839 811 839 811 839 879 c 1,7,8
 838 937 838 937 819.5 989 c 128,-1,9
 801 1041 801 1041 764.5 1080.5 c 128,-1,10
 728 1120 728 1120 673.5 1143 c 128,-1,11
 619 1166 619 1166 546 1166 c 0,12,13
 496 1166 496 1166 443.5 1151.5 c 128,-1,14
 391 1137 391 1137 342 1114 c 128,-1,15
 293 1091 293 1091 250 1062 c 128,-1,16
 207 1033 207 1033 177 1003 c 1,17,-1
 140 1064 l 1,18,19
 168 1100 168 1100 214.5 1136 c 128,-1,20
 261 1172 261 1172 320.5 1201 c 128,-1,21
 380 1230 380 1230 449.5 1248.5 c 128,-1,22
 519 1267 519 1267 593 1267 c 0,23,24
 696 1267 696 1267 770.5 1238 c 128,-1,25
 845 1209 845 1209 894 1161 c 128,-1,26
 943 1113 943 1113 966.5 1051.5 c 128,-1,27
 990 990 990 990 990 925 c 0,28,29
 990 816 990 816 938.5 703 c 128,-1,30
 887 590 887 590 797 481.5 c 128,-1,31
 707 373 707 373 586.5 273 c 128,-1,32
 466 173 466 173 329 90 c 1,33,-1
 969 124 l 1,34,-1
 1058 298 l 1,35,-1
 1125 276 l 1,36,-1
 1060 0 l 1,37,-1
 164 0 l 1,38,-1
 141 61 l 1,39,-1
 141 61 l 1,0,1
EndSplineSet
EndChar

StartChar: three
Encoding: 51 51 61
Width: 1070
Flags: W
LayerCount: 2
Fore
SplineSet
126 -233 m 1,0,1
 227 -250 227 -250 316 -242.5 c 128,-1,2
 405 -235 405 -235 480.5 -208.5 c 128,-1,3
 556 -182 556 -182 615.5 -140 c 128,-1,4
 675 -98 675 -98 717 -45.5 c 128,-1,5
 759 7 759 7 781 67 c 128,-1,6
 803 127 803 127 803 189 c 0,7,8
 803 259 803 259 781 317 c 128,-1,9
 759 375 759 375 712 414.5 c 128,-1,10
 665 454 665 454 591 472.5 c 128,-1,11
 517 491 517 491 413 484 c 1,12,-1
 262 450 l 1,13,-1
 262 554 l 1,14,15
 367 571 367 571 451 606 c 128,-1,16
 535 641 535 641 594 688 c 128,-1,17
 653 735 653 735 685 790.5 c 128,-1,18
 717 846 717 846 718 903 c 0,19,20
 719 972 719 972 699 1022 c 128,-1,21
 679 1072 679 1072 642 1104.5 c 128,-1,22
 605 1137 605 1137 554.5 1152.5 c 128,-1,23
 504 1168 504 1168 445 1168 c 0,24,25
 382 1168 382 1168 330.5 1155.5 c 128,-1,26
 279 1143 279 1143 238.5 1123.5 c 128,-1,27
 198 1104 198 1104 166.5 1081.5 c 128,-1,28
 135 1059 135 1059 111 1040 c 1,29,-1
 68 1111 l 1,30,31
 92 1135 92 1135 131.5 1163 c 128,-1,32
 171 1191 171 1191 225.5 1215 c 128,-1,33
 280 1239 280 1239 348.5 1255 c 128,-1,34
 417 1271 417 1271 498 1271 c 0,35,36
 568 1271 568 1271 635 1253 c 128,-1,37
 702 1235 702 1235 754.5 1195.5 c 128,-1,38
 807 1156 807 1156 839 1094 c 128,-1,39
 871 1032 871 1032 871 945 c 0,40,41
 871 885 871 885 842.5 822 c 128,-1,42
 814 759 814 759 767.5 704.5 c 128,-1,43
 721 650 721 650 660 607.5 c 128,-1,44
 599 565 599 565 535 546 c 1,45,46
 641 551 641 551 720.5 527 c 128,-1,47
 800 503 800 503 852 457 c 128,-1,48
 904 411 904 411 930 348.5 c 128,-1,49
 956 286 956 286 956 214 c 0,50,51
 956 137 956 137 929 62 c 128,-1,52
 902 -13 902 -13 851 -79.5 c 128,-1,53
 800 -146 800 -146 727 -199.5 c 128,-1,54
 654 -253 654 -253 561.5 -286.5 c 128,-1,55
 469 -320 469 -320 359.5 -330 c 128,-1,56
 250 -340 250 -340 127 -318 c 1,57,58
 127 -299 127 -299 126.5 -275.5 c 128,-1,59
 126 -252 126 -252 126 -233 c 1,0,1
EndSplineSet
EndChar

StartChar: four
Encoding: 52 52 62
Width: 1253
Flags: W
LayerCount: 2
Fore
SplineSet
77 75 m 1,0,1
 155 217 155 217 234.5 357 c 128,-1,2
 314 497 314 497 393 642.5 c 128,-1,3
 472 788 472 788 551 944 c 128,-1,4
 630 1100 630 1100 708 1273 c 1,5,-1
 760 1273 l 1,6,-1
 846 1209 l 1,7,8
 833 1182 833 1182 803.5 1128.5 c 128,-1,9
 774 1075 774 1075 734.5 1003.5 c 128,-1,10
 695 932 695 932 648 848.5 c 128,-1,11
 601 765 601 765 552 679.5 c 128,-1,12
 503 594 503 594 456 511.5 c 128,-1,13
 409 429 409 429 369 359 c 128,-1,14
 329 289 329 289 299.5 237.5 c 128,-1,15
 270 186 270 186 257 162 c 1,16,-1
 210 88 l 1,17,-1
 791 113 l 1,18,-1
 794 622 l 1,19,-1
 926 659 l 1,20,-1
 926 119 l 1,21,-1
 1162 130 l 1,22,-1
 1162 0 l 1,23,-1
 926 0 l 1,24,-1
 926 -376 l 1,25,-1
 789 -376 l 1,26,-1
 791 0 l 1,27,-1
 102 0 l 1,28,-1
 77 75 l 1,0,1
EndSplineSet
EndChar

StartChar: five
Encoding: 53 53 63
Width: 1079
Flags: W
LayerCount: 2
Fore
SplineSet
137 -263 m 1,0,1
 215 -275 215 -275 294.5 -264 c 128,-1,2
 374 -253 374 -253 448.5 -222.5 c 128,-1,3
 523 -192 523 -192 588 -145 c 128,-1,4
 653 -98 653 -98 701.5 -37.5 c 128,-1,5
 750 23 750 23 778 94 c 128,-1,6
 806 165 806 165 806 243 c 0,7,8
 806 334 806 334 781 399.5 c 128,-1,9
 756 465 756 465 711.5 507.5 c 128,-1,10
 667 550 667 550 606.5 571 c 128,-1,11
 546 592 546 592 474.5 594.5 c 128,-1,12
 403 597 403 597 323.5 581.5 c 128,-1,13
 244 566 244 566 163 536 c 1,14,-1
 128 566 l 1,15,-1
 207 1237 l 1,16,-1
 770 1237 l 1,17,-1
 798 1256 l 1,18,-1
 885 1256 l 1,19,-1
 847 1113 l 1,20,-1
 318 1113 l 1,21,-1
 245 623 l 1,22,23
 329 661 329 661 414.5 676 c 128,-1,24
 500 691 500 691 579 683.5 c 128,-1,25
 658 676 658 676 727.5 646 c 128,-1,26
 797 616 797 616 848.5 563.5 c 128,-1,27
 900 511 900 511 929.5 435 c 128,-1,28
 959 359 959 359 959 261 c 0,29,30
 959 190 959 190 934 117 c 128,-1,31
 909 44 909 44 863.5 -24 c 128,-1,32
 818 -92 818 -92 753 -152 c 128,-1,33
 688 -212 688 -212 608.5 -256 c 128,-1,34
 529 -300 529 -300 437 -325.5 c 128,-1,35
 345 -351 345 -351 244 -351 c 0,36,37
 219 -351 219 -351 192 -348.5 c 128,-1,38
 165 -346 165 -346 136 -337 c 1,39,-1
 137 -263 l 1,40,-1
 137 -263 l 1,0,1
EndSplineSet
EndChar

StartChar: six
Encoding: 54 54 64
Width: 1251
Flags: W
LayerCount: 2
Fore
SplineSet
127 563 m 0,0,1
 127 692 127 692 162.5 808.5 c 128,-1,2
 198 925 198 925 260 1026.5 c 128,-1,3
 322 1128 322 1128 406 1213 c 128,-1,4
 490 1298 490 1298 585.5 1363 c 128,-1,5
 681 1428 681 1428 784 1471.5 c 128,-1,6
 887 1515 887 1515 988 1534 c 1,7,-1
 1020 1468 l 1,8,9
 839 1416 839 1416 702.5 1324.5 c 128,-1,10
 566 1233 566 1233 473.5 1120 c 128,-1,11
 381 1007 381 1007 333 881 c 128,-1,12
 285 755 285 755 282 634 c 0,13,14
 279 523 279 523 299 419.5 c 128,-1,15
 319 316 319 316 364 236 c 128,-1,16
 409 156 409 156 481 108 c 128,-1,17
 553 60 553 60 656 60 c 0,18,19
 717 60 717 60 766 78.5 c 128,-1,20
 815 97 815 97 854 128.5 c 128,-1,21
 893 160 893 160 921 201.5 c 128,-1,22
 949 243 949 243 967 289 c 128,-1,23
 985 335 985 335 994 382 c 128,-1,24
 1003 429 1003 429 1003 472 c 0,25,26
 1003 571 1003 571 980.5 645 c 128,-1,27
 958 719 958 719 920 768.5 c 128,-1,28
 882 818 882 818 832 842.5 c 128,-1,29
 782 867 782 867 728 867 c 0,30,31
 680 867 680 867 643.5 860 c 128,-1,32
 607 853 607 853 580 842.5 c 128,-1,33
 553 832 553 832 533.5 819.5 c 128,-1,34
 514 807 514 807 499 795 c 1,35,-1
 464 857 l 1,36,37
 479 876 479 876 509 896 c 128,-1,38
 539 916 539 916 579.5 932 c 128,-1,39
 620 948 620 948 666.5 958 c 128,-1,40
 713 968 713 968 761 968 c 0,41,42
 857 968 857 968 928.5 929 c 128,-1,43
 1000 890 1000 890 1047.5 828 c 128,-1,44
 1095 766 1095 766 1118.5 687.5 c 128,-1,45
 1142 609 1142 609 1142 530 c 0,46,47
 1142 466 1142 466 1127 400 c 128,-1,48
 1112 334 1112 334 1082 273 c 128,-1,49
 1052 212 1052 212 1008.5 158.5 c 128,-1,50
 965 105 965 105 908.5 65 c 128,-1,51
 852 25 852 25 782.5 2 c 128,-1,52
 713 -21 713 -21 632 -21 c 0,53,54
 513 -21 513 -21 419 26 c 128,-1,55
 325 73 325 73 260 153.5 c 128,-1,56
 195 234 195 234 161 340 c 128,-1,57
 127 446 127 446 127 563 c 0,0,1
EndSplineSet
EndChar

StartChar: seven
Encoding: 55 55 65
Width: 1236
Flags: W
LayerCount: 2
Fore
SplineSet
396 -263 m 1,0,1
 552 73 552 73 696.5 426 c 128,-1,2
 841 779 841 779 991 1150 c 1,3,-1
 302 1133 l 1,4,-1
 220 919 l 1,5,-1
 142 927 l 1,6,-1
 190 1253 l 1,7,-1
 1083 1253 l 1,8,-1
 1115 1217 l 1,9,-1
 547 -316 l 1,10,-1
 396 -263 l 1,11,-1
 396 -263 l 1,0,1
EndSplineSet
EndChar

StartChar: eight
Encoding: 56 56 66
Width: 1241
Flags: W
LayerCount: 2
Fore
SplineSet
129 373 m 0,0,1
 129 434 129 434 152 494 c 128,-1,2
 175 554 175 554 218.5 608.5 c 128,-1,3
 262 663 262 663 323 710 c 128,-1,4
 384 757 384 757 461 792 c 1,5,6
 408 825 408 825 361.5 862.5 c 128,-1,7
 315 900 315 900 280.5 946.5 c 128,-1,8
 246 993 246 993 226 1049 c 128,-1,9
 206 1105 206 1105 206 1174 c 0,10,11
 206 1271 206 1271 246 1342 c 128,-1,12
 286 1413 286 1413 350 1460 c 128,-1,13
 414 1507 414 1507 494.5 1530 c 128,-1,14
 575 1553 575 1553 656 1553 c 0,15,16
 742 1553 742 1553 817 1528 c 128,-1,17
 892 1503 892 1503 947 1458 c 128,-1,18
 1002 1413 1002 1413 1033.5 1349.5 c 128,-1,19
 1065 1286 1065 1286 1065 1209 c 0,20,21
 1065 1153 1065 1153 1046.5 1092.5 c 128,-1,22
 1028 1032 1028 1032 991 974 c 128,-1,23
 954 916 954 916 899.5 864.5 c 128,-1,24
 845 813 845 813 773 776 c 1,25,26
 842 739 842 739 906.5 699.5 c 128,-1,27
 971 660 971 660 1020.5 615 c 128,-1,28
 1070 570 1070 570 1100 516.5 c 128,-1,29
 1130 463 1130 463 1131 397 c 0,30,31
 1132 283 1132 283 1088 202 c 128,-1,32
 1044 121 1044 121 973 70 c 128,-1,33
 902 19 902 19 812 -4.5 c 128,-1,34
 722 -28 722 -28 632 -28 c 0,35,36
 574 -28 574 -28 514 -17.5 c 128,-1,37
 454 -7 454 -7 398 14 c 128,-1,38
 342 35 342 35 293 67.5 c 128,-1,39
 244 100 244 100 207.5 145 c 128,-1,40
 171 190 171 190 150 246.5 c 128,-1,41
 129 303 129 303 129 373 c 0,0,1
683 825 m 1,42,43
 727 836 727 836 772.5 869 c 128,-1,44
 818 902 818 902 854.5 948.5 c 128,-1,45
 891 995 891 995 915 1049.5 c 128,-1,46
 939 1104 939 1104 940 1159 c 0,47,48
 942 1229 942 1229 921.5 1287.5 c 128,-1,49
 901 1346 901 1346 862 1388 c 128,-1,50
 823 1430 823 1430 767 1453.5 c 128,-1,51
 711 1477 711 1477 644 1477 c 0,52,53
 578 1477 578 1477 519.5 1456 c 128,-1,54
 461 1435 461 1435 418 1397.5 c 128,-1,55
 375 1360 375 1360 350 1309 c 128,-1,56
 325 1258 325 1258 325 1198 c 0,57,58
 325 1132 325 1132 356.5 1078.5 c 128,-1,59
 388 1025 388 1025 440 979.5 c 128,-1,60
 492 934 492 934 559.5 894 c 128,-1,61
 627 854 627 854 699 816 c 1,62,-1
 683 825 l 1,42,43
269 407 m 0,63,64
 269 333 269 333 295.5 268.5 c 128,-1,65
 322 204 322 204 372.5 156 c 128,-1,66
 423 108 423 108 495 80 c 128,-1,67
 567 52 567 52 657 52 c 0,68,69
 731 52 731 52 794 74.5 c 128,-1,70
 857 97 857 97 903 136 c 128,-1,71
 949 175 949 175 975 228 c 128,-1,72
 1001 281 1001 281 1001 343 c 0,73,74
 1001 394 1001 394 982 435.5 c 128,-1,75
 963 477 963 477 930 512 c 128,-1,76
 897 547 897 547 852.5 577.5 c 128,-1,77
 808 608 808 608 756.5 636 c 128,-1,78
 705 664 705 664 649.5 691 c 128,-1,79
 594 718 594 718 540 747 c 1,80,81
 488 726 488 726 439 691.5 c 128,-1,82
 390 657 390 657 352.5 612.5 c 128,-1,83
 315 568 315 568 292 515.5 c 128,-1,84
 269 463 269 463 269 407 c 0,63,64
EndSplineSet
EndChar

StartChar: nine
Encoding: 57 57 67
Width: 1260
Flags: W
LayerCount: 2
Fore
SplineSet
245 -337 m 1,0,1
 362 -303 362 -303 461 -243 c 128,-1,2
 560 -183 560 -183 640 -107 c 128,-1,3
 720 -31 720 -31 781 57.5 c 128,-1,4
 842 146 842 146 883 238.5 c 128,-1,5
 924 331 924 331 945.5 423.5 c 128,-1,6
 967 516 967 516 968 600 c 0,7,8
 969 714 969 714 952.5 818 c 128,-1,9
 936 922 936 922 894 1000.5 c 128,-1,10
 852 1079 852 1079 782.5 1126 c 128,-1,11
 713 1173 713 1173 608 1173 c 0,12,13
 547 1173 547 1173 498 1154.5 c 128,-1,14
 449 1136 449 1136 410 1104.5 c 128,-1,15
 371 1073 371 1073 343 1031.5 c 128,-1,16
 315 990 315 990 297 944.5 c 128,-1,17
 279 899 279 899 270 852.5 c 128,-1,18
 261 806 261 806 261 764 c 0,19,20
 261 668 261 668 283.5 593.5 c 128,-1,21
 306 519 306 519 344 469 c 128,-1,22
 382 419 382 419 432 393 c 128,-1,23
 482 367 482 367 537 367 c 0,24,25
 579 367 579 367 615 374 c 128,-1,26
 651 381 651 381 680 392 c 128,-1,27
 709 403 709 403 730.5 415 c 128,-1,28
 752 427 752 427 765 438 c 1,29,-1
 800 376 l 1,30,31
 781 354 781 354 750 334 c 128,-1,32
 719 314 719 314 680.5 298.5 c 128,-1,33
 642 283 642 283 597 274 c 128,-1,34
 552 265 552 265 504 265 c 0,35,36
 408 265 408 265 336.5 304 c 128,-1,37
 265 343 265 343 217.5 405 c 128,-1,38
 170 467 170 467 146 545.5 c 128,-1,39
 122 624 122 624 122 703 c 0,40,41
 122 767 122 767 137 833 c 128,-1,42
 152 899 152 899 182 960 c 128,-1,43
 212 1021 212 1021 255.5 1074.5 c 128,-1,44
 299 1128 299 1128 355.5 1168 c 128,-1,45
 412 1208 412 1208 481.5 1231 c 128,-1,46
 551 1254 551 1254 632 1254 c 0,47,48
 753 1254 753 1254 844 1206 c 128,-1,49
 935 1158 935 1158 996.5 1077.5 c 128,-1,50
 1058 997 1058 997 1089 891 c 128,-1,51
 1120 785 1120 785 1120 670 c 0,52,53
 1120 536 1120 536 1086 409.5 c 128,-1,54
 1052 283 1052 283 992.5 170 c 128,-1,55
 933 57 933 57 851.5 -40 c 128,-1,56
 770 -137 770 -137 676 -211.5 c 128,-1,57
 582 -286 582 -286 479.5 -336 c 128,-1,58
 377 -386 377 -386 274 -405 c 1,59,-1
 245 -337 l 1,60,-1
 245 -337 l 1,0,1
EndSplineSet
EndChar

StartChar: period
Encoding: 46 46 68
Width: 706
Flags: W
LayerCount: 2
Fore
SplineSet
232 87 m 0,0,1
 235 108 235 108 246.5 125 c 128,-1,2
 258 142 258 142 274 153.5 c 128,-1,3
 290 165 290 165 309 170 c 128,-1,4
 328 175 328 175 346 173 c 0,5,6
 368 170 368 170 382.5 161 c 128,-1,7
 397 152 397 152 405.5 139 c 128,-1,8
 414 126 414 126 416 109.5 c 128,-1,9
 418 93 418 93 415 76 c 0,10,11
 412 53 412 53 401 36 c 128,-1,12
 390 19 390 19 373.5 8 c 128,-1,13
 357 -3 357 -3 338 -7.5 c 128,-1,14
 319 -12 319 -12 300 -10 c 0,15,16
 267 -5 267 -5 246 21.5 c 128,-1,17
 225 48 225 48 232 87 c 0,0,1
EndSplineSet
EndChar

StartChar: ellipsis
Encoding: 8230 8230 69
Width: 2119
Flags: W
LayerCount: 2
Fore
SplineSet
1628 73 m 0,0,1
 1628 97 1628 97 1638.5 117.5 c 128,-1,2
 1649 138 1649 138 1665.5 153 c 128,-1,3
 1682 168 1682 168 1703 176.5 c 128,-1,4
 1724 185 1724 185 1745 185 c 0,5,6
 1796 185 1796 185 1820 156.5 c 128,-1,7
 1844 128 1844 128 1844 90 c 0,8,9
 1844 65 1844 65 1834 44.5 c 128,-1,10
 1824 24 1824 24 1807.5 9 c 128,-1,11
 1791 -6 1791 -6 1770 -14 c 128,-1,12
 1749 -22 1749 -22 1727 -22 c 0,13,14
 1708 -22 1708 -22 1690 -15.5 c 128,-1,15
 1672 -9 1672 -9 1658.5 3.5 c 128,-1,16
 1645 16 1645 16 1636.5 33.5 c 128,-1,17
 1628 51 1628 51 1628 73 c 0,0,1
921 73 m 0,18,19
 921 97 921 97 931.5 117.5 c 128,-1,20
 942 138 942 138 958.5 153 c 128,-1,21
 975 168 975 168 996.5 176.5 c 128,-1,22
 1018 185 1018 185 1039 185 c 0,23,24
 1090 185 1090 185 1114 156.5 c 128,-1,25
 1138 128 1138 128 1138 90 c 0,26,27
 1138 65 1138 65 1128 44.5 c 128,-1,28
 1118 24 1118 24 1101.5 9 c 128,-1,29
 1085 -6 1085 -6 1063.5 -14 c 128,-1,30
 1042 -22 1042 -22 1020 -22 c 0,31,32
 1001 -22 1001 -22 983 -15.5 c 128,-1,33
 965 -9 965 -9 951.5 3.5 c 128,-1,34
 938 16 938 16 929.5 33.5 c 128,-1,35
 921 51 921 51 921 73 c 0,18,19
215 73 m 0,36,37
 215 97 215 97 225.5 117.5 c 128,-1,38
 236 138 236 138 252.5 153 c 128,-1,39
 269 168 269 168 290 176.5 c 128,-1,40
 311 185 311 185 332 185 c 0,41,42
 384 185 384 185 408 156.5 c 128,-1,43
 432 128 432 128 432 90 c 0,44,45
 432 65 432 65 422 44.5 c 128,-1,46
 412 24 412 24 395.5 9 c 128,-1,47
 379 -6 379 -6 357.5 -14 c 128,-1,48
 336 -22 336 -22 314 -22 c 0,49,50
 295 -22 295 -22 277 -15.5 c 128,-1,51
 259 -9 259 -9 245.5 3.5 c 128,-1,52
 232 16 232 16 223.5 33.5 c 128,-1,53
 215 51 215 51 215 73 c 0,36,37
EndSplineSet
EndChar

StartChar: periodcentered
Encoding: 183 183 70
Width: 647
Flags: W
LayerCount: 2
Fore
SplineSet
300 757 m 0,0,1
 267 762 267 762 246 788.5 c 128,-1,2
 225 815 225 815 232 854 c 0,3,4
 235 875 235 875 246.5 892 c 128,-1,5
 258 909 258 909 274 920 c 128,-1,6
 290 931 290 931 309 936.5 c 128,-1,7
 328 942 328 942 346 940 c 0,8,9
 368 937 368 937 382.5 928 c 128,-1,10
 397 919 397 919 405.5 905.5 c 128,-1,11
 414 892 414 892 416 875.5 c 128,-1,12
 418 859 418 859 415 842 c 0,13,14
 412 820 412 820 400.5 803 c 128,-1,15
 389 786 389 786 373 775 c 128,-1,16
 357 764 357 764 338 759 c 128,-1,17
 319 754 319 754 300 757 c 0,0,1
EndSplineSet
EndChar

StartChar: bullet
Encoding: 8226 8226 71
Width: 841
Flags: W
LayerCount: 2
Fore
SplineSet
413 570 m 256,0,1
 380 570 380 570 351 584 c 128,-1,2
 322 598 322 598 300.5 621.5 c 128,-1,3
 279 645 279 645 267.5 675.5 c 128,-1,4
 256 706 256 706 258 740 c 0,5,6
 261 776 261 776 275.5 807 c 128,-1,7
 290 838 290 838 313 861 c 128,-1,8
 336 884 336 884 365.5 897 c 128,-1,9
 395 910 395 910 428 910 c 256,10,11
 461 910 461 910 490 897 c 128,-1,12
 519 884 519 884 540.5 861 c 128,-1,13
 562 838 562 838 573.5 807 c 128,-1,14
 585 776 585 776 583 740 c 1,15,16
 580 705 580 705 565.5 674 c 128,-1,17
 551 643 551 643 528 620 c 128,-1,18
 505 597 505 597 475.5 583.5 c 128,-1,19
 446 570 446 570 413 570 c 256,0,1
EndSplineSet
EndChar

StartChar: comma
Encoding: 44 44 72
Width: 701
Flags: W
LayerCount: 2
Fore
SplineSet
232 174 m 1,0,-1
 312 279 l 1,1,2
 366 266 366 266 405 232.5 c 128,-1,3
 444 199 444 199 469.5 155 c 128,-1,4
 495 111 495 111 507 62.5 c 128,-1,5
 519 14 519 14 519 -29 c 0,6,7
 520 -114 520 -114 492.5 -186 c 128,-1,8
 465 -258 465 -258 420.5 -315 c 128,-1,9
 376 -372 376 -372 320.5 -412.5 c 128,-1,10
 265 -453 265 -453 211 -475 c 1,11,-1
 176 -431 l 1,12,-1
 176 -407 l 1,13,14
 211 -395 211 -395 247 -365 c 128,-1,15
 283 -335 283 -335 312.5 -292.5 c 128,-1,16
 342 -250 342 -250 360.5 -197.5 c 128,-1,17
 379 -145 379 -145 379 -88 c 0,18,19
 379 -42 379 -42 366.5 -2.5 c 128,-1,20
 354 37 354 37 333.5 67 c 128,-1,21
 313 97 313 97 286.5 115.5 c 128,-1,22
 260 134 260 134 232 138 c 1,23,-1
 232 174 l 1,0,-1
EndSplineSet
EndChar

StartChar: colon
Encoding: 58 58 73
Width: 706
Flags: W
LayerCount: 2
Fore
SplineSet
300 800 m 0,0,1
 267 805 267 805 246 831.5 c 128,-1,2
 225 858 225 858 232 897 c 0,3,4
 235 918 235 918 246.5 935 c 128,-1,5
 258 952 258 952 274 963.5 c 128,-1,6
 290 975 290 975 309 980 c 128,-1,7
 328 985 328 985 346 983 c 0,8,9
 368 980 368 980 382.5 971 c 128,-1,10
 397 962 397 962 405.5 949 c 128,-1,11
 414 936 414 936 416 919.5 c 128,-1,12
 418 903 418 903 415 886 c 0,13,14
 412 863 412 863 401 846 c 128,-1,15
 390 829 390 829 373.5 818 c 128,-1,16
 357 807 357 807 338 802.5 c 128,-1,17
 319 798 319 798 300 800 c 0,0,1
232 87 m 0,18,19
 235 108 235 108 246.5 125 c 128,-1,20
 258 142 258 142 274 153.5 c 128,-1,21
 290 165 290 165 309 170 c 128,-1,22
 328 175 328 175 346 173 c 0,23,24
 368 170 368 170 382.5 161 c 128,-1,25
 397 152 397 152 405.5 139 c 128,-1,26
 414 126 414 126 416 109.5 c 128,-1,27
 418 93 418 93 415 76 c 0,28,29
 412 53 412 53 401 36 c 128,-1,30
 390 19 390 19 373.5 8 c 128,-1,31
 357 -3 357 -3 338 -7.5 c 128,-1,32
 319 -12 319 -12 300 -10 c 0,33,34
 267 -5 267 -5 246 21.5 c 128,-1,35
 225 48 225 48 232 87 c 0,18,19
EndSplineSet
EndChar

StartChar: semicolon
Encoding: 59 59 74
Width: 706
Flags: W
LayerCount: 2
Fore
SplineSet
300 800 m 0,0,1
 267 805 267 805 246 831.5 c 128,-1,2
 225 858 225 858 232 897 c 0,3,4
 235 918 235 918 246.5 935 c 128,-1,5
 258 952 258 952 274 963.5 c 128,-1,6
 290 975 290 975 309 980 c 128,-1,7
 328 985 328 985 346 983 c 0,8,9
 368 980 368 980 382.5 971 c 128,-1,10
 397 962 397 962 405.5 949 c 128,-1,11
 414 936 414 936 416 919.5 c 128,-1,12
 418 903 418 903 415 886 c 0,13,14
 412 863 412 863 401 846 c 128,-1,15
 390 829 390 829 373.5 818 c 128,-1,16
 357 807 357 807 338 802.5 c 128,-1,17
 319 798 319 798 300 800 c 0,0,1
232 174 m 1,18,-1
 313 279 l 1,19,20
 367 266 367 266 406 232.5 c 128,-1,21
 445 199 445 199 470.5 155 c 128,-1,22
 496 111 496 111 508 62.5 c 128,-1,23
 520 14 520 14 520 -29 c 0,24,25
 521 -114 521 -114 493 -186 c 128,-1,26
 465 -258 465 -258 420.5 -315 c 128,-1,27
 376 -372 376 -372 320.5 -412.5 c 128,-1,28
 265 -453 265 -453 211 -475 c 1,29,-1
 176 -431 l 1,30,-1
 176 -407 l 1,31,32
 211 -395 211 -395 247.5 -365 c 128,-1,33
 284 -335 284 -335 313.5 -292.5 c 128,-1,34
 343 -250 343 -250 361.5 -197.5 c 128,-1,35
 380 -145 380 -145 380 -88 c 0,36,37
 380 -42 380 -42 367.5 -2.5 c 128,-1,38
 355 37 355 37 334 67 c 128,-1,39
 313 97 313 97 286.5 115.5 c 128,-1,40
 260 134 260 134 232 138 c 1,41,-1
 232 174 l 1,18,-1
EndSplineSet
EndChar

StartChar: exclam
Encoding: 33 33 75
Width: 706
Flags: W
LayerCount: 2
Fore
SplineSet
248 1780 m 1,0,-1
 438 1780 l 1,1,-1
 385 454 l 1,2,-1
 293 454 l 1,3,-1
 248 1780 l 1,0,-1
240 73 m 0,4,5
 240 97 240 97 250.5 117.5 c 128,-1,6
 261 138 261 138 277.5 153 c 128,-1,7
 294 168 294 168 315.5 176.5 c 128,-1,8
 337 185 337 185 358 185 c 0,9,10
 409 185 409 185 433 156.5 c 128,-1,11
 457 128 457 128 457 90 c 0,12,13
 457 65 457 65 447 44.5 c 128,-1,14
 437 24 437 24 420.5 9 c 128,-1,15
 404 -6 404 -6 382.5 -14 c 128,-1,16
 361 -22 361 -22 339 -22 c 0,17,18
 320 -22 320 -22 302 -15.5 c 128,-1,19
 284 -9 284 -9 270.5 3.5 c 128,-1,20
 257 16 257 16 248.5 33.5 c 128,-1,21
 240 51 240 51 240 73 c 0,4,5
EndSplineSet
EndChar

StartChar: exclamdown
Encoding: 161 161 76
Width: 713
Flags: W
LayerCount: 2
Fore
SplineSet
330 1242 m 0,0,1
 298 1247 298 1247 277 1273.5 c 128,-1,2
 256 1300 256 1300 262 1339 c 0,3,4
 266 1360 266 1360 277.5 1377 c 128,-1,5
 289 1394 289 1394 305 1405.5 c 128,-1,6
 321 1417 321 1417 340 1422 c 128,-1,7
 359 1427 359 1427 377 1425 c 0,8,9
 399 1422 399 1422 413.5 1413 c 128,-1,10
 428 1404 428 1404 436.5 1391 c 128,-1,11
 445 1378 445 1378 446.5 1361.5 c 128,-1,12
 448 1345 448 1345 445 1328 c 0,13,14
 442 1305 442 1305 431 1288 c 128,-1,15
 420 1271 420 1271 404 1260 c 128,-1,16
 388 1249 388 1249 368.5 1244.5 c 128,-1,17
 349 1240 349 1240 330 1242 c 0,0,1
300 955 m 1,18,-1
 391 955 l 1,19,-1
 436 -398 l 1,20,-1
 247 -398 l 1,21,-1
 300 955 l 1,18,-1
EndSplineSet
EndChar

StartChar: question
Encoding: 63 63 77
Width: 1012
Flags: W
LayerCount: 2
Fore
SplineSet
458 490 m 1,0,1
 444 502 444 502 426.5 524.5 c 128,-1,2
 409 547 409 547 391 576 c 128,-1,3
 373 605 373 605 356 638.5 c 128,-1,4
 339 672 339 672 325.5 706 c 128,-1,5
 312 740 312 740 304 772.5 c 128,-1,6
 296 805 296 805 297 832 c 1,7,8
 297 862 297 862 319 888.5 c 128,-1,9
 341 915 341 915 376 938.5 c 128,-1,10
 411 962 411 962 456 983 c 128,-1,11
 501 1004 501 1004 548.5 1024 c 128,-1,12
 596 1044 596 1044 642 1064 c 128,-1,13
 688 1084 688 1084 725 1104.5 c 128,-1,14
 762 1125 762 1125 786 1146.5 c 128,-1,15
 810 1168 810 1168 814 1193 c 1,16,17
 816 1263 816 1263 799 1327.5 c 128,-1,18
 782 1392 782 1392 748.5 1448.5 c 128,-1,19
 715 1505 715 1505 667.5 1551.5 c 128,-1,20
 620 1598 620 1598 562 1631.5 c 128,-1,21
 504 1665 504 1665 437.5 1683.5 c 128,-1,22
 371 1702 371 1702 300 1702 c 0,23,24
 279 1702 279 1702 255.5 1700.5 c 128,-1,25
 232 1699 232 1699 209 1695 c 128,-1,26
 186 1691 186 1691 165.5 1685.5 c 128,-1,27
 145 1680 145 1680 130 1673 c 1,28,-1
 130 1789 l 1,29,30
 137 1798 137 1798 156 1806 c 128,-1,31
 175 1814 175 1814 201.5 1820 c 128,-1,32
 228 1826 228 1826 258 1830 c 128,-1,33
 288 1834 288 1834 317 1834 c 0,34,35
 432 1834 432 1834 523.5 1806.5 c 128,-1,36
 615 1779 615 1779 684.5 1732 c 128,-1,37
 754 1685 754 1685 802.5 1622 c 128,-1,38
 851 1559 851 1559 880 1489 c 128,-1,39
 909 1419 909 1419 920 1345 c 128,-1,40
 931 1271 931 1271 925 1202 c 1,41,42
 925 1158 925 1158 891.5 1123 c 128,-1,43
 858 1088 858 1088 807 1057.5 c 128,-1,44
 756 1027 756 1027 695.5 1000 c 128,-1,45
 635 973 635 973 581 947 c 128,-1,46
 527 921 527 921 488 894 c 128,-1,47
 449 867 449 867 440 836 c 1,48,49
 435 793 435 793 444 749 c 128,-1,50
 453 705 453 705 469 661.5 c 128,-1,51
 485 618 485 618 505 575 c 128,-1,52
 525 532 525 532 543 490 c 1,53,-1
 458 490 l 1,0,1
459 87 m 0,54,55
 462 108 462 108 473.5 125 c 128,-1,56
 485 142 485 142 501 153.5 c 128,-1,57
 517 165 517 165 536 170 c 128,-1,58
 555 175 555 175 573 173 c 0,59,60
 595 170 595 170 609.5 161 c 128,-1,61
 624 152 624 152 632.5 139 c 128,-1,62
 641 126 641 126 643 109.5 c 128,-1,63
 645 93 645 93 642 76 c 0,64,65
 639 53 639 53 628 36 c 128,-1,66
 617 19 617 19 600.5 8 c 128,-1,67
 584 -3 584 -3 565 -7.5 c 128,-1,68
 546 -12 546 -12 527 -10 c 0,69,70
 494 -5 494 -5 473 21.5 c 128,-1,71
 452 48 452 48 459 87 c 0,54,55
EndSplineSet
EndChar

StartChar: questiondown
Encoding: 191 191 78
Width: 1009
Flags: W
LayerCount: 2
Fore
SplineSet
430 1243 m 0,0,1
 397 1248 397 1248 376.5 1274.5 c 128,-1,2
 356 1301 356 1301 362 1340 c 0,3,4
 365 1361 365 1361 377 1378 c 128,-1,5
 389 1395 389 1395 405 1406.5 c 128,-1,6
 421 1418 421 1418 439.5 1423 c 128,-1,7
 458 1428 458 1428 476 1426 c 0,8,9
 498 1423 498 1423 513 1414 c 128,-1,10
 528 1405 528 1405 536.5 1391.5 c 128,-1,11
 545 1378 545 1378 546.5 1361.5 c 128,-1,12
 548 1345 548 1345 545 1328 c 0,13,14
 542 1306 542 1306 531 1289 c 128,-1,15
 520 1272 520 1272 504 1261 c 128,-1,16
 488 1250 488 1250 468.5 1245 c 128,-1,17
 449 1240 449 1240 430 1243 c 0,0,1
87 214 m 1,18,19
 87 257 87 257 120 292.5 c 128,-1,20
 153 328 153 328 204 358 c 128,-1,21
 255 388 255 388 314.5 415 c 128,-1,22
 374 442 374 442 428 468 c 128,-1,23
 482 494 482 494 521 521 c 128,-1,24
 560 548 560 548 569 579 c 1,25,26
 574 622 574 622 565 666.5 c 128,-1,27
 556 711 556 711 540 754.5 c 128,-1,28
 524 798 524 798 503.5 841 c 128,-1,29
 483 884 483 884 465 926 c 1,30,-1
 550 926 l 1,31,32
 564 913 564 913 581.5 890.5 c 128,-1,33
 599 868 599 868 617.5 839 c 128,-1,34
 636 810 636 810 653 776.5 c 128,-1,35
 670 743 670 743 683.5 709.5 c 128,-1,36
 697 676 697 676 704.5 643.5 c 128,-1,37
 712 611 712 611 712 584 c 0,38,39
 712 554 712 554 690.5 527.5 c 128,-1,40
 669 501 669 501 634 477.5 c 128,-1,41
 599 454 599 454 554 433 c 128,-1,42
 509 412 509 412 462 392 c 128,-1,43
 415 372 415 372 369 352 c 128,-1,44
 323 332 323 332 286.5 311.5 c 128,-1,45
 250 291 250 291 226 269.5 c 128,-1,46
 202 248 202 248 198 223 c 1,47,48
 194 118 194 118 233.5 25.5 c 128,-1,49
 273 -67 273 -67 342.5 -136.5 c 128,-1,50
 412 -206 412 -206 507 -246 c 128,-1,51
 602 -286 602 -286 709 -286 c 0,52,53
 729 -286 729 -286 752.5 -284.5 c 128,-1,54
 776 -283 776 -283 799.5 -279 c 128,-1,55
 823 -275 823 -275 843.5 -270 c 128,-1,56
 864 -265 864 -265 879 -257 c 1,57,-1
 879 -373 l 1,58,59
 872 -382 872 -382 852.5 -390 c 128,-1,60
 833 -398 833 -398 807 -404 c 128,-1,61
 781 -410 781 -410 750.5 -414 c 128,-1,62
 720 -418 720 -418 692 -418 c 0,63,64
 577 -418 577 -418 486 -390.5 c 128,-1,65
 395 -363 395 -363 325.5 -316 c 128,-1,66
 256 -269 256 -269 208 -206 c 128,-1,67
 160 -143 160 -143 131 -73 c 128,-1,68
 102 -3 102 -3 91.5 71 c 128,-1,69
 81 145 81 145 87 214 c 1,18,19
EndSplineSet
EndChar

StartChar: quoteleft
Encoding: 8216 8216 79
Width: 774
Flags: W
LayerCount: 2
Fore
SplineSet
417 953 m 1,0,1
 363 966 363 966 324 999.5 c 128,-1,2
 285 1033 285 1033 259.5 1077 c 128,-1,3
 234 1121 234 1121 222 1169.5 c 128,-1,4
 210 1218 210 1218 210 1261 c 0,5,6
 209 1346 209 1346 237 1418 c 128,-1,7
 265 1490 265 1490 309.5 1547 c 128,-1,8
 354 1604 354 1604 409 1644.5 c 128,-1,9
 464 1685 464 1685 518 1707 c 1,10,-1
 554 1664 l 1,11,-1
 554 1639 l 1,12,13
 519 1627 519 1627 482.5 1597 c 128,-1,14
 446 1567 446 1567 416.5 1524.5 c 128,-1,15
 387 1482 387 1482 368.5 1429.5 c 128,-1,16
 350 1377 350 1377 350 1320 c 0,17,18
 350 1274 350 1274 362.5 1234.5 c 128,-1,19
 375 1195 375 1195 395.5 1165 c 128,-1,20
 416 1135 416 1135 442.5 1116.5 c 128,-1,21
 469 1098 469 1098 497 1094 c 1,22,-1
 497 1058 l 1,23,-1
 417 953 l 1,24,-1
 417 953 l 1,0,1
EndSplineSet
EndChar

StartChar: quoteright
Encoding: 8217 8217 80
Width: 774
Flags: W
LayerCount: 2
Fore
SplineSet
179 1009 m 1,0,-1
 179 1034 l 1,1,2
 214 1046 214 1046 250 1076 c 128,-1,3
 286 1106 286 1106 315.5 1148.5 c 128,-1,4
 345 1191 345 1191 363.5 1243.5 c 128,-1,5
 382 1296 382 1296 382 1353 c 0,6,7
 382 1399 382 1399 369.5 1438 c 128,-1,8
 357 1477 357 1477 336.5 1507 c 128,-1,9
 316 1537 316 1537 289.5 1555.5 c 128,-1,10
 263 1574 263 1574 235 1578 c 1,11,-1
 235 1615 l 1,12,-1
 315 1719 l 1,13,14
 369 1706 369 1706 408 1672.5 c 128,-1,15
 447 1639 447 1639 472.5 1595.5 c 128,-1,16
 498 1552 498 1552 510 1503 c 128,-1,17
 522 1454 522 1454 522 1411 c 0,18,19
 523 1327 523 1327 495.5 1255 c 128,-1,20
 468 1183 468 1183 423.5 1126 c 128,-1,21
 379 1069 379 1069 323.5 1028 c 128,-1,22
 268 987 268 987 214 965 c 1,23,-1
 179 1009 l 1,0,-1
EndSplineSet
EndChar

StartChar: quotedblleft
Encoding: 8220 8220 81
Width: 1303
Flags: W
LayerCount: 2
Fore
SplineSet
946 953 m 1,0,1
 892 966 892 966 853 999.5 c 128,-1,2
 814 1033 814 1033 788.5 1077 c 128,-1,3
 763 1121 763 1121 751 1169.5 c 128,-1,4
 739 1218 739 1218 738 1261 c 0,5,6
 737 1346 737 1346 765 1418 c 128,-1,7
 793 1490 793 1490 837.5 1547 c 128,-1,8
 882 1604 882 1604 937.5 1644.5 c 128,-1,9
 993 1685 993 1685 1047 1707 c 1,10,-1
 1082 1664 l 1,11,-1
 1082 1639 l 1,12,13
 1047 1627 1047 1627 1011 1597 c 128,-1,14
 975 1567 975 1567 945.5 1524.5 c 128,-1,15
 916 1482 916 1482 897.5 1429.5 c 128,-1,16
 879 1377 879 1377 879 1320 c 0,17,18
 879 1274 879 1274 891.5 1234.5 c 128,-1,19
 904 1195 904 1195 924.5 1165 c 128,-1,20
 945 1135 945 1135 971.5 1116.5 c 128,-1,21
 998 1098 998 1098 1026 1094 c 1,22,-1
 1026 1058 l 1,23,-1
 946 953 l 1,0,1
417 953 m 1,24,25
 363 966 363 966 324 999.5 c 128,-1,26
 285 1033 285 1033 259.5 1077 c 128,-1,27
 234 1121 234 1121 222 1169.5 c 128,-1,28
 210 1218 210 1218 210 1261 c 0,29,30
 209 1346 209 1346 237 1418 c 128,-1,31
 265 1490 265 1490 309.5 1547 c 128,-1,32
 354 1604 354 1604 409 1644.5 c 128,-1,33
 464 1685 464 1685 518 1707 c 1,34,-1
 554 1664 l 1,35,-1
 554 1639 l 1,36,37
 519 1627 519 1627 482.5 1597 c 128,-1,38
 446 1567 446 1567 416.5 1524.5 c 128,-1,39
 387 1482 387 1482 368.5 1429.5 c 128,-1,40
 350 1377 350 1377 350 1320 c 0,41,42
 350 1274 350 1274 362.5 1234.5 c 128,-1,43
 375 1195 375 1195 395.5 1165 c 128,-1,44
 416 1135 416 1135 442.5 1116.5 c 128,-1,45
 469 1098 469 1098 497 1094 c 1,46,-1
 497 1058 l 1,47,-1
 417 953 l 1,24,25
EndSplineSet
EndChar

StartChar: quotedblright
Encoding: 8221 8221 82
Width: 1325
Flags: W
LayerCount: 2
Fore
SplineSet
771 1009 m 1,0,-1
 771 1034 l 1,1,2
 806 1046 806 1046 842.5 1076 c 128,-1,3
 879 1106 879 1106 908.5 1148.5 c 128,-1,4
 938 1191 938 1191 956.5 1243.5 c 128,-1,5
 975 1296 975 1296 975 1353 c 0,6,7
 975 1399 975 1399 962.5 1438 c 128,-1,8
 950 1477 950 1477 929 1507 c 128,-1,9
 908 1537 908 1537 881.5 1555.5 c 128,-1,10
 855 1574 855 1574 827 1578 c 1,11,-1
 827 1615 l 1,12,-1
 908 1719 l 1,13,14
 962 1706 962 1706 1001 1672.5 c 128,-1,15
 1040 1639 1040 1639 1065.5 1595.5 c 128,-1,16
 1091 1552 1091 1552 1103 1503 c 128,-1,17
 1115 1454 1115 1454 1115 1411 c 0,18,19
 1116 1327 1116 1327 1088 1255 c 128,-1,20
 1060 1183 1060 1183 1015.5 1126 c 128,-1,21
 971 1069 971 1069 915.5 1028 c 128,-1,22
 860 987 860 987 806 965 c 1,23,-1
 771 1009 l 1,0,-1
220 1009 m 1,24,-1
 220 1034 l 1,25,26
 255 1046 255 1046 291.5 1076 c 128,-1,27
 328 1106 328 1106 357.5 1148.5 c 128,-1,28
 387 1191 387 1191 405.5 1243.5 c 128,-1,29
 424 1296 424 1296 424 1353 c 0,30,31
 424 1399 424 1399 411.5 1438 c 128,-1,32
 399 1477 399 1477 378.5 1507 c 128,-1,33
 358 1537 358 1537 331.5 1555.5 c 128,-1,34
 305 1574 305 1574 277 1578 c 1,35,-1
 277 1615 l 1,36,-1
 357 1719 l 1,37,38
 411 1706 411 1706 450 1672.5 c 128,-1,39
 489 1639 489 1639 514.5 1595.5 c 128,-1,40
 540 1552 540 1552 552 1503 c 128,-1,41
 564 1454 564 1454 564 1411 c 0,42,43
 565 1327 565 1327 537 1255 c 128,-1,44
 509 1183 509 1183 464.5 1126 c 128,-1,45
 420 1069 420 1069 365 1028 c 128,-1,46
 310 987 310 987 256 965 c 1,47,-1
 220 1009 l 1,24,-1
EndSplineSet
EndChar

StartChar: quotesingle
Encoding: 39 39 83
Width: 820
Flags: W
LayerCount: 2
Fore
SplineSet
325 1782 m 1,0,-1
 495 1782 l 1,1,-1
 458 966 l 1,2,-1
 362 966 l 1,3,-1
 325 1782 l 1,0,-1
EndSplineSet
EndChar

StartChar: quotesinglbase
Encoding: 8218 8218 84
Width: 752
Flags: W
LayerCount: 2
Fore
SplineSet
235 116 m 1,0,-1
 315 221 l 1,1,2
 369 208 369 208 408 174.5 c 128,-1,3
 447 141 447 141 472.5 97 c 128,-1,4
 498 53 498 53 510 4.5 c 128,-1,5
 522 -44 522 -44 522 -87 c 0,6,7
 523 -172 523 -172 495.5 -244 c 128,-1,8
 468 -316 468 -316 423.5 -373 c 128,-1,9
 379 -430 379 -430 323.5 -470.5 c 128,-1,10
 268 -511 268 -511 214 -533 c 1,11,-1
 179 -490 l 1,12,-1
 179 -465 l 1,13,14
 214 -453 214 -453 250 -423 c 128,-1,15
 286 -393 286 -393 315.5 -350.5 c 128,-1,16
 345 -308 345 -308 363.5 -255.5 c 128,-1,17
 382 -203 382 -203 382 -146 c 0,18,19
 382 -100 382 -100 369.5 -60.5 c 128,-1,20
 357 -21 357 -21 336.5 9 c 128,-1,21
 316 39 316 39 289.5 57.5 c 128,-1,22
 263 76 263 76 235 80 c 1,23,-1
 235 116 l 1,0,-1
EndSplineSet
EndChar

StartChar: quotedbl
Encoding: 34 34 85
Width: 1260
Flags: W
LayerCount: 2
Fore
SplineSet
765 1782 m 1,0,-1
 935 1782 l 1,1,-1
 898 966 l 1,2,-1
 802 966 l 1,3,-1
 765 1782 l 1,0,-1
325 1782 m 1,4,-1
 495 1782 l 1,5,-1
 458 966 l 1,6,-1
 362 966 l 1,7,-1
 325 1782 l 1,4,-1
EndSplineSet
EndChar

StartChar: quotedblbase
Encoding: 8222 8222 86
Width: 1308
Flags: W
LayerCount: 2
Fore
SplineSet
856 120 m 1,0,-1
 937 224 l 1,1,2
 991 211 991 211 1030 177.5 c 128,-1,3
 1069 144 1069 144 1094.5 100 c 128,-1,4
 1120 56 1120 56 1132 7.5 c 128,-1,5
 1144 -41 1144 -41 1144 -84 c 0,6,7
 1145 -168 1145 -168 1117 -240 c 128,-1,8
 1089 -312 1089 -312 1044.5 -369 c 128,-1,9
 1000 -426 1000 -426 944.5 -467 c 128,-1,10
 889 -508 889 -508 835 -530 c 1,11,-1
 800 -486 l 1,12,-1
 800 -462 l 1,13,14
 835 -450 835 -450 871.5 -419.5 c 128,-1,15
 908 -389 908 -389 937.5 -346.5 c 128,-1,16
 967 -304 967 -304 985.5 -252 c 128,-1,17
 1004 -200 1004 -200 1004 -143 c 0,18,19
 1004 -97 1004 -97 991.5 -57.5 c 128,-1,20
 979 -18 979 -18 958 12 c 128,-1,21
 937 42 937 42 910.5 60.5 c 128,-1,22
 884 79 884 79 856 83 c 1,23,-1
 856 120 l 1,0,-1
306 120 m 1,24,-1
 386 224 l 1,25,26
 440 211 440 211 479 177.5 c 128,-1,27
 518 144 518 144 543.5 100 c 128,-1,28
 569 56 569 56 581 7.5 c 128,-1,29
 593 -41 593 -41 593 -84 c 0,30,31
 594 -168 594 -168 566.5 -240 c 128,-1,32
 539 -312 539 -312 494.5 -369 c 128,-1,33
 450 -426 450 -426 394.5 -467 c 128,-1,34
 339 -508 339 -508 285 -530 c 1,35,-1
 249 -486 l 1,36,-1
 249 -462 l 1,37,38
 284 -450 284 -450 320.5 -419.5 c 128,-1,39
 357 -389 357 -389 386.5 -346.5 c 128,-1,40
 416 -304 416 -304 434.5 -252 c 128,-1,41
 453 -200 453 -200 453 -143 c 0,42,43
 453 -97 453 -97 440.5 -57.5 c 128,-1,44
 428 -18 428 -18 407.5 12 c 128,-1,45
 387 42 387 42 360.5 60.5 c 128,-1,46
 334 79 334 79 306 83 c 1,47,-1
 306 120 l 1,24,-1
EndSplineSet
EndChar

StartChar: guilsinglleft
Encoding: 8249 8249 87
Width: 1189
Flags: W
LayerCount: 2
Fore
SplineSet
245 676 m 1,0,-1
 893 1075 l 1,1,-1
 934 1008 l 1,2,-1
 384 616 l 1,3,-1
 934 234 l 1,4,-1
 893 163 l 1,5,-1
 245 550 l 1,6,-1
 245 676 l 1,0,-1
EndSplineSet
EndChar

StartChar: guilsinglright
Encoding: 8250 8250 88
Width: 1189
Flags: W
LayerCount: 2
Fore
SplineSet
256 230 m 1,0,-1
 805 621 l 1,1,-1
 256 1004 l 1,2,-1
 296 1075 l 1,3,-1
 944 688 l 1,4,-1
 944 562 l 1,5,-1
 296 163 l 1,6,-1
 256 230 l 1,0,-1
EndSplineSet
EndChar

StartChar: guillemotleft
Encoding: 171 171 89
Width: 1897
Flags: W
LayerCount: 2
Fore
SplineSet
953 676 m 1,0,-1
 1601 1075 l 1,1,-1
 1642 1008 l 1,2,-1
 1092 616 l 1,3,-1
 1642 234 l 1,4,-1
 1601 163 l 1,5,-1
 953 550 l 1,6,-1
 953 676 l 1,0,-1
245 676 m 1,7,-1
 893 1075 l 1,8,-1
 934 1008 l 1,9,-1
 384 616 l 1,10,-1
 934 234 l 1,11,-1
 893 163 l 1,12,-1
 245 550 l 1,13,-1
 245 676 l 1,7,-1
EndSplineSet
EndChar

StartChar: guillemotright
Encoding: 187 187 90
Width: 1897
Flags: W
LayerCount: 2
Fore
SplineSet
1513 621 m 1,0,-1
 964 1004 l 1,1,-1
 1005 1075 l 1,2,-1
 1653 688 l 1,3,-1
 1653 562 l 1,4,-1
 1005 163 l 1,5,-1
 964 230 l 1,6,-1
 1513 621 l 1,0,-1
256 230 m 1,7,-1
 805 621 l 1,8,-1
 256 1004 l 1,9,-1
 296 1075 l 1,10,-1
 944 688 l 1,11,-1
 944 562 l 1,12,-1
 296 163 l 1,13,-1
 256 230 l 1,7,-1
EndSplineSet
EndChar

StartChar: onesuperior
Encoding: 185 185 91
Width: 1085
Flags: W
LayerCount: 2
Fore
SplineSet
215 786 m 1,0,-1
 506 807 l 1,1,-1
 506 1546 l 1,2,3
 434 1519 434 1519 361 1493 c 128,-1,4
 288 1467 288 1467 212 1448 c 1,5,-1
 197 1528 l 1,6,7
 227 1537 227 1537 265.5 1552 c 128,-1,8
 304 1567 304 1567 345.5 1585 c 128,-1,9
 387 1603 387 1603 428 1623 c 128,-1,10
 469 1643 469 1643 504 1662 c 128,-1,11
 539 1681 539 1681 565 1697 c 128,-1,12
 591 1713 591 1713 603 1724 c 1,13,-1
 653 1709 l 1,14,-1
 651 808 l 1,15,-1
 926 786 l 1,16,-1
 926 718 l 1,17,-1
 215 718 l 1,18,-1
 215 786 l 1,0,-1
EndSplineSet
EndChar

StartChar: twosuperior
Encoding: 178 178 92
Width: 1256
Flags: W
LayerCount: 2
Fore
SplineSet
148 806 m 1,0,1
 209 837 209 837 282.5 879.5 c 128,-1,2
 356 922 356 922 429.5 971.5 c 128,-1,3
 503 1021 503 1021 572 1076 c 128,-1,4
 641 1131 641 1131 694.5 1187.5 c 128,-1,5
 748 1244 748 1244 780 1300 c 128,-1,6
 812 1356 812 1356 812 1408 c 0,7,8
 812 1462 812 1462 793 1501.5 c 128,-1,9
 774 1541 774 1541 741 1566.5 c 128,-1,10
 708 1592 708 1592 663 1604.5 c 128,-1,11
 618 1617 618 1617 567 1617 c 0,12,13
 520 1617 520 1617 469 1604.5 c 128,-1,14
 418 1592 418 1592 368.5 1568 c 128,-1,15
 319 1544 319 1544 275.5 1510.5 c 128,-1,16
 232 1477 232 1477 201 1435 c 1,17,-1
 143 1503 l 1,18,19
 168 1543 168 1543 214 1583 c 128,-1,20
 260 1623 260 1623 320 1655.5 c 128,-1,21
 380 1688 380 1688 451 1708.5 c 128,-1,22
 522 1729 522 1729 599 1729 c 0,23,24
 703 1729 703 1729 775 1703 c 128,-1,25
 847 1677 847 1677 892 1637 c 128,-1,26
 937 1597 937 1597 956.5 1548 c 128,-1,27
 976 1499 976 1499 975 1453 c 0,28,29
 974 1358 974 1358 924.5 1273 c 128,-1,30
 875 1188 875 1188 788.5 1109.5 c 128,-1,31
 702 1031 702 1031 584.5 957 c 128,-1,32
 467 883 467 883 330 811 c 1,33,-1
 914 841 l 1,34,-1
 1020 1013 l 1,35,-1
 1099 981 l 1,36,-1
 1039 720 l 1,37,-1
 181 720 l 1,38,-1
 148 806 l 1,0,1
EndSplineSet
EndChar

StartChar: threesuperior
Encoding: 179 179 93
Width: 1145
Flags: W
LayerCount: 2
Fore
SplineSet
228 774 m 1,0,1
 260 762 260 762 296.5 753 c 128,-1,2
 333 744 333 744 369.5 737.5 c 128,-1,3
 406 731 406 731 442 728 c 128,-1,4
 478 725 478 725 509 725 c 0,5,6
 588 726 588 726 648.5 744 c 128,-1,7
 709 762 709 762 750 794 c 128,-1,8
 791 826 791 826 812 869.5 c 128,-1,9
 833 913 833 913 833 965 c 0,10,11
 833 1058 833 1058 759.5 1107 c 128,-1,12
 686 1156 686 1156 552 1145 c 1,13,-1
 385 1111 l 1,14,-1
 385 1205 l 1,15,16
 486 1221 486 1221 551.5 1246.5 c 128,-1,17
 617 1272 617 1272 657.5 1302.5 c 128,-1,18
 698 1333 698 1333 718.5 1366 c 128,-1,19
 739 1399 739 1399 748 1432 c 0,20,21
 753 1452 753 1452 753 1471 c 128,-1,22
 753 1490 753 1490 748 1509 c 1,23,24
 743 1536 743 1536 724.5 1556.5 c 128,-1,25
 706 1577 706 1577 678 1590.5 c 128,-1,26
 650 1604 650 1604 614 1610.5 c 128,-1,27
 578 1617 578 1617 539 1616 c 0,28,29
 500 1614 500 1614 455 1605 c 128,-1,30
 410 1596 410 1596 367.5 1582 c 128,-1,31
 325 1568 325 1568 288.5 1550 c 128,-1,32
 252 1532 252 1532 229 1513 c 1,33,-1
 191 1583 l 1,34,35
 215 1602 215 1602 253 1623.5 c 128,-1,36
 291 1645 291 1645 338 1663 c 128,-1,37
 385 1681 385 1681 439 1694.5 c 128,-1,38
 493 1708 493 1708 549 1712 c 0,39,40
 634 1719 634 1719 700 1703 c 128,-1,41
 766 1687 766 1687 811.5 1655 c 128,-1,42
 857 1623 857 1623 880.5 1577 c 128,-1,43
 904 1531 904 1531 904 1479 c 0,44,45
 904 1437 904 1437 889 1397.5 c 128,-1,46
 874 1358 874 1358 844 1323.5 c 128,-1,47
 814 1289 814 1289 768 1261 c 128,-1,48
 722 1233 722 1233 661 1214 c 1,49,50
 756 1219 756 1219 817.5 1194 c 128,-1,51
 879 1169 879 1169 915 1129.5 c 128,-1,52
 951 1090 951 1090 965.5 1043 c 128,-1,53
 980 996 980 996 980 957 c 0,54,55
 980 885 980 885 947.5 824.5 c 128,-1,56
 915 764 915 764 854.5 720.5 c 128,-1,57
 794 677 794 677 708 653 c 128,-1,58
 622 629 622 629 516 629 c 0,59,60
 486 629 486 629 450.5 632.5 c 128,-1,61
 415 636 415 636 377.5 643 c 128,-1,62
 340 650 340 650 301.5 661 c 128,-1,63
 263 672 263 672 228 686 c 1,64,-1
 228 774 l 1,0,1
EndSplineSet
EndChar

StartChar: onequarter
Encoding: 188 188 94
Width: 2626
Flags: W
LayerCount: 2
Fore
SplineSet
1537 1881 m 1,0,-1
 1637 1852 l 1,1,-1
 912 -343 l 1,2,-1
 809 -313 l 1,3,-1
 1537 1881 l 1,0,-1
245 786 m 1,4,-1
 536 807 l 1,5,-1
 536 1546 l 1,6,7
 464 1519 464 1519 391 1493 c 128,-1,8
 318 1467 318 1467 242 1448 c 1,9,-1
 227 1528 l 1,10,11
 257 1537 257 1537 295.5 1552 c 128,-1,12
 334 1567 334 1567 375.5 1585 c 128,-1,13
 417 1603 417 1603 458 1623 c 128,-1,14
 499 1643 499 1643 534 1662 c 128,-1,15
 569 1681 569 1681 595 1697 c 128,-1,16
 621 1713 621 1713 633 1724 c 1,17,-1
 683 1709 l 1,18,-1
 681 808 l 1,19,-1
 956 786 l 1,20,-1
 956 718 l 1,21,-1
 245 718 l 1,22,-1
 245 786 l 1,4,-1
1953 1115 m 1,23,-1
 2007 1116 l 1,24,-1
 2088 1042 l 1,25,-1
 1566 334 l 1,26,-1
 1519 266 l 1,27,-1
 1999 292 l 1,28,-1
 2001 583 l 1,29,-1
 2133 602 l 1,30,-1
 2133 299 l 1,31,-1
 2415 315 l 1,32,-1
 2418 186 l 1,33,-1
 2133 186 l 1,34,-1
 2133 -180 l 1,35,-1
 1996 -180 l 1,36,-1
 1998 186 l 1,37,-1
 1425 186 l 1,38,-1
 1387 260 l 1,39,-1
 1953 1115 l 1,23,-1
EndSplineSet
EndChar

StartChar: onehalf
Encoding: 189 189 95
Width: 2626
Flags: W
LayerCount: 2
Fore
SplineSet
1521 1881 m 1,0,-1
 1620 1856 l 1,1,-1
 895 -343 l 1,2,-1
 792 -322 l 1,3,-1
 1521 1881 l 1,0,-1
245 786 m 1,4,-1
 536 807 l 1,5,-1
 536 1546 l 1,6,7
 464 1519 464 1519 391 1493 c 128,-1,8
 318 1467 318 1467 242 1448 c 1,9,-1
 227 1528 l 1,10,11
 257 1537 257 1537 295.5 1552 c 128,-1,12
 334 1567 334 1567 375.5 1585 c 128,-1,13
 417 1603 417 1603 458 1623 c 128,-1,14
 499 1643 499 1643 534 1662 c 128,-1,15
 569 1681 569 1681 595 1697 c 128,-1,16
 621 1713 621 1713 633 1724 c 1,17,-1
 683 1709 l 1,18,-1
 681 808 l 1,19,-1
 956 786 l 1,20,-1
 956 718 l 1,21,-1
 245 718 l 1,22,-1
 245 786 l 1,4,-1
1448 85 m 1,23,24
 1509 116 1509 116 1582.5 158.5 c 128,-1,25
 1656 201 1656 201 1730 250.5 c 128,-1,26
 1804 300 1804 300 1873 355 c 128,-1,27
 1942 410 1942 410 1995.5 466.5 c 128,-1,28
 2049 523 2049 523 2081 579 c 128,-1,29
 2113 635 2113 635 2113 687 c 0,30,31
 2113 741 2113 741 2094 780 c 128,-1,32
 2075 819 2075 819 2041.5 845 c 128,-1,33
 2008 871 2008 871 1963 883.5 c 128,-1,34
 1918 896 1918 896 1867 896 c 0,35,36
 1820 896 1820 896 1769 883 c 128,-1,37
 1718 870 1718 870 1668.5 846.5 c 128,-1,38
 1619 823 1619 823 1575.5 789.5 c 128,-1,39
 1532 756 1532 756 1501 714 c 1,40,-1
 1443 782 l 1,41,42
 1468 822 1468 822 1514 862 c 128,-1,43
 1560 902 1560 902 1620 934.5 c 128,-1,44
 1680 967 1680 967 1751 987.5 c 128,-1,45
 1822 1008 1822 1008 1899 1008 c 0,46,47
 2003 1008 2003 1008 2075 982 c 128,-1,48
 2147 956 2147 956 2192 915.5 c 128,-1,49
 2237 875 2237 875 2256.5 826.5 c 128,-1,50
 2276 778 2276 778 2276 732 c 0,51,52
 2275 637 2275 637 2225.5 552 c 128,-1,53
 2176 467 2176 467 2089.5 388.5 c 128,-1,54
 2003 310 2003 310 1886 236 c 128,-1,55
 1769 162 1769 162 1633 90 c 1,56,-1
 2214 120 l 1,57,-1
 2320 292 l 1,58,-1
 2399 260 l 1,59,-1
 2339 -1 l 1,60,-1
 1481 -1 l 1,61,-1
 1448 85 l 1,23,24
EndSplineSet
EndChar

StartChar: threequarters
Encoding: 190 190 96
Width: 2681
Flags: W
LayerCount: 2
Fore
SplineSet
1544 1881 m 1,0,-1
 1643 1856 l 1,1,-1
 918 -343 l 1,2,-1
 815 -322 l 1,3,-1
 1544 1881 l 1,0,-1
228 774 m 1,4,5
 260 762 260 762 296.5 753 c 128,-1,6
 333 744 333 744 369.5 737.5 c 128,-1,7
 406 731 406 731 442 728 c 128,-1,8
 478 725 478 725 509 725 c 0,9,10
 588 726 588 726 648.5 744 c 128,-1,11
 709 762 709 762 750 794 c 128,-1,12
 791 826 791 826 812 869.5 c 128,-1,13
 833 913 833 913 833 965 c 0,14,15
 833 1058 833 1058 759.5 1107 c 128,-1,16
 686 1156 686 1156 552 1145 c 1,17,-1
 385 1111 l 1,18,-1
 385 1205 l 1,19,20
 486 1221 486 1221 551.5 1246.5 c 128,-1,21
 617 1272 617 1272 657.5 1302.5 c 128,-1,22
 698 1333 698 1333 718.5 1366 c 128,-1,23
 739 1399 739 1399 748 1432 c 0,24,25
 753 1452 753 1452 753 1471 c 128,-1,26
 753 1490 753 1490 748 1509 c 1,27,28
 743 1536 743 1536 724.5 1556.5 c 128,-1,29
 706 1577 706 1577 678 1590.5 c 128,-1,30
 650 1604 650 1604 614 1610.5 c 128,-1,31
 578 1617 578 1617 539 1616 c 0,32,33
 500 1614 500 1614 455 1605 c 128,-1,34
 410 1596 410 1596 367.5 1582 c 128,-1,35
 325 1568 325 1568 288.5 1550 c 128,-1,36
 252 1532 252 1532 229 1513 c 1,37,-1
 191 1583 l 1,38,39
 215 1602 215 1602 253 1623.5 c 128,-1,40
 291 1645 291 1645 338 1663 c 128,-1,41
 385 1681 385 1681 439 1694.5 c 128,-1,42
 493 1708 493 1708 549 1712 c 0,43,44
 634 1719 634 1719 700 1703 c 128,-1,45
 766 1687 766 1687 811.5 1655 c 128,-1,46
 857 1623 857 1623 880.5 1577 c 128,-1,47
 904 1531 904 1531 904 1479 c 0,48,49
 904 1437 904 1437 889 1397.5 c 128,-1,50
 874 1358 874 1358 844 1323.5 c 128,-1,51
 814 1289 814 1289 768 1261 c 128,-1,52
 722 1233 722 1233 661 1214 c 1,53,54
 756 1219 756 1219 817.5 1194 c 128,-1,55
 879 1169 879 1169 915 1129.5 c 128,-1,56
 951 1090 951 1090 965.5 1043 c 128,-1,57
 980 996 980 996 980 957 c 0,58,59
 980 885 980 885 947.5 824.5 c 128,-1,60
 915 764 915 764 854.5 720.5 c 128,-1,61
 794 677 794 677 708 653 c 128,-1,62
 622 629 622 629 516 629 c 0,63,64
 486 629 486 629 450.5 632.5 c 128,-1,65
 415 636 415 636 377.5 643 c 128,-1,66
 340 650 340 650 301.5 661 c 128,-1,67
 263 672 263 672 228 686 c 1,68,-1
 228 774 l 1,4,5
1952 1115 m 1,69,-1
 2007 1116 l 1,70,-1
 2087 1042 l 1,71,-1
 1566 334 l 1,72,-1
 1518 266 l 1,73,-1
 1999 292 l 1,74,-1
 2001 583 l 1,75,-1
 2133 602 l 1,76,-1
 2133 299 l 1,77,-1
 2415 315 l 1,78,-1
 2417 186 l 1,79,-1
 2133 186 l 1,80,-1
 2133 -180 l 1,81,-1
 1996 -180 l 1,82,-1
 1998 186 l 1,83,-1
 1425 186 l 1,84,-1
 1387 260 l 1,85,-1
 1952 1115 l 1,69,-1
EndSplineSet
EndChar

StartChar: ordfeminine
Encoding: 170 170 97
Width: 964
Flags: W
LayerCount: 2
Fore
SplineSet
341 736 m 0,0,1
 305 736 305 736 261 749.5 c 128,-1,2
 217 763 217 763 179.5 791.5 c 128,-1,3
 142 820 142 820 116.5 864.5 c 128,-1,4
 91 909 91 909 91 972 c 0,5,6
 91 1032 91 1032 114.5 1076.5 c 128,-1,7
 138 1121 138 1121 178.5 1152 c 128,-1,8
 219 1183 219 1183 274 1202.5 c 128,-1,9
 329 1222 329 1222 392.5 1233 c 128,-1,10
 456 1244 456 1244 525 1248 c 128,-1,11
 594 1252 594 1252 663 1252 c 1,12,-1
 663 1293 l 2,13,14
 663 1360 663 1360 646.5 1400.5 c 128,-1,15
 630 1441 630 1441 599.5 1463 c 128,-1,16
 569 1485 569 1485 524.5 1492 c 128,-1,17
 480 1499 480 1499 425 1499 c 0,18,19
 385 1499 385 1499 345.5 1494 c 128,-1,20
 306 1489 306 1489 270.5 1479.5 c 128,-1,21
 235 1470 235 1470 205.5 1457 c 128,-1,22
 176 1444 176 1444 156 1428 c 1,23,-1
 126 1497 l 1,24,25
 148 1517 148 1517 186 1534.5 c 128,-1,26
 224 1552 224 1552 270 1565 c 128,-1,27
 316 1578 316 1578 367 1585.5 c 128,-1,28
 418 1593 418 1593 466 1593 c 0,29,30
 538 1593 538 1593 598.5 1582.5 c 128,-1,31
 659 1572 659 1572 703 1540 c 128,-1,32
 747 1508 747 1508 771 1448.5 c 128,-1,33
 795 1389 795 1389 795 1292 c 2,34,-1
 794 816 l 1,35,-1
 881 816 l 1,36,-1
 881 758 l 1,37,38
 870 753 870 753 852.5 748 c 128,-1,39
 835 743 835 743 814.5 739 c 128,-1,40
 794 735 794 735 774.5 732.5 c 128,-1,41
 755 730 755 730 740 730 c 0,42,43
 706 730 706 730 686.5 743.5 c 128,-1,44
 667 757 667 757 667 805 c 2,45,-1
 667 843 l 1,46,47
 649 829 649 829 622.5 810.5 c 128,-1,48
 596 792 596 792 557.5 775.5 c 128,-1,49
 519 759 519 759 466 747.5 c 128,-1,50
 413 736 413 736 341 736 c 0,0,1
395 826 m 0,51,52
 440 826 440 826 480.5 833 c 128,-1,53
 521 840 521 840 555.5 852 c 128,-1,54
 590 864 590 864 617 880 c 128,-1,55
 644 896 644 896 662 913 c 1,56,-1
 662 1181 l 1,57,58
 584 1181 584 1181 507.5 1174 c 128,-1,59
 431 1167 431 1167 369.5 1146.5 c 128,-1,60
 308 1126 308 1126 270 1089.5 c 128,-1,61
 232 1053 232 1053 232 995 c 0,62,63
 232 960 232 960 242.5 929.5 c 128,-1,64
 253 899 253 899 273.5 876 c 128,-1,65
 294 853 294 853 324.5 839.5 c 128,-1,66
 355 826 355 826 395 826 c 0,51,52
EndSplineSet
EndChar

StartChar: ordmasculine
Encoding: 186 186 98
Width: 998
Flags: W
LayerCount: 2
Fore
SplineSet
486 735 m 0,0,1
 402 735 402 735 330 763.5 c 128,-1,2
 258 792 258 792 205.5 847 c 128,-1,3
 153 902 153 902 123.5 982 c 128,-1,4
 94 1062 94 1062 96 1165 c 0,5,6
 97 1240 97 1240 115 1301 c 128,-1,7
 133 1362 133 1362 163 1409.5 c 128,-1,8
 193 1457 193 1457 233 1491.5 c 128,-1,9
 273 1526 273 1526 318.5 1548.5 c 128,-1,10
 364 1571 364 1571 413 1582 c 128,-1,11
 462 1593 462 1593 510 1593 c 0,12,13
 603 1593 603 1593 676.5 1563.5 c 128,-1,14
 750 1534 750 1534 800.5 1477.5 c 128,-1,15
 851 1421 851 1421 877 1339.5 c 128,-1,16
 903 1258 903 1258 902 1155 c 0,17,18
 901 1043 901 1043 862 963.5 c 128,-1,19
 823 884 823 884 762.5 833.5 c 128,-1,20
 702 783 702 783 628.5 759 c 128,-1,21
 555 735 555 735 486 735 c 0,0,1
487 815 m 0,22,23
 553 815 553 815 603.5 834 c 128,-1,24
 654 853 654 853 687.5 893 c 128,-1,25
 721 933 721 933 738.5 995 c 128,-1,26
 756 1057 756 1057 756 1143 c 0,27,28
 756 1227 756 1227 740 1295.5 c 128,-1,29
 724 1364 724 1364 692.5 1412.5 c 128,-1,30
 661 1461 661 1461 613 1487 c 128,-1,31
 565 1513 565 1513 501 1513 c 0,32,33
 436 1513 436 1513 387.5 1489 c 128,-1,34
 339 1465 339 1465 307 1421 c 128,-1,35
 275 1377 275 1377 258.5 1315 c 128,-1,36
 242 1253 242 1253 242 1175 c 0,37,38
 242 1092 242 1092 259.5 1025.5 c 128,-1,39
 277 959 277 959 309.5 912 c 128,-1,40
 342 865 342 865 387.5 840 c 128,-1,41
 433 815 433 815 487 815 c 0,22,23
EndSplineSet
EndChar

StartChar: degree
Encoding: 176 176 99
Width: 677
Flags: W
LayerCount: 2
Fore
SplineSet
338 961 m 0,0,1
 273 961 273 961 215 986 c 128,-1,2
 157 1011 157 1011 113.5 1054 c 128,-1,3
 70 1097 70 1097 45 1154.5 c 128,-1,4
 20 1212 20 1212 20 1277 c 256,5,6
 20 1342 20 1342 45 1399.5 c 128,-1,7
 70 1457 70 1457 113.5 1500 c 128,-1,8
 157 1543 157 1543 215 1568 c 128,-1,9
 273 1593 273 1593 338 1593 c 0,10,11
 404 1593 404 1593 462 1568 c 128,-1,12
 520 1543 520 1543 563.5 1500 c 128,-1,13
 607 1457 607 1457 632 1399.5 c 128,-1,14
 657 1342 657 1342 657 1277 c 256,15,16
 657 1212 657 1212 632 1154.5 c 128,-1,17
 607 1097 607 1097 563.5 1054 c 128,-1,18
 520 1011 520 1011 462 986 c 128,-1,19
 404 961 404 961 338 961 c 0,0,1
339 1049 m 0,20,21
 388 1049 388 1049 429 1066.5 c 128,-1,22
 470 1084 470 1084 500 1115 c 128,-1,23
 530 1146 530 1146 546.5 1188 c 128,-1,24
 563 1230 563 1230 563 1278 c 0,25,26
 563 1324 563 1324 545.5 1365.5 c 128,-1,27
 528 1407 528 1407 498 1438 c 128,-1,28
 468 1469 468 1469 427 1487 c 128,-1,29
 386 1505 386 1505 339 1505 c 0,30,31
 290 1505 290 1505 249 1487.5 c 128,-1,32
 208 1470 208 1470 178 1439.5 c 128,-1,33
 148 1409 148 1409 131 1367.5 c 128,-1,34
 114 1326 114 1326 114 1278 c 0,35,36
 114 1231 114 1231 131.5 1189.5 c 128,-1,37
 149 1148 149 1148 179.5 1117 c 128,-1,38
 210 1086 210 1086 251 1067.5 c 128,-1,39
 292 1049 292 1049 339 1049 c 0,20,21
EndSplineSet
EndChar

StartChar: less
Encoding: 60 60 100
Width: 1313
Flags: W
LayerCount: 2
Fore
SplineSet
138 802 m 1,0,-1
 1107 1317 l 1,1,-1
 1107 1179 l 1,2,-1
 268 751 l 1,3,-1
 1107 326 l 1,4,-1
 1107 187 l 1,5,-1
 138 701 l 1,6,-1
 138 802 l 1,0,-1
EndSplineSet
EndChar

StartChar: greater
Encoding: 62 62 101
Width: 1313
Flags: W
LayerCount: 2
Fore
SplineSet
206 325 m 1,0,-1
 1045 751 l 1,1,-1
 206 1178 l 1,2,-1
 206 1317 l 1,3,-1
 1175 803 l 1,4,-1
 1175 702 l 1,5,-1
 206 187 l 1,6,-1
 206 325 l 1,0,-1
EndSplineSet
EndChar

StartChar: plus
Encoding: 43 43 102
Width: 1257
Flags: W
LayerCount: 2
Fore
SplineSet
568 579 m 1,0,-1
 575 744 l 1,1,-1
 413 738 l 1,2,-1
 172 738 l 1,3,-1
 172 856 l 1,4,-1
 413 856 l 1,5,-1
 575 846 l 1,6,-1
 568 1012 l 1,7,-1
 568 1260 l 1,8,-1
 688 1260 l 1,9,-1
 688 1012 l 1,10,-1
 680 846 l 1,11,-1
 824 856 l 1,12,-1
 1085 856 l 1,13,-1
 1085 738 l 1,14,-1
 824 738 l 1,15,-1
 680 745 l 1,16,-1
 688 579 l 1,17,-1
 688 321 l 1,18,-1
 568 321 l 1,19,-1
 568 579 l 1,0,-1
EndSplineSet
EndChar

StartChar: plusminus
Encoding: 177 177 103
Width: 1258
Flags: W
LayerCount: 2
Fore
SplineSet
569 579 m 1,0,-1
 575 744 l 1,1,-1
 414 738 l 1,2,-1
 172 738 l 1,3,-1
 172 856 l 1,4,-1
 414 856 l 1,5,-1
 575 846 l 1,6,-1
 569 1012 l 1,7,-1
 569 1260 l 1,8,-1
 689 1260 l 1,9,-1
 689 1012 l 1,10,-1
 680 846 l 1,11,-1
 824 856 l 1,12,-1
 1085 856 l 1,13,-1
 1085 738 l 1,14,-1
 824 738 l 1,15,-1
 680 745 l 1,16,-1
 689 579 l 1,17,-1
 689 321 l 1,18,-1
 569 321 l 1,19,-1
 569 579 l 1,0,-1
181 177 m 1,20,-1
 1075 177 l 1,21,-1
 1075 66 l 1,22,-1
 181 66 l 1,23,-1
 181 177 l 1,20,-1
EndSplineSet
EndChar

StartChar: hyphen
Encoding: 45 45 104
Width: 1229
Flags: W
LayerCount: 2
Fore
SplineSet
172 854 m 1,0,-1
 1057 854 l 1,1,-1
 1057 743 l 1,2,-1
 172 743 l 1,3,-1
 172 854 l 1,0,-1
EndSplineSet
EndChar

StartChar: minus
Encoding: 8722 8722 105
Width: 1229
Flags: W
LayerCount: 2
Fore
SplineSet
172 854 m 1,0,-1
 1057 854 l 1,1,-1
 1057 743 l 1,2,-1
 172 743 l 1,3,-1
 172 854 l 1,0,-1
EndSplineSet
EndChar

StartChar: equal
Encoding: 61 61 106
Width: 1229
Flags: W
LayerCount: 2
Fore
SplineSet
172 1053 m 1,0,-1
 1057 1053 l 1,1,-1
 1057 942 l 1,2,-1
 172 942 l 1,3,-1
 172 1053 l 1,0,-1
172 646 m 1,4,-1
 1057 646 l 1,5,-1
 1057 534 l 1,6,-1
 172 534 l 1,7,-1
 172 646 l 1,4,-1
EndSplineSet
EndChar

StartChar: approxequal
Encoding: 8776 8776 107
Width: 1275
Flags: W
LayerCount: 2
Fore
SplineSet
153 980 m 1,0,1
 175 1014 175 1014 208 1047 c 128,-1,2
 241 1080 241 1080 282 1105 c 128,-1,3
 323 1130 323 1130 372.5 1145.5 c 128,-1,4
 422 1161 422 1161 477 1161 c 0,5,6
 516 1161 516 1161 547.5 1147.5 c 128,-1,7
 579 1134 579 1134 607 1113.5 c 128,-1,8
 635 1093 635 1093 660.5 1069 c 128,-1,9
 686 1045 686 1045 711 1024.5 c 128,-1,10
 736 1004 736 1004 763 990.5 c 128,-1,11
 790 977 790 977 821 977 c 0,12,13
 860 977 860 977 892.5 988 c 128,-1,14
 925 999 925 999 953 1016 c 128,-1,15
 981 1033 981 1033 1003.5 1054 c 128,-1,16
 1026 1075 1026 1075 1046 1095 c 1,17,-1
 1101 1027 l 1,18,19
 1079 992 1079 992 1046.5 959.5 c 128,-1,20
 1014 927 1014 927 973 901.5 c 128,-1,21
 932 876 932 876 882.5 860.5 c 128,-1,22
 833 845 833 845 778 845 c 0,23,24
 739 845 739 845 707.5 858.5 c 128,-1,25
 676 872 676 872 648 893 c 128,-1,26
 620 914 620 914 595 937.5 c 128,-1,27
 570 961 570 961 544.5 982 c 128,-1,28
 519 1003 519 1003 492 1016.5 c 128,-1,29
 465 1030 465 1030 434 1030 c 0,30,31
 395 1030 395 1030 362 1019 c 128,-1,32
 329 1008 329 1008 301.5 990.5 c 128,-1,33
 274 973 274 973 251 952 c 128,-1,34
 228 931 228 931 209 911 c 1,35,-1
 153 980 l 1,0,1
167 590 m 1,36,37
 189 624 189 624 222 657 c 128,-1,38
 255 690 255 690 296 715 c 128,-1,39
 337 740 337 740 386.5 755.5 c 128,-1,40
 436 771 436 771 491 771 c 0,41,42
 529 771 529 771 561 757.5 c 128,-1,43
 593 744 593 744 621 723.5 c 128,-1,44
 649 703 649 703 674.5 679 c 128,-1,45
 700 655 700 655 725 634.5 c 128,-1,46
 750 614 750 614 777 600.5 c 128,-1,47
 804 587 804 587 835 587 c 0,48,49
 874 587 874 587 906.5 598 c 128,-1,50
 939 609 939 609 967 626 c 128,-1,51
 995 643 995 643 1017.5 664 c 128,-1,52
 1040 685 1040 685 1060 705 c 1,53,-1
 1115 637 l 1,54,55
 1093 602 1093 602 1060.5 569.5 c 128,-1,56
 1028 537 1028 537 987 511.5 c 128,-1,57
 946 486 946 486 896.5 470.5 c 128,-1,58
 847 455 847 455 792 455 c 0,59,60
 753 455 753 455 721.5 468.5 c 128,-1,61
 690 482 690 482 662 503 c 128,-1,62
 634 524 634 524 609 547.5 c 128,-1,63
 584 571 584 571 558.5 592 c 128,-1,64
 533 613 533 613 506 626.5 c 128,-1,65
 479 640 479 640 448 640 c 0,66,67
 409 640 409 640 376 629 c 128,-1,68
 343 618 343 618 315.5 600.5 c 128,-1,69
 288 583 288 583 265 562 c 128,-1,70
 242 541 242 541 223 521 c 1,71,-1
 167 590 l 1,36,37
EndSplineSet
EndChar

StartChar: lessequal
Encoding: 8804 8804 108
Width: 1312
Flags: W
LayerCount: 2
Fore
SplineSet
172 1012 m 1,0,-1
 1140 1443 l 1,1,-1
 1140 1313 l 1,2,-1
 349 977 l 1,3,-1
 1140 638 l 1,4,-1
 1140 508 l 1,5,-1
 172 945 l 1,6,-1
 172 1012 l 1,0,-1
172 288 m 1,7,-1
 1140 288 l 1,8,-1
 1140 177 l 1,9,-1
 172 177 l 1,10,-1
 172 288 l 1,7,-1
EndSplineSet
EndChar

StartChar: greaterequal
Encoding: 8805 8805 109
Width: 1312
Flags: W
LayerCount: 2
Fore
SplineSet
172 638 m 1,0,-1
 963 977 l 1,1,-1
 172 1313 l 1,2,-1
 172 1443 l 1,3,-1
 1140 1012 l 1,4,-1
 1140 945 l 1,5,-1
 172 508 l 1,6,-1
 172 638 l 1,0,-1
172 288 m 1,7,-1
 1140 288 l 1,8,-1
 1140 177 l 1,9,-1
 172 177 l 1,10,-1
 172 288 l 1,7,-1
EndSplineSet
EndChar

StartChar: notequal
Encoding: 8800 8800 110
Width: 1229
Flags: W
LayerCount: 2
Fore
SplineSet
476 534 m 1,0,-1
 172 534 l 1,1,-1
 172 646 l 1,2,-1
 510 646 l 1,3,-1
 591 942 l 1,4,-1
 172 942 l 1,5,-1
 172 1053 l 1,6,-1
 623 1053 l 1,7,-1
 676 1239 l 1,8,-1
 808 1239 l 1,9,-1
 755 1053 l 1,10,-1
 1057 1053 l 1,11,-1
 1057 942 l 1,12,-1
 723 942 l 1,13,-1
 642 646 l 1,14,-1
 1057 646 l 1,15,-1
 1057 534 l 1,16,-1
 609 534 l 1,17,-1
 558 354 l 1,18,-1
 426 354 l 1,19,-1
 476 534 l 1,0,-1
EndSplineSet
EndChar

StartChar: multiply
Encoding: 215 215 111
Width: 1241
Flags: W
LayerCount: 2
Fore
SplineSet
190 456 m 1,0,-1
 544 796 l 1,1,-1
 190 1137 l 1,2,-1
 280 1232 l 1,3,-1
 619 872 l 1,4,-1
 960 1232 l 1,5,-1
 1050 1137 l 1,6,-1
 696 796 l 1,7,-1
 1050 456 l 1,8,-1
 960 361 l 1,9,-1
 619 720 l 1,10,-1
 280 361 l 1,11,-1
 190 456 l 1,0,-1
EndSplineSet
EndChar

StartChar: divide
Encoding: 247 247 112
Width: 1269
Flags: W
LayerCount: 2
Fore
SplineSet
627 1080 m 0,0,1
 608 1080 608 1080 590 1086.5 c 128,-1,2
 572 1093 572 1093 558.5 1105.5 c 128,-1,3
 545 1118 545 1118 536.5 1135.5 c 128,-1,4
 528 1153 528 1153 528 1175 c 0,5,6
 528 1199 528 1199 538.5 1219.5 c 128,-1,7
 549 1240 549 1240 565.5 1255 c 128,-1,8
 582 1270 582 1270 603.5 1278.5 c 128,-1,9
 625 1287 625 1287 646 1287 c 0,10,11
 697 1287 697 1287 721 1258.5 c 128,-1,12
 745 1230 745 1230 745 1192 c 0,13,14
 745 1167 745 1167 735 1146.5 c 128,-1,15
 725 1126 725 1126 708.5 1111 c 128,-1,16
 692 1096 692 1096 670.5 1088 c 128,-1,17
 649 1080 649 1080 627 1080 c 0,0,1
172 854 m 1,18,-1
 1097 854 l 1,19,-1
 1097 743 l 1,20,-1
 172 743 l 1,21,-1
 172 854 l 1,18,-1
545 415 m 0,22,23
 548 436 548 436 559.5 453 c 128,-1,24
 571 470 571 470 587 481.5 c 128,-1,25
 603 493 603 493 622 498 c 128,-1,26
 641 503 641 503 659 501 c 0,27,28
 681 498 681 498 696 489 c 128,-1,29
 711 480 711 480 719.5 467 c 128,-1,30
 728 454 728 454 729.5 437.5 c 128,-1,31
 731 421 731 421 728 404 c 0,32,33
 725 381 725 381 714 364 c 128,-1,34
 703 347 703 347 687 336 c 128,-1,35
 671 325 671 325 651.5 320.5 c 128,-1,36
 632 316 632 316 613 318 c 0,37,38
 580 323 580 323 559.5 349.5 c 128,-1,39
 539 376 539 376 545 415 c 0,22,23
EndSplineSet
EndChar

StartChar: logicalnot
Encoding: 172 172 113
Width: 1220
Flags: W
LayerCount: 2
Fore
SplineSet
172 853 m 1,0,-1
 1048 853 l 1,1,-1
 1048 324 l 1,2,-1
 923 324 l 1,3,-1
 923 754 l 1,4,-1
 172 754 l 1,5,-1
 172 853 l 1,0,-1
EndSplineSet
EndChar

StartChar: mu
Encoding: 181 181 114
AltUni2: 0003bc.ffffffff.0
Width: 1415
Flags: W
LayerCount: 2
Fore
SplineSet
407 -402 m 1,0,-1
 264 -402 l 1,1,-1
 264 443 l 1,2,-1
 264 461 l 1,3,-1
 264 1014 l 1,4,-1
 161 1034 l 1,5,-1
 161 1094 l 1,6,-1
 377 1139 l 1,7,-1
 407 1121 l 1,8,-1
 407 441 l 2,9,10
 407 351 407 351 417 284 c 128,-1,11
 427 217 427 217 453 172.5 c 128,-1,12
 479 128 479 128 525.5 106 c 128,-1,13
 572 84 572 84 646 84 c 0,14,15
 704 84 704 84 758 100 c 128,-1,16
 812 116 812 116 856 138 c 128,-1,17
 900 160 900 160 932 182.5 c 128,-1,18
 964 205 964 205 979 219 c 1,19,-1
 979 1007 l 1,20,-1
 854 1029 l 1,21,-1
 854 1093 l 1,22,-1
 1094 1138 l 1,23,-1
 1121 1121 l 1,24,-1
 1121 71 l 1,25,-1
 1248 71 l 1,26,-1
 1248 10 l 1,27,28
 1233 4 1233 4 1213 -2.5 c 128,-1,29
 1193 -9 1193 -9 1170.5 -13.5 c 128,-1,30
 1148 -18 1148 -18 1125.5 -21 c 128,-1,31
 1103 -24 1103 -24 1085 -24 c 0,32,33
 1040 -24 1040 -24 1016 -5.5 c 128,-1,34
 992 13 992 13 992 52 c 2,35,-1
 992 142 l 1,36,37
 894 60 894 60 793 19.5 c 128,-1,38
 692 -21 692 -21 589 -21 c 0,39,40
 530 -21 530 -21 485.5 -10 c 128,-1,41
 441 1 441 1 407 21 c 1,42,-1
 407 -402 l 1,0,-1
EndSplineSet
EndChar

StartChar: Delta
Encoding: 916 916 115
AltUni2: 002206.ffffffff.0
Width: 1770
Flags: W
LayerCount: 2
Fore
SplineSet
835 1483 m 1,0,-1
 867 1483 l 1,1,-1
 1608 27 l 1,2,-1
 1592 1 l 1,3,-1
 162 1 l 1,4,-1
 148 22 l 1,5,-1
 835 1483 l 1,0,-1
1410 94 m 1,6,-1
 825 1261 l 1,7,-1
 280 94 l 1,8,-1
 1410 94 l 1,6,-1
EndSplineSet
EndChar

StartChar: fraction
Encoding: 8260 8260 116
Width: 885
Flags: W
LayerCount: 2
Fore
SplineSet
718 1881 m 1,0,-1
 818 1856 l 1,1,-1
 93 -343 l 1,2,-1
 -10 -322 l 1,3,-1
 718 1881 l 1,0,-1
EndSplineSet
EndChar

StartChar: lozenge
Encoding: 9674 9674 117
Width: 1415
Flags: W
LayerCount: 2
Fore
SplineSet
188 693 m 1,0,-1
 188 736 l 1,1,-1
 615 1416 l 1,2,-1
 756 1416 l 1,3,-1
 1177 723 l 1,4,-1
 1177 680 l 1,5,-1
 750 0 l 1,6,-1
 610 0 l 1,7,-1
 188 693 l 1,0,-1
1048 685 m 1,8,-1
 676 1318 l 1,9,-1
 318 730 l 1,10,-1
 689 97 l 1,11,-1
 1048 685 l 1,8,-1
EndSplineSet
EndChar

StartChar: Omega
Encoding: 937 937 118
AltUni2: 002126.ffffffff.0
Width: 1948
Flags: W
LayerCount: 2
Fore
SplineSet
142 335 m 1,0,-1
 218 342 l 1,1,-1
 249 136 l 1,2,-1
 615 136 l 1,3,4
 546 181 546 181 477.5 251.5 c 128,-1,5
 409 322 409 322 355 410.5 c 128,-1,6
 301 499 301 499 268.5 602 c 128,-1,7
 236 705 236 705 238 815 c 0,8,9
 241 941 241 941 269 1044.5 c 128,-1,10
 297 1148 297 1148 346 1229.5 c 128,-1,11
 395 1311 395 1311 461 1371.5 c 128,-1,12
 527 1432 527 1432 605 1471.5 c 128,-1,13
 683 1511 683 1511 769.5 1530.5 c 128,-1,14
 856 1550 856 1550 946 1550 c 0,15,16
 1093 1550 1093 1550 1216 1503 c 128,-1,17
 1339 1456 1339 1456 1427.5 1366.5 c 128,-1,18
 1516 1277 1516 1277 1564 1146.5 c 128,-1,19
 1612 1016 1612 1016 1609 848 c 0,20,21
 1607 748 1607 748 1573.5 643.5 c 128,-1,22
 1540 539 1540 539 1487.5 444 c 128,-1,23
 1435 349 1435 349 1369.5 268.5 c 128,-1,24
 1304 188 1304 188 1238 136 c 1,25,-1
 1609 136 l 1,26,-1
 1677 363 l 1,27,-1
 1753 356 l 1,28,-1
 1710 0 l 1,29,-1
 1071 0 l 1,30,-1
 1071 121 l 1,31,32
 1149 166 1149 166 1217 239.5 c 128,-1,33
 1285 313 1285 313 1336 407.5 c 128,-1,34
 1387 502 1387 502 1416.5 613.5 c 128,-1,35
 1446 725 1446 725 1446 847 c 0,36,37
 1446 1005 1446 1005 1406.5 1124.5 c 128,-1,38
 1367 1244 1367 1244 1297.5 1323.5 c 128,-1,39
 1228 1403 1228 1403 1134 1443 c 128,-1,40
 1040 1483 1040 1483 932 1483 c 0,41,42
 818 1483 818 1483 720.5 1440.5 c 128,-1,43
 623 1398 623 1398 551.5 1314.5 c 128,-1,44
 480 1231 480 1231 439.5 1106 c 128,-1,45
 399 981 399 981 399 816 c 0,46,47
 399 695 399 695 435 587 c 128,-1,48
 471 479 471 479 527.5 389.5 c 128,-1,49
 584 300 584 300 653.5 232.5 c 128,-1,50
 723 165 723 165 791 126 c 1,51,-1
 791 0 l 1,52,-1
 142 0 l 1,53,-1
 142 335 l 1,0,-1
EndSplineSet
EndChar

StartChar: radical
Encoding: 8730 8730 119
Width: 1770
Flags: W
LayerCount: 2
Fore
SplineSet
180 579 m 1,0,-1
 351 708 l 1,1,-1
 481 708 l 1,2,-1
 827 -198 l 1,3,-1
 835 -198 l 1,4,-1
 1479 1920 l 1,5,-1
 1603 1920 l 1,6,-1
 897 -354 l 1,7,-1
 757 -354 l 1,8,-1
 370 593 l 1,9,-1
 240 492 l 1,10,-1
 180 579 l 1,0,-1
EndSplineSet
EndChar

StartChar: summation
Encoding: 8721 8721 120
Width: 1592
Flags: W
LayerCount: 2
Fore
SplineSet
769 684 m 1,0,-1
 208 1485 l 1,1,-1
 218 1553 l 1,2,-1
 1284 1553 l 1,3,-1
 1316 1241 l 1,4,-1
 1235 1241 l 1,5,-1
 1183 1460 l 1,6,-1
 371 1472 l 1,7,-1
 922 706 l 1,8,-1
 365 -101 l 1,9,-1
 1191 -78 l 1,10,-1
 1278 157 l 1,11,-1
 1352 139 l 1,12,-1
 1309 -180 l 1,13,-1
 224 -179 l 1,14,-1
 208 -147 l 1,15,-1
 769 684 l 1,0,-1
EndSplineSet
EndChar

StartChar: integral
Encoding: 8747 8747 121
Width: 1063
Flags: W
LayerCount: 2
Fore
SplineSet
102 -258 m 1,0,1
 108 -277 108 -277 123.5 -294.5 c 128,-1,2
 139 -312 139 -312 161.5 -325.5 c 128,-1,3
 184 -339 184 -339 210.5 -347 c 128,-1,4
 237 -355 237 -355 265 -355 c 0,5,6
 337 -355 337 -355 383.5 -329.5 c 128,-1,7
 430 -304 430 -304 456 -257.5 c 128,-1,8
 482 -211 482 -211 492 -146 c 128,-1,9
 502 -81 502 -81 502 -1 c 0,10,11
 502 84 502 84 490.5 181 c 128,-1,12
 479 278 479 278 462 380.5 c 128,-1,13
 445 483 445 483 424.5 589.5 c 128,-1,14
 404 696 404 696 387 801.5 c 128,-1,15
 370 907 370 907 358.5 1008.5 c 128,-1,16
 347 1110 347 1110 347 1203 c 0,17,18
 347 1297 347 1297 373.5 1385 c 128,-1,19
 400 1473 400 1473 450.5 1541 c 128,-1,20
 501 1609 501 1609 574.5 1650 c 128,-1,21
 648 1691 648 1691 742 1691 c 0,22,23
 767 1691 767 1691 801 1686.5 c 128,-1,24
 835 1682 835 1682 869.5 1669 c 128,-1,25
 904 1656 904 1656 934.5 1632.5 c 128,-1,26
 965 1609 965 1609 982 1571 c 1,27,28
 953 1551 953 1551 931 1536 c 0,29,30
 911 1523 911 1523 895.5 1512 c 128,-1,31
 880 1501 880 1501 880 1502 c 0,32,33
 873 1521 873 1521 857 1538 c 128,-1,34
 841 1555 841 1555 819 1568.5 c 128,-1,35
 797 1582 797 1582 771 1590 c 128,-1,36
 745 1598 745 1598 718 1598 c 0,37,38
 646 1598 646 1598 600 1572.5 c 128,-1,39
 554 1547 554 1547 527.5 1501.5 c 128,-1,40
 501 1456 501 1456 490.5 1392 c 128,-1,41
 480 1328 480 1328 480 1251 c 0,42,43
 480 1156 480 1156 491.5 1054.5 c 128,-1,44
 503 953 503 953 520 849 c 128,-1,45
 537 745 537 745 557.5 640 c 128,-1,46
 578 535 578 535 595 432 c 128,-1,47
 612 329 612 329 623.5 230 c 128,-1,48
 635 131 635 131 635 39 c 0,49,50
 635 -57 635 -57 608 -145 c 128,-1,51
 581 -233 581 -233 530 -300.5 c 128,-1,52
 479 -368 479 -368 405.5 -408 c 128,-1,53
 332 -448 332 -448 239 -448 c 0,54,55
 214 -448 214 -448 180 -443.5 c 128,-1,56
 146 -439 146 -439 111.5 -426 c 128,-1,57
 77 -413 77 -413 47 -389.5 c 128,-1,58
 17 -366 17 -366 0 -327 c 1,59,-1
 102 -258 l 1,60,-1
 102 -258 l 1,0,1
EndSplineSet
EndChar

StartChar: pi
Encoding: 960 960 122
Width: 1592
Flags: W
LayerCount: 2
Fore
SplineSet
204 81 m 1,0,1
 213 83 213 83 227.5 87.5 c 128,-1,2
 242 92 242 92 260 99.5 c 128,-1,3
 278 107 278 107 297.5 117.5 c 128,-1,4
 317 128 317 128 336 141 c 0,5,6
 372 166 372 166 397 196.5 c 128,-1,7
 422 227 422 227 438 264 c 128,-1,8
 454 301 454 301 463 346 c 128,-1,9
 472 391 472 391 475 445 c 0,10,11
 476 460 476 460 478 495.5 c 128,-1,12
 480 531 480 531 482.5 577.5 c 128,-1,13
 485 624 485 624 487.5 678 c 128,-1,14
 490 732 490 732 492.5 785.5 c 128,-1,15
 495 839 495 839 497 887.5 c 128,-1,16
 499 936 499 936 500 971 c 1,17,-1
 425 971 l 2,18,19
 394 971 394 971 364.5 963.5 c 128,-1,20
 335 956 335 956 310 941.5 c 128,-1,21
 285 927 285 927 265.5 907 c 128,-1,22
 246 887 246 887 236 862 c 1,23,-1
 152 872 l 1,24,25
 154 889 154 889 160.5 915.5 c 128,-1,26
 167 942 167 942 182 965 c 0,27,28
 226 1038 226 1038 297 1077.5 c 128,-1,29
 368 1117 368 1117 462 1117 c 2,30,-1
 1131 1115 l 2,31,32
 1281 1115 1281 1115 1337 1228 c 1,33,-1
 1418 1228 l 1,34,35
 1411 1169 1411 1169 1385.5 1121.5 c 128,-1,36
 1360 1074 1360 1074 1319 1040 c 128,-1,37
 1278 1006 1278 1006 1224 987.5 c 128,-1,38
 1170 969 1170 969 1106 969 c 2,39,-1
 1104 969 l 1,40,41
 1101 914 1101 914 1097.5 845.5 c 128,-1,42
 1094 777 1094 777 1090.5 704 c 128,-1,43
 1087 631 1087 631 1084 559.5 c 128,-1,44
 1081 488 1081 488 1078 427.5 c 128,-1,45
 1075 367 1075 367 1073 322 c 128,-1,46
 1071 277 1071 277 1070 259 c 0,47,48
 1069 197 1069 197 1081.5 159 c 128,-1,49
 1094 121 1094 121 1119 121 c 0,50,51
 1141 121 1141 121 1163 128.5 c 128,-1,52
 1185 136 1185 136 1205 149.5 c 128,-1,53
 1225 163 1225 163 1241.5 181.5 c 128,-1,54
 1258 200 1258 200 1268 221 c 1,55,-1
 1354 221 l 1,56,57
 1346 189 1346 189 1321.5 147 c 128,-1,58
 1297 105 1297 105 1261 67.5 c 128,-1,59
 1225 30 1225 30 1178.5 4.5 c 128,-1,60
 1132 -21 1132 -21 1080 -21 c 0,61,62
 1037 -21 1037 -21 1013 2 c 128,-1,63
 989 25 989 25 978 63 c 128,-1,64
 967 101 967 101 965.5 149.5 c 128,-1,65
 964 198 964 198 967 249 c 1,66,67
 967 270 967 270 970 318 c 128,-1,68
 973 366 973 366 977 430.5 c 128,-1,69
 981 495 981 495 985.5 569.5 c 128,-1,70
 990 644 990 644 994.5 717 c 128,-1,71
 999 790 999 790 1003.5 856 c 128,-1,72
 1008 922 1008 922 1011 969 c 1,73,-1
 595 970 l 1,74,75
 593 926 593 926 591 871.5 c 128,-1,76
 589 817 589 817 586.5 759.5 c 128,-1,77
 584 702 584 702 581.5 645.5 c 128,-1,78
 579 589 579 589 577 541.5 c 128,-1,79
 575 494 575 494 573.5 458.5 c 128,-1,80
 572 423 572 423 571 409 c 0,81,82
 565 334 565 334 556.5 279 c 128,-1,83
 548 224 548 224 533 182 c 128,-1,84
 518 140 518 140 495 107 c 128,-1,85
 472 74 472 74 438 43 c 0,86,87
 412 19 412 19 380.5 3.5 c 128,-1,88
 349 -12 349 -12 314 -23 c 1,89,-1
 204 81 l 1,90,-1
 204 81 l 1,0,1
EndSplineSet
EndChar

StartChar: product
Encoding: 8719 8719 123
Width: 1415
Flags: W
LayerCount: 2
Fore
SplineSet
203 -85 m 1,0,-1
 203 1463 l 1,1,-1
 35 1478 l 1,2,-1
 35 1553 l 1,3,-1
 1327 1553 l 1,4,-1
 1327 1478 l 1,5,-1
 1162 1463 l 1,6,-1
 1162 -86 l 1,7,-1
 1338 -110 l 1,8,-1
 1338 -177 l 1,9,-1
 844 -177 l 1,10,-1
 844 -110 l 1,11,-1
 1016 -85 l 1,12,-1
 1016 1470 l 1,13,-1
 350 1470 l 1,14,-1
 350 -85 l 1,15,-1
 524 -110 l 1,16,-1
 524 -177 l 1,17,-1
 31 -177 l 1,18,-1
 31 -110 l 1,19,-1
 203 -85 l 1,0,-1
EndSplineSet
EndChar

StartChar: partialdiff
Encoding: 8706 8706 124
Width: 1241
Flags: W
LayerCount: 2
Fore
SplineSet
63 408 m 0,0,1
 63 495 63 495 88 572.5 c 128,-1,2
 113 650 113 650 157 715.5 c 128,-1,3
 201 781 201 781 262 834 c 128,-1,4
 323 887 323 887 396 923.5 c 128,-1,5
 469 960 469 960 550.5 980 c 128,-1,6
 632 1000 632 1000 718 1000 c 0,7,8
 795 1000 795 1000 862.5 986.5 c 128,-1,9
 930 973 930 973 995 941 c 1,10,11
 993 1028 993 1028 982 1110 c 128,-1,12
 971 1192 971 1192 948 1264.5 c 128,-1,13
 925 1337 925 1337 888.5 1397.5 c 128,-1,14
 852 1458 852 1458 798 1501.5 c 128,-1,15
 744 1545 744 1545 670 1569 c 128,-1,16
 596 1593 596 1593 499 1593 c 0,17,18
 418 1593 418 1593 333 1571 c 128,-1,19
 248 1549 248 1549 172 1501 c 1,20,-1
 129 1567 l 1,21,22
 172 1595 172 1595 223.5 1617.5 c 128,-1,23
 275 1640 275 1640 330.5 1656 c 128,-1,24
 386 1672 386 1672 443.5 1680 c 128,-1,25
 501 1688 501 1688 555 1688 c 0,26,27
 667 1688 667 1688 754 1660 c 128,-1,28
 841 1632 841 1632 905 1581.5 c 128,-1,29
 969 1531 969 1531 1012.5 1461 c 128,-1,30
 1056 1391 1056 1391 1083 1306.5 c 128,-1,31
 1110 1222 1110 1222 1121.5 1126 c 128,-1,32
 1133 1030 1133 1030 1133 929 c 0,33,34
 1133 819 1133 819 1120 705 c 128,-1,35
 1107 591 1107 591 1078 485.5 c 128,-1,36
 1049 380 1049 380 1001.5 287 c 128,-1,37
 954 194 954 194 885 125 c 128,-1,38
 816 56 816 56 724 16 c 128,-1,39
 632 -24 632 -24 514 -24 c 0,40,41
 417 -24 417 -24 334.5 8.5 c 128,-1,42
 252 41 252 41 191.5 99 c 128,-1,43
 131 157 131 157 97 236 c 128,-1,44
 63 315 63 315 63 408 c 0,0,1
205 449 m 0,45,46
 205 369 205 369 232.5 299.5 c 128,-1,47
 260 230 260 230 309 179 c 128,-1,48
 358 128 358 128 424 98.5 c 128,-1,49
 490 69 490 69 567 69 c 0,50,51
 640 69 640 69 697.5 93 c 128,-1,52
 755 117 755 117 800 159 c 128,-1,53
 845 201 845 201 877.5 257.5 c 128,-1,54
 910 314 910 314 932.5 378.5 c 128,-1,55
 955 443 955 443 967.5 512.5 c 128,-1,56
 980 582 980 582 986 650 c 0,57,58
 994 731 994 731 995 802 c 1,59,60
 924 855 924 855 841 880 c 128,-1,61
 758 905 758 905 667 905 c 0,62,63
 575 905 575 905 491.5 875 c 128,-1,64
 408 845 408 845 344.5 787 c 128,-1,65
 281 729 281 729 243 644 c 128,-1,66
 205 559 205 559 205 449 c 0,45,46
EndSplineSet
EndChar

StartChar: infinity
Encoding: 8734 8734 125
Width: 1770
Flags: W
LayerCount: 2
Fore
SplineSet
475 259 m 0,0,1
 391 258 391 258 324 285.5 c 128,-1,2
 257 313 257 313 210.5 359.5 c 128,-1,3
 164 406 164 406 139.5 468.5 c 128,-1,4
 115 531 115 531 115 600 c 0,5,6
 115 681 115 681 145 749.5 c 128,-1,7
 175 818 175 818 226 868.5 c 128,-1,8
 277 919 277 919 343.5 947 c 128,-1,9
 410 975 410 975 482 975 c 0,10,11
 547 975 547 975 603.5 951 c 128,-1,12
 660 927 660 927 710.5 888 c 128,-1,13
 761 849 761 849 806.5 800 c 128,-1,14
 852 751 852 751 894 701 c 1,15,16
 936 753 936 753 980 802 c 128,-1,17
 1024 851 1024 851 1072 889.5 c 128,-1,18
 1120 928 1120 928 1173 951 c 128,-1,19
 1226 974 1226 974 1287 975 c 0,20,21
 1371 976 1371 976 1436 948.5 c 128,-1,22
 1501 921 1501 921 1544.5 874.5 c 128,-1,23
 1588 828 1588 828 1610.5 765.5 c 128,-1,24
 1633 703 1633 703 1633 634 c 0,25,26
 1633 554 1633 554 1603 485 c 128,-1,27
 1573 416 1573 416 1522.5 366 c 128,-1,28
 1472 316 1472 316 1405.5 287.5 c 128,-1,29
 1339 259 1339 259 1267 259 c 0,30,31
 1201 259 1201 259 1144 283 c 128,-1,32
 1087 307 1087 307 1036.5 346 c 128,-1,33
 986 385 986 385 940.5 434 c 128,-1,34
 895 483 895 483 853 533 c 1,35,36
 812 481 812 481 770.5 432 c 128,-1,37
 729 383 729 383 684 344.5 c 128,-1,38
 639 306 639 306 587.5 283 c 128,-1,39
 536 260 536 260 475 259 c 0,0,1
491 350 m 0,40,41
 537 350 537 350 580 371 c 128,-1,42
 623 392 623 392 662 426 c 128,-1,43
 701 460 701 460 737.5 504 c 128,-1,44
 774 548 774 548 809 593 c 1,45,46
 772 639 772 639 732 690 c 128,-1,47
 692 741 692 741 649 783.5 c 128,-1,48
 606 826 606 826 558.5 853.5 c 128,-1,49
 511 881 511 881 459 881 c 0,50,51
 409 881 409 881 370 862.5 c 128,-1,52
 331 844 331 844 304 810.5 c 128,-1,53
 277 777 277 777 263 731 c 128,-1,54
 249 685 249 685 249 630 c 0,55,56
 249 571 249 571 267.5 520 c 128,-1,57
 286 469 286 469 318.5 431.5 c 128,-1,58
 351 394 351 394 395.5 372 c 128,-1,59
 440 350 440 350 491 350 c 0,40,41
938 642 m 1,60,61
 975 594 975 594 1017.5 542 c 128,-1,62
 1060 490 1060 490 1106.5 446.5 c 128,-1,63
 1153 403 1153 403 1202.5 374.5 c 128,-1,64
 1252 346 1252 346 1303 346 c 0,65,66
 1353 346 1353 346 1390 366 c 128,-1,67
 1427 386 1427 386 1451.5 420.5 c 128,-1,68
 1476 455 1476 455 1488 502.5 c 128,-1,69
 1500 550 1500 550 1500 604 c 0,70,71
 1500 661 1500 661 1483.5 711 c 128,-1,72
 1467 761 1467 761 1437 798 c 128,-1,73
 1407 835 1407 835 1364.5 856 c 128,-1,74
 1322 877 1322 877 1271 877 c 0,75,76
 1224 877 1224 877 1179.5 856.5 c 128,-1,77
 1135 836 1135 836 1093 803 c 128,-1,78
 1051 770 1051 770 1012 728 c 128,-1,79
 973 686 973 686 938 642 c 1,60,61
EndSplineSet
EndChar

StartChar: percent
Encoding: 37 37 126
Width: 1770
Flags: W
LayerCount: 2
Fore
SplineSet
1108 1601 m 1,0,-1
 1229 1601 l 1,1,-1
 656 0 l 1,2,-1
 534 0 l 1,3,-1
 1108 1601 l 1,0,-1
394 692 m 0,4,5
 323 690 323 690 267 719 c 128,-1,6
 211 748 211 748 172 797.5 c 128,-1,7
 133 847 133 847 112 913.5 c 128,-1,8
 91 980 91 980 91 1053 c 0,9,10
 91 1143 91 1143 118 1211.5 c 128,-1,11
 145 1280 145 1280 191 1327.5 c 128,-1,12
 237 1375 237 1375 297 1400 c 128,-1,13
 357 1425 357 1425 422 1427 c 0,14,15
 501 1430 501 1430 558 1401.5 c 128,-1,16
 615 1373 615 1373 652 1323 c 128,-1,17
 689 1273 689 1273 706.5 1205.5 c 128,-1,18
 724 1138 724 1138 724 1062 c 0,19,20
 724 973 724 973 697 904.5 c 128,-1,21
 670 836 670 836 624 789.5 c 128,-1,22
 578 743 578 743 518.5 718.5 c 128,-1,23
 459 694 459 694 394 692 c 0,4,5
403 773 m 0,24,25
 497 773 497 773 551 847 c 128,-1,26
 605 921 605 921 605 1055 c 0,27,28
 605 1121 605 1121 592.5 1175 c 128,-1,29
 580 1229 580 1229 556 1267.5 c 128,-1,30
 532 1306 532 1306 496 1327 c 128,-1,31
 460 1348 460 1348 414 1348 c 0,32,33
 367 1348 367 1348 329.5 1328 c 128,-1,34
 292 1308 292 1308 266 1270.5 c 128,-1,35
 240 1233 240 1233 226 1180 c 128,-1,36
 212 1127 212 1127 212 1061 c 0,37,38
 212 998 212 998 224.5 945.5 c 128,-1,39
 237 893 237 893 261 854.5 c 128,-1,40
 285 816 285 816 320.5 794.5 c 128,-1,41
 356 773 356 773 403 773 c 0,24,25
1045 525 m 0,42,43
 1045 615 1045 615 1072 683.5 c 128,-1,44
 1099 752 1099 752 1145 799.5 c 128,-1,45
 1191 847 1191 847 1251 872 c 128,-1,46
 1311 897 1311 897 1376 899 c 0,47,48
 1455 902 1455 902 1512 873.5 c 128,-1,49
 1569 845 1569 845 1606 795 c 128,-1,50
 1643 745 1643 745 1660.5 677.5 c 128,-1,51
 1678 610 1678 610 1678 534 c 0,52,53
 1678 445 1678 445 1651 376.5 c 128,-1,54
 1624 308 1624 308 1578 261.5 c 128,-1,55
 1532 215 1532 215 1472.5 190.5 c 128,-1,56
 1413 166 1413 166 1348 164 c 0,57,58
 1277 162 1277 162 1221 191 c 128,-1,59
 1165 220 1165 220 1126 269.5 c 128,-1,60
 1087 319 1087 319 1066 385.5 c 128,-1,61
 1045 452 1045 452 1045 525 c 0,42,43
1165 533 m 0,62,63
 1165 470 1165 470 1177.5 417.5 c 128,-1,64
 1190 365 1190 365 1214 326.5 c 128,-1,65
 1238 288 1238 288 1273.5 266.5 c 128,-1,66
 1309 245 1309 245 1356 245 c 0,67,68
 1402 245 1402 245 1439 264 c 128,-1,69
 1476 283 1476 283 1502.5 319 c 128,-1,70
 1529 355 1529 355 1543.5 407.5 c 128,-1,71
 1558 460 1558 460 1558 527 c 0,72,73
 1558 593 1558 593 1545.5 647 c 128,-1,74
 1533 701 1533 701 1509 739.5 c 128,-1,75
 1485 778 1485 778 1449 799 c 128,-1,76
 1413 820 1413 820 1367 820 c 0,77,78
 1320 820 1320 820 1282.5 800 c 128,-1,79
 1245 780 1245 780 1219 742.5 c 128,-1,80
 1193 705 1193 705 1179 652 c 128,-1,81
 1165 599 1165 599 1165 533 c 0,62,63
EndSplineSet
EndChar

StartChar: perthousand
Encoding: 8240 8240 127
Width: 2548
Flags: W
LayerCount: 2
Fore
SplineSet
1108 1601 m 1,0,-1
 1229 1601 l 1,1,-1
 656 0 l 1,2,-1
 534 0 l 1,3,-1
 1108 1601 l 1,0,-1
394 692 m 0,4,5
 323 690 323 690 267 719 c 128,-1,6
 211 748 211 748 172 797.5 c 128,-1,7
 133 847 133 847 112 913.5 c 128,-1,8
 91 980 91 980 91 1053 c 0,9,10
 91 1143 91 1143 118 1211.5 c 128,-1,11
 145 1280 145 1280 191 1327.5 c 128,-1,12
 237 1375 237 1375 297 1400 c 128,-1,13
 357 1425 357 1425 422 1427 c 0,14,15
 501 1430 501 1430 558 1401.5 c 128,-1,16
 615 1373 615 1373 652 1323 c 128,-1,17
 689 1273 689 1273 706.5 1205.5 c 128,-1,18
 724 1138 724 1138 724 1062 c 0,19,20
 724 973 724 973 697 904.5 c 128,-1,21
 670 836 670 836 624 789.5 c 128,-1,22
 578 743 578 743 518.5 718.5 c 128,-1,23
 459 694 459 694 394 692 c 0,4,5
403 773 m 0,24,25
 497 773 497 773 551 847 c 128,-1,26
 605 921 605 921 605 1055 c 0,27,28
 605 1121 605 1121 592.5 1175 c 128,-1,29
 580 1229 580 1229 556 1267.5 c 128,-1,30
 532 1306 532 1306 496 1327 c 128,-1,31
 460 1348 460 1348 414 1348 c 0,32,33
 367 1348 367 1348 329.5 1328 c 128,-1,34
 292 1308 292 1308 266 1270.5 c 128,-1,35
 240 1233 240 1233 226 1180 c 128,-1,36
 212 1127 212 1127 212 1061 c 0,37,38
 212 998 212 998 224.5 945.5 c 128,-1,39
 237 893 237 893 261 854.5 c 128,-1,40
 285 816 285 816 320.5 794.5 c 128,-1,41
 356 773 356 773 403 773 c 0,24,25
1823 525 m 0,42,43
 1823 615 1823 615 1850 683.5 c 128,-1,44
 1877 752 1877 752 1923 799.5 c 128,-1,45
 1969 847 1969 847 2029 872 c 128,-1,46
 2089 897 2089 897 2154 899 c 0,47,48
 2233 902 2233 902 2290 873.5 c 128,-1,49
 2347 845 2347 845 2384 795 c 128,-1,50
 2421 745 2421 745 2438.5 677.5 c 128,-1,51
 2456 610 2456 610 2456 534 c 0,52,53
 2456 445 2456 445 2429 376.5 c 128,-1,54
 2402 308 2402 308 2356 261.5 c 128,-1,55
 2310 215 2310 215 2250.5 190.5 c 128,-1,56
 2191 166 2191 166 2126 164 c 0,57,58
 2055 162 2055 162 1999 191 c 128,-1,59
 1943 220 1943 220 1904 269.5 c 128,-1,60
 1865 319 1865 319 1844 385.5 c 128,-1,61
 1823 452 1823 452 1823 525 c 0,42,43
1045 525 m 0,62,63
 1045 615 1045 615 1072 683.5 c 128,-1,64
 1099 752 1099 752 1145 799.5 c 128,-1,65
 1191 847 1191 847 1251 872 c 128,-1,66
 1311 897 1311 897 1376 899 c 0,67,68
 1455 902 1455 902 1512 873.5 c 128,-1,69
 1569 845 1569 845 1606 795 c 128,-1,70
 1643 745 1643 745 1660.5 677.5 c 128,-1,71
 1678 610 1678 610 1678 534 c 0,72,73
 1678 445 1678 445 1651 376.5 c 128,-1,74
 1624 308 1624 308 1578 261.5 c 128,-1,75
 1532 215 1532 215 1472.5 190.5 c 128,-1,76
 1413 166 1413 166 1348 164 c 0,77,78
 1277 162 1277 162 1221 191 c 128,-1,79
 1165 220 1165 220 1126 269.5 c 128,-1,80
 1087 319 1087 319 1066 385.5 c 128,-1,81
 1045 452 1045 452 1045 525 c 0,62,63
1944 533 m 0,82,83
 1944 470 1944 470 1956.5 417.5 c 128,-1,84
 1969 365 1969 365 1993 326.5 c 128,-1,85
 2017 288 2017 288 2052.5 266.5 c 128,-1,86
 2088 245 2088 245 2135 245 c 0,87,88
 2227 245 2227 245 2281.5 319 c 128,-1,89
 2336 393 2336 393 2336 527 c 0,90,91
 2336 593 2336 593 2323.5 647 c 128,-1,92
 2311 701 2311 701 2287 739.5 c 128,-1,93
 2263 778 2263 778 2227.5 799 c 128,-1,94
 2192 820 2192 820 2146 820 c 0,95,96
 2099 820 2099 820 2061.5 800 c 128,-1,97
 2024 780 2024 780 1998 742.5 c 128,-1,98
 1972 705 1972 705 1958 652 c 128,-1,99
 1944 599 1944 599 1944 533 c 0,82,83
1165 533 m 0,100,101
 1165 470 1165 470 1177.5 417.5 c 128,-1,102
 1190 365 1190 365 1214 326.5 c 128,-1,103
 1238 288 1238 288 1273.5 266.5 c 128,-1,104
 1309 245 1309 245 1356 245 c 0,105,106
 1402 245 1402 245 1439 264 c 128,-1,107
 1476 283 1476 283 1502.5 319 c 128,-1,108
 1529 355 1529 355 1543.5 407.5 c 128,-1,109
 1558 460 1558 460 1558 527 c 0,110,111
 1558 593 1558 593 1545.5 647 c 128,-1,112
 1533 701 1533 701 1509 739.5 c 128,-1,113
 1485 778 1485 778 1449 799 c 128,-1,114
 1413 820 1413 820 1367 820 c 0,115,116
 1320 820 1320 820 1282.5 800 c 128,-1,117
 1245 780 1245 780 1219 742.5 c 128,-1,118
 1193 705 1193 705 1179 652 c 128,-1,119
 1165 599 1165 599 1165 533 c 0,100,101
EndSplineSet
EndChar

StartChar: numbersign
Encoding: 35 35 128
Width: 1431
Flags: W
LayerCount: 2
Fore
SplineSet
375 365 m 1,0,-1
 150 365 l 1,1,-1
 150 463 l 1,2,-1
 379 463 l 1,3,-1
 419 928 l 1,4,-1
 172 928 l 1,5,-1
 172 1025 l 1,6,-1
 425 1025 l 1,7,-1
 455 1355 l 1,8,-1
 582 1355 l 1,9,-1
 555 1025 l 1,10,-1
 933 1025 l 1,11,-1
 962 1355 l 1,12,-1
 1089 1355 l 1,13,-1
 1061 1025 l 1,14,-1
 1281 1025 l 1,15,-1
 1281 928 l 1,16,-1
 1055 928 l 1,17,-1
 1014 463 l 1,18,-1
 1246 463 l 1,19,20
 1246 441 1246 441 1246.5 414 c 128,-1,21
 1247 387 1247 387 1247 365 c 1,22,-1
 1010 365 l 1,23,-1
 976 0 l 1,24,-1
 854 0 l 1,25,-1
 882 365 l 1,26,-1
 503 365 l 1,27,-1
 467 0 l 1,28,-1
 343 0 l 1,29,-1
 375 365 l 1,0,-1
886 463 m 1,30,-1
 926 928 l 1,31,-1
 549 928 l 1,32,-1
 508 463 l 1,33,-1
 886 463 l 1,30,-1
EndSplineSet
EndChar

StartChar: asterisk
Encoding: 42 42 129
Width: 1295
Flags: W
LayerCount: 2
Fore
SplineSet
597 1132 m 1,0,-1
 616 1239 l 1,1,-1
 546 1175 l 1,2,-1
 240 945 l 1,3,-1
 164 1052 l 1,4,-1
 505 1241 l 1,5,-1
 594 1278 l 1,6,-1
 504 1316 l 1,7,-1
 164 1501 l 1,8,-1
 237 1609 l 1,9,-1
 541 1384 l 1,10,-1
 616 1317 l 1,11,-1
 597 1434 l 1,12,-1
 573 1786 l 1,13,14
 605 1786 605 1786 642.5 1785.5 c 128,-1,15
 680 1785 680 1785 711 1785 c 1,16,-1
 687 1434 l 1,17,-1
 664 1317 l 1,18,-1
 757 1395 l 1,19,-1
 1046 1608 l 1,20,-1
 1130 1501 l 1,21,-1
 788 1322 l 1,22,-1
 685 1278 l 1,23,-1
 786 1237 l 1,24,-1
 1131 1050 l 1,25,-1
 1045 947 l 1,26,-1
 745 1172 l 1,27,-1
 665 1239 l 1,28,-1
 685 1132 l 1,29,-1
 711 768 l 1,30,-1
 573 768 l 1,31,-1
 597 1132 l 1,0,-1
EndSplineSet
EndChar

StartChar: endash
Encoding: 8211 8211 130
Width: 1407
Flags: W
LayerCount: 2
Fore
SplineSet
172 854 m 1,0,-1
 1235 854 l 1,1,-1
 1235 743 l 1,2,-1
 172 743 l 1,3,-1
 172 854 l 1,0,-1
EndSplineSet
EndChar

StartChar: emdash
Encoding: 8212 8212 131
Width: 2392
Flags: W
LayerCount: 2
Fore
SplineSet
172 854 m 1,0,-1
 2220 854 l 1,1,-1
 2220 743 l 1,2,-1
 172 743 l 1,3,-1
 172 854 l 1,0,-1
EndSplineSet
EndChar

StartChar: slash
Encoding: 47 47 132
Width: 816
Flags: W
LayerCount: 2
Fore
SplineSet
582 1599 m 1,0,-1
 719 1599 l 1,1,-1
 167 -363 l 1,2,-1
 30 -363 l 1,3,-1
 582 1599 l 1,0,-1
EndSplineSet
EndChar

StartChar: backslash
Encoding: 92 92 133
Width: 816
Flags: W
LayerCount: 2
Fore
SplineSet
30 1599 m 1,0,-1
 167 1599 l 1,1,-1
 719 -363 l 1,2,-1
 582 -363 l 1,3,-1
 30 1599 l 1,0,-1
EndSplineSet
EndChar

StartChar: bar
Encoding: 124 124 134
Width: 873
Flags: W
LayerCount: 2
Fore
SplineSet
358 1780 m 1,0,-1
 489 1780 l 1,1,-1
 489 -186 l 1,2,-1
 358 -186 l 1,3,-1
 358 1780 l 1,0,-1
EndSplineSet
EndChar

StartChar: brokenbar
Encoding: 166 166 135
Width: 873
Flags: W
LayerCount: 2
Fore
SplineSet
358 1780 m 1,0,-1
 489 1780 l 1,1,-1
 489 886 l 1,2,-1
 358 886 l 1,3,-1
 358 1780 l 1,0,-1
358 708 m 1,4,-1
 489 708 l 1,5,-1
 489 -186 l 1,6,-1
 358 -186 l 1,7,-1
 358 708 l 1,4,-1
EndSplineSet
EndChar

StartChar: dagger
Encoding: 8224 8224 136
Width: 923
Flags: W
LayerCount: 2
Fore
SplineSet
394 1001 m 1,0,-1
 399 1153 l 1,1,-1
 92 1148 l 1,2,-1
 93 1262 l 1,3,-1
 410 1257 l 1,4,-1
 394 1479 l 1,5,-1
 390 1648 l 1,6,-1
 532 1648 l 1,7,-1
 528 1479 l 1,8,-1
 512 1257 l 1,9,-1
 830 1262 l 1,10,-1
 830 1148 l 1,11,-1
 524 1153 l 1,12,-1
 528 1001 l 1,13,-1
 499 283 l 1,14,-1
 424 283 l 1,15,-1
 394 1001 l 1,0,-1
EndSplineSet
EndChar

StartChar: daggerdbl
Encoding: 8225 8225 137
Width: 923
Flags: W
LayerCount: 2
Fore
SplineSet
399 538 m 1,0,-1
 92 533 l 1,1,-1
 92 645 l 1,2,-1
 410 641 l 1,3,-1
 394 999 l 1,4,-1
 399 1153 l 1,5,-1
 92 1148 l 1,6,-1
 92 1262 l 1,7,-1
 410 1257 l 1,8,-1
 394 1479 l 1,9,-1
 390 1648 l 1,10,-1
 532 1648 l 1,11,-1
 528 1479 l 1,12,-1
 512 1257 l 1,13,-1
 830 1262 l 1,14,-1
 830 1148 l 1,15,-1
 523 1153 l 1,16,-1
 529 999 l 1,17,-1
 512 641 l 1,18,-1
 830 645 l 1,19,-1
 830 533 l 1,20,-1
 523 538 l 1,21,-1
 529 352 l 1,22,-1
 497 -366 l 1,23,-1
 426 -366 l 1,24,-1
 393 352 l 1,25,-1
 399 538 l 1,0,-1
EndSplineSet
EndChar

StartChar: paragraph
Encoding: 182 182 138
Width: 1346
Flags: W
LayerCount: 2
Fore
SplineSet
356 67 m 1,0,-1
 555 91 l 1,1,-1
 555 683 l 1,2,3
 450 683 450 683 368.5 709.5 c 128,-1,4
 287 736 287 736 231.5 791.5 c 128,-1,5
 176 847 176 847 147 932 c 128,-1,6
 118 1017 118 1017 118 1134 c 0,7,8
 118 1232 118 1232 148.5 1312.5 c 128,-1,9
 179 1393 179 1393 242 1450 c 128,-1,10
 305 1507 305 1507 402.5 1538.5 c 128,-1,11
 500 1570 500 1570 634 1570 c 0,12,13
 668 1570 668 1570 723.5 1568 c 128,-1,14
 779 1566 779 1566 840.5 1563 c 128,-1,15
 902 1560 902 1560 961.5 1557 c 128,-1,16
 1021 1554 1021 1554 1063 1553 c 1,17,-1
 1234 1553 l 1,18,-1
 1234 1475 l 1,19,-1
 1062 1450 l 1,20,-1
 1062 91 l 1,21,-1
 1217 67 l 1,22,-1
 1217 0 l 1,23,-1
 934 0 l 1,24,-1
 932 1450 l 1,25,26
 926 1450 926 1450 907.5 1450.5 c 128,-1,27
 889 1451 889 1451 863.5 1452 c 128,-1,28
 838 1453 838 1453 809 1453.5 c 128,-1,29
 780 1454 780 1454 754 1454 c 128,-1,30
 728 1454 728 1454 708 1454 c 128,-1,31
 688 1454 688 1454 681 1454 c 1,32,-1
 681 0 l 1,33,-1
 356 0 l 1,34,-1
 356 67 l 1,0,-1
EndSplineSet
EndChar

StartChar: braceleft
Encoding: 123 123 139
Width: 1013
Flags: W
LayerCount: 2
Fore
SplineSet
347 576 m 2,0,1
 347 595 347 595 319.5 618 c 128,-1,2
 292 641 292 641 252 662.5 c 128,-1,3
 212 684 212 684 168 702 c 128,-1,4
 124 720 124 720 90 729 c 1,5,-1
 90 826 l 1,6,7
 123 835 123 835 167.5 850.5 c 128,-1,8
 212 866 212 866 251.5 885 c 128,-1,9
 291 904 291 904 319 925 c 128,-1,10
 347 946 347 946 347 966 c 2,11,-1
 347 1490 l 2,12,13
 347 1558 347 1558 353 1601 c 128,-1,14
 359 1644 359 1644 377 1668 c 128,-1,15
 395 1692 395 1692 427 1701 c 128,-1,16
 459 1710 459 1710 512 1710 c 0,17,18
 553 1710 553 1710 586 1707 c 128,-1,19
 619 1704 619 1704 648.5 1699 c 128,-1,20
 678 1694 678 1694 705.5 1688 c 128,-1,21
 733 1682 733 1682 763 1676 c 1,22,23
 763 1661 763 1661 762.5 1642.5 c 128,-1,24
 762 1624 762 1624 762 1609 c 1,25,-1
 471 1609 l 1,26,-1
 471 969 l 2,27,28
 471 929 471 929 449 902.5 c 128,-1,29
 427 876 427 876 392 854 c 1,30,31
 353 831 353 831 316 813.5 c 128,-1,32
 279 796 279 796 235 776 c 1,33,34
 283 753 283 753 324.5 731.5 c 128,-1,35
 366 710 366 710 406 681 c 1,36,37
 435 658 435 658 453 632 c 128,-1,38
 471 606 471 606 471 573 c 2,39,-1
 471 -75 l 1,40,-1
 762 -75 l 1,41,42
 762 -90 762 -90 762.5 -109.5 c 128,-1,43
 763 -129 763 -129 763 -143 c 1,44,45
 731 -150 731 -150 701 -156.5 c 128,-1,46
 671 -163 671 -163 639.5 -167.5 c 128,-1,47
 608 -172 608 -172 573.5 -175 c 128,-1,48
 539 -178 539 -178 498 -178 c 0,49,50
 451 -178 451 -178 421.5 -169 c 128,-1,51
 392 -160 392 -160 375.5 -136 c 128,-1,52
 359 -112 359 -112 353 -68.5 c 128,-1,53
 347 -25 347 -25 347 44 c 2,54,-1
 347 576 l 2,0,1
EndSplineSet
EndChar

StartChar: braceright
Encoding: 125 125 140
Width: 961
Flags: W
LayerCount: 2
Fore
SplineSet
490 -75 m 1,0,-1
 490 573 l 2,1,2
 490 606 490 606 508 632 c 128,-1,3
 526 658 526 658 555 681 c 1,4,5
 595 710 595 710 636 732 c 128,-1,6
 677 754 677 754 725 776 c 1,7,8
 682 796 682 796 644.5 813.5 c 128,-1,9
 607 831 607 831 569 854 c 0,10,11
 534 876 534 876 512 902.5 c 128,-1,12
 490 929 490 929 490 969 c 2,13,-1
 490 1609 l 1,14,-1
 199 1609 l 1,15,16
 199 1624 199 1624 198.5 1642.5 c 128,-1,17
 198 1661 198 1661 198 1676 c 1,18,19
 228 1682 228 1682 256 1688 c 128,-1,20
 284 1694 284 1694 313.5 1699 c 128,-1,21
 343 1704 343 1704 376 1707 c 128,-1,22
 409 1710 409 1710 450 1710 c 0,23,24
 502 1710 502 1710 534.5 1701 c 128,-1,25
 567 1692 567 1692 584.5 1668 c 128,-1,26
 602 1644 602 1644 608 1601 c 128,-1,27
 614 1558 614 1558 614 1490 c 2,28,-1
 614 966 l 2,29,30
 614 946 614 946 642 925 c 128,-1,31
 670 904 670 904 709.5 885 c 128,-1,32
 749 866 749 866 793.5 850.5 c 128,-1,33
 838 835 838 835 871 826 c 1,34,-1
 871 729 l 1,35,36
 838 720 838 720 793.5 702 c 128,-1,37
 749 684 749 684 709 662.5 c 128,-1,38
 669 641 669 641 641.5 618 c 128,-1,39
 614 595 614 595 614 576 c 2,40,-1
 614 44 l 2,41,42
 614 -25 614 -25 608 -68.5 c 128,-1,43
 602 -112 602 -112 585.5 -136 c 128,-1,44
 569 -160 569 -160 539.5 -169 c 128,-1,45
 510 -178 510 -178 463 -178 c 0,46,47
 422 -178 422 -178 387.5 -175 c 128,-1,48
 353 -172 353 -172 321.5 -167.5 c 128,-1,49
 290 -163 290 -163 260 -156.5 c 128,-1,50
 230 -150 230 -150 198 -143 c 1,51,52
 198 -129 198 -129 198.5 -109.5 c 128,-1,53
 199 -90 199 -90 199 -75 c 1,54,-1
 490 -75 l 1,0,-1
EndSplineSet
EndChar

StartChar: parenleft
Encoding: 40 40 141
Width: 813
Flags: W
LayerCount: 2
Fore
SplineSet
587 -294 m 1,0,1
 564 -280 564 -280 520 -244.5 c 128,-1,2
 476 -209 476 -209 423 -150.5 c 128,-1,3
 370 -92 370 -92 315.5 -8.5 c 128,-1,4
 261 75 261 75 216 185 c 128,-1,5
 171 295 171 295 142.5 432 c 128,-1,6
 114 569 114 569 114 735 c 0,7,8
 114 880 114 880 143 1007 c 128,-1,9
 172 1134 172 1134 217.5 1241 c 128,-1,10
 263 1348 263 1348 318.5 1433.5 c 128,-1,11
 374 1519 374 1519 427.5 1582 c 128,-1,12
 481 1645 481 1645 525.5 1683.5 c 128,-1,13
 570 1722 570 1722 593 1735 c 1,14,-1
 662 1694 l 1,15,16
 640 1680 640 1680 602.5 1644.5 c 128,-1,17
 565 1609 565 1609 521 1552.5 c 128,-1,18
 477 1496 477 1496 431.5 1419.5 c 128,-1,19
 386 1343 386 1343 347.5 1246.5 c 128,-1,20
 309 1150 309 1150 283.5 1034 c 128,-1,21
 258 918 258 918 254 784 c 0,22,23
 250 628 250 628 272 495 c 128,-1,24
 294 362 294 362 331.5 253 c 128,-1,25
 369 144 369 144 417 59 c 128,-1,26
 465 -26 465 -26 512.5 -88.5 c 128,-1,27
 560 -151 560 -151 601 -190.5 c 128,-1,28
 642 -230 642 -230 666 -246 c 1,29,-1
 587 -294 l 1,30,-1
 587 -294 l 1,0,1
EndSplineSet
EndChar

StartChar: parenright
Encoding: 41 41 142
Width: 813
Flags: W
LayerCount: 2
Fore
SplineSet
151 -256 m 1,0,1
 173 -242 173 -242 210.5 -206.5 c 128,-1,2
 248 -171 248 -171 292 -114.5 c 128,-1,3
 336 -58 336 -58 382 19 c 128,-1,4
 428 96 428 96 466 192.5 c 128,-1,5
 504 289 504 289 529.5 404.5 c 128,-1,6
 555 520 555 520 559 655 c 0,7,8
 564 811 564 811 542 943.5 c 128,-1,9
 520 1076 520 1076 482 1185 c 128,-1,10
 444 1294 444 1294 396.5 1379.5 c 128,-1,11
 349 1465 349 1465 301.5 1527 c 128,-1,12
 254 1589 254 1589 212.5 1628 c 128,-1,13
 171 1667 171 1667 147 1684 c 1,14,-1
 227 1732 l 1,15,16
 250 1718 250 1718 294 1683 c 128,-1,17
 338 1648 338 1648 390.5 1589 c 128,-1,18
 443 1530 443 1530 498 1446.5 c 128,-1,19
 553 1363 553 1363 597.5 1253.5 c 128,-1,20
 642 1144 642 1144 670.5 1007 c 128,-1,21
 699 870 699 870 699 704 c 0,22,23
 699 559 699 559 670 432 c 128,-1,24
 641 305 641 305 595.5 198 c 128,-1,25
 550 91 550 91 494.5 5.5 c 128,-1,26
 439 -80 439 -80 386 -143 c 128,-1,27
 333 -206 333 -206 288.5 -244.5 c 128,-1,28
 244 -283 244 -283 221 -296 c 1,29,-1
 151 -256 l 1,30,-1
 151 -256 l 1,0,1
EndSplineSet
EndChar

StartChar: bracketleft
Encoding: 91 91 143
Width: 855
Flags: W
LayerCount: 2
Fore
SplineSet
200 1488 m 2,0,1
 200 1557 200 1557 206 1600 c 128,-1,2
 212 1643 212 1643 230 1667.5 c 128,-1,3
 248 1692 248 1692 280.5 1700.5 c 128,-1,4
 313 1709 313 1709 365 1709 c 0,5,6
 432 1709 432 1709 495.5 1698.5 c 128,-1,7
 559 1688 559 1688 617 1676 c 1,8,9
 617 1661 617 1661 616.5 1642.5 c 128,-1,10
 616 1624 616 1624 616 1609 c 1,11,-1
 325 1609 l 1,12,-1
 325 -75 l 1,13,-1
 616 -77 l 1,14,15
 616 -91 616 -91 616.5 -110 c 128,-1,16
 617 -129 617 -129 617 -143 c 1,17,18
 551 -158 551 -158 484.5 -168 c 128,-1,19
 418 -178 418 -178 346 -178 c 0,20,21
 301 -178 301 -178 272.5 -169 c 128,-1,22
 244 -160 244 -160 228 -136.5 c 128,-1,23
 212 -113 212 -113 206 -73.5 c 128,-1,24
 200 -34 200 -34 200 27 c 2,25,-1
 200 1488 l 2,0,1
EndSplineSet
EndChar

StartChar: bracketright
Encoding: 93 93 144
Width: 858
Flags: W
LayerCount: 2
Fore
SplineSet
530 -75 m 1,0,-1
 530 1609 l 1,1,-1
 239 1609 l 1,2,3
 239 1624 239 1624 238.5 1642.5 c 128,-1,4
 238 1661 238 1661 238 1676 c 1,5,6
 296 1688 296 1688 359 1698.5 c 128,-1,7
 422 1709 422 1709 490 1709 c 0,8,9
 542 1709 542 1709 574 1700.5 c 128,-1,10
 606 1692 606 1692 624 1667.5 c 128,-1,11
 642 1643 642 1643 648 1600 c 128,-1,12
 654 1557 654 1557 654 1488 c 2,13,-1
 654 27 l 2,14,15
 654 -34 654 -34 648 -73.5 c 128,-1,16
 642 -113 642 -113 626 -136.5 c 128,-1,17
 610 -160 610 -160 581.5 -169 c 128,-1,18
 553 -178 553 -178 508 -178 c 0,19,20
 436 -178 436 -178 370 -168 c 128,-1,21
 304 -158 304 -158 238 -143 c 1,22,23
 238 -129 238 -129 238.5 -110 c 128,-1,24
 239 -91 239 -91 239 -77 c 1,25,-1
 530 -75 l 1,0,-1
EndSplineSet
EndChar

StartChar: currency
Encoding: 164 164 145
Width: 1436
Flags: W
LayerCount: 2
Fore
SplineSet
416 450 m 1,0,1
 376 499 376 499 353.5 560 c 128,-1,2
 331 621 331 621 331 690 c 0,3,4
 331 757 331 757 352.5 816.5 c 128,-1,5
 374 876 374 876 412 924 c 1,6,-1
 235 1102 l 1,7,-1
 302 1169 l 1,8,-1
 480 991 l 1,9,10
 528 1028 528 1028 586.5 1048.5 c 128,-1,11
 645 1069 645 1069 711 1069 c 0,12,13
 781 1069 781 1069 843.5 1045.5 c 128,-1,14
 906 1022 906 1022 956 980 c 1,15,-1
 1134 1157 l 1,16,-1
 1201 1090 l 1,17,-1
 1020 909 l 1,18,19
 1053 862 1053 862 1072 807 c 128,-1,20
 1091 752 1091 752 1091 690 c 0,21,22
 1091 624 1091 624 1070 564.5 c 128,-1,23
 1049 505 1049 505 1011 457 c 1,24,-1
 1189 281 l 1,25,-1
 1121 214 l 1,26,-1
 944 391 l 1,27,28
 895 353 895 353 836 332 c 128,-1,29
 777 311 777 311 711 311 c 0,30,31
 647 311 647 311 590 330 c 128,-1,32
 533 349 533 349 485 384 c 1,33,-1
 308 207 l 1,34,-1
 241 274 l 1,35,-1
 416 450 l 1,0,1
442 690 m 256,36,37
 442 632 442 632 463 581 c 128,-1,38
 484 530 484 530 520.5 491.5 c 128,-1,39
 557 453 557 453 606 431 c 128,-1,40
 655 409 655 409 711 409 c 0,41,42
 766 409 766 409 815 431 c 128,-1,43
 864 453 864 453 901 491.5 c 128,-1,44
 938 530 938 530 959 581 c 128,-1,45
 980 632 980 632 980 690 c 256,46,47
 980 748 980 748 959 799 c 128,-1,48
 938 850 938 850 901 888 c 128,-1,49
 864 926 864 926 815 948.5 c 128,-1,50
 766 971 766 971 711 971 c 0,51,52
 655 971 655 971 606 948.5 c 128,-1,53
 557 926 557 926 520.5 888 c 128,-1,54
 484 850 484 850 463 799 c 128,-1,55
 442 748 442 748 442 690 c 256,36,37
EndSplineSet
EndChar

StartChar: dollar
Encoding: 36 36 146
Width: 1270
Flags: W
LayerCount: 2
Fore
SplineSet
174 362 m 1,0,-1
 247 362 l 1,1,-1
 294 158 l 1,2,3
 325 128 325 128 368 108.5 c 128,-1,4
 411 89 411 89 458.5 77.5 c 128,-1,5
 506 66 506 66 555.5 61.5 c 128,-1,6
 605 57 605 57 649 57 c 0,7,8
 713 57 713 57 777 73 c 128,-1,9
 841 89 841 89 892.5 124 c 128,-1,10
 944 159 944 159 976 216 c 128,-1,11
 1008 273 1008 273 1008 355 c 0,12,13
 1008 424 1008 424 974.5 478 c 128,-1,14
 941 532 941 532 886 576.5 c 128,-1,15
 831 621 831 621 760.5 659 c 128,-1,16
 690 697 690 697 615 733 c 0,17,18
 535 772 535 772 458 814.5 c 128,-1,19
 381 857 381 857 320.5 909 c 128,-1,20
 260 961 260 961 222 1026.5 c 128,-1,21
 184 1092 184 1092 184 1177 c 0,22,23
 184 1272 184 1272 222.5 1341.5 c 128,-1,24
 261 1411 261 1411 322.5 1457.5 c 128,-1,25
 384 1504 384 1504 459 1529.5 c 128,-1,26
 534 1555 534 1555 608 1562 c 1,27,-1
 614 1731 l 1,28,-1
 734 1731 l 1,29,-1
 728 1565 l 1,30,31
 792 1562 792 1562 843.5 1554 c 128,-1,32
 895 1546 895 1546 935 1535 c 128,-1,33
 975 1524 975 1524 1004.5 1511.5 c 128,-1,34
 1034 1499 1034 1499 1054 1487 c 1,35,-1
 1054 1220 l 1,36,-1
 986 1220 l 1,37,-1
 927 1419 l 1,38,39
 883 1457 883 1457 810 1473 c 128,-1,40
 737 1489 737 1489 657 1488 c 0,41,42
 603 1488 603 1488 543.5 1472.5 c 128,-1,43
 484 1457 484 1457 434.5 1423 c 128,-1,44
 385 1389 385 1389 353 1334 c 128,-1,45
 321 1279 321 1279 321 1200 c 0,46,47
 321 1137 321 1137 352 1086.5 c 128,-1,48
 383 1036 383 1036 434 994.5 c 128,-1,49
 485 953 485 953 551.5 918 c 128,-1,50
 618 883 618 883 689 849 c 0,51,52
 744 823 744 823 799 795 c 128,-1,53
 854 767 854 767 905 736 c 128,-1,54
 956 705 956 705 1000 670 c 128,-1,55
 1044 635 1044 635 1076.5 593.5 c 128,-1,56
 1109 552 1109 552 1127.5 502.5 c 128,-1,57
 1146 453 1146 453 1146 394 c 0,58,59
 1146 290 1146 290 1109.5 214.5 c 128,-1,60
 1073 139 1073 139 1009.5 88.5 c 128,-1,61
 946 38 946 38 861 11 c 128,-1,62
 776 -16 776 -16 679 -21 c 1,63,-1
 672 -231 l 1,64,-1
 552 -231 l 1,65,-1
 558 -21 l 1,66,67
 493 -17 493 -17 432 -8 c 128,-1,68
 371 1 371 1 320 13 c 128,-1,69
 269 25 269 25 231 38 c 128,-1,70
 193 51 193 51 174 63 c 1,71,-1
 174 362 l 1,0,-1
EndSplineSet
EndChar

StartChar: cent
Encoding: 162 162 147
Width: 1114
Flags: W
LayerCount: 2
Fore
SplineSet
516 -14 m 1,0,1
 422 1 422 1 350 48.5 c 128,-1,2
 278 96 278 96 228.5 169 c 128,-1,3
 179 242 179 242 153.5 336 c 128,-1,4
 128 430 128 430 127 538 c 0,5,6
 126 668 126 668 163 774 c 128,-1,7
 200 880 200 880 266 958.5 c 128,-1,8
 332 1037 332 1037 422.5 1084.5 c 128,-1,9
 513 1132 513 1132 618 1145 c 1,10,-1
 633 1362 l 1,11,-1
 731 1362 l 1,12,-1
 716 1149 l 1,13,14
 752 1148 752 1148 788 1144.5 c 128,-1,15
 824 1141 824 1141 856.5 1134.5 c 128,-1,16
 889 1128 889 1128 915 1119 c 128,-1,17
 941 1110 941 1110 958 1099 c 1,18,-1
 958 885 l 1,19,-1
 884 885 l 1,20,-1
 843 1013 l 1,21,22
 808 1040 808 1040 758 1049.5 c 128,-1,23
 708 1059 708 1059 657 1059 c 0,24,25
 579 1059 579 1059 509 1029.5 c 128,-1,26
 439 1000 439 1000 385.5 943 c 128,-1,27
 332 886 332 886 300 801.5 c 128,-1,28
 268 717 268 717 267 607 c 0,29,30
 266 464 266 464 300 364.5 c 128,-1,31
 334 265 334 265 389.5 203 c 128,-1,32
 445 141 445 141 516 112.5 c 128,-1,33
 587 84 587 84 660 84 c 0,34,35
 694 84 694 84 736.5 89 c 128,-1,36
 779 94 779 94 821 104 c 128,-1,37
 863 114 863 114 900 128 c 128,-1,38
 937 142 937 142 961 160 c 1,39,-1
 988 88 l 1,40,41
 959 62 959 62 917.5 42.5 c 128,-1,42
 876 23 876 23 827 9 c 128,-1,43
 778 -5 778 -5 723 -12.5 c 128,-1,44
 668 -20 668 -20 613 -21 c 1,45,-1
 601 -216 l 1,46,-1
 504 -216 l 1,47,-1
 516 -14 l 1,48,-1
 516 -14 l 1,0,1
EndSplineSet
EndChar

StartChar: sterling
Encoding: 163 163 148
Width: 1441
Flags: W
LayerCount: 2
Fore
SplineSet
89 43 m 256,0,1
 89 67 89 67 107.5 90 c 128,-1,2
 126 113 126 113 158 131 c 128,-1,3
 190 149 190 149 233.5 158.5 c 128,-1,4
 277 168 277 168 328 165 c 1,5,6
 350 187 350 187 369.5 224.5 c 128,-1,7
 389 262 389 262 404 308.5 c 128,-1,8
 419 355 419 355 428 406 c 128,-1,9
 437 457 437 457 437 507 c 2,10,-1
 437 763 l 1,11,-1
 238 763 l 1,12,-1
 238 874 l 1,13,-1
 437 874 l 1,14,-1
 437 986 l 2,15,16
 437 1108 437 1108 471 1212.5 c 128,-1,17
 505 1317 505 1317 567.5 1393.5 c 128,-1,18
 630 1470 630 1470 718 1514.5 c 128,-1,19
 806 1559 806 1559 913 1561 c 0,20,21
 1002 1563 1002 1563 1066.5 1543 c 128,-1,22
 1131 1523 1131 1523 1183 1478 c 1,23,-1
 1111 1342 l 1,24,25
 1107 1349 1107 1349 1086.5 1369.5 c 128,-1,26
 1066 1390 1066 1390 1032 1412 c 128,-1,27
 998 1434 998 1434 950.5 1450.5 c 128,-1,28
 903 1467 903 1467 845 1466 c 0,29,30
 796 1465 796 1465 748.5 1444.5 c 128,-1,31
 701 1424 701 1424 664 1371 c 128,-1,32
 627 1318 627 1318 604 1225.5 c 128,-1,33
 581 1133 581 1133 581 989 c 2,34,-1
 581 874 l 1,35,-1
 935 874 l 1,36,-1
 935 763 l 1,37,-1
 582 763 l 1,38,-1
 582 676 l 2,39,40
 582 567 582 567 569 486 c 128,-1,41
 556 405 556 405 534.5 342.5 c 128,-1,42
 513 280 513 280 484 233 c 128,-1,43
 455 186 455 186 423 144 c 1,44,45
 457 143 457 143 504 131.5 c 128,-1,46
 551 120 551 120 603 105.5 c 128,-1,47
 655 91 655 91 709 76.5 c 128,-1,48
 763 62 763 62 810 55 c 0,49,50
 931 38 931 38 1007.5 55.5 c 128,-1,51
 1084 73 1084 73 1128 110.5 c 128,-1,52
 1172 148 1172 148 1188.5 199.5 c 128,-1,53
 1205 251 1205 251 1205 302 c 0,54,55
 1205 355 1205 355 1182 401 c 128,-1,56
 1159 447 1159 447 1114 478 c 1,57,-1
 1181 607 l 1,58,59
 1250 576 1250 576 1290 516 c 128,-1,60
 1330 456 1330 456 1341 372 c 0,61,62
 1345 339 1345 339 1343.5 296 c 128,-1,63
 1342 253 1342 253 1328.5 208 c 128,-1,64
 1315 163 1315 163 1287 120 c 128,-1,65
 1259 77 1259 77 1210.5 43 c 128,-1,66
 1162 9 1162 9 1090 -11.5 c 128,-1,67
 1018 -32 1018 -32 917 -32 c 1,68,69
 841 -35 841 -35 775.5 -27 c 128,-1,70
 710 -19 710 -19 653.5 -6 c 128,-1,71
 597 7 597 7 549.5 22.5 c 128,-1,72
 502 38 502 38 463.5 50.5 c 128,-1,73
 425 63 425 63 395 70.5 c 128,-1,74
 365 78 365 78 344 74 c 1,75,76
 328 53 328 53 308.5 33.5 c 128,-1,77
 289 14 289 14 266.5 0 c 128,-1,78
 244 -14 244 -14 220 -22.5 c 128,-1,79
 196 -31 196 -31 172 -31 c 0,80,81
 160 -31 160 -31 146 -28.5 c 128,-1,82
 132 -26 132 -26 119 -18 c 128,-1,83
 106 -10 106 -10 97.5 4.5 c 128,-1,84
 89 19 89 19 89 43 c 256,0,1
EndSplineSet
EndChar

StartChar: Euro
Encoding: 8364 8364 149
Width: 1390
Flags: W
LayerCount: 2
Fore
SplineSet
-39 665 m 1,0,-1
 157 665 l 1,1,2
 156 679 156 679 156 694 c 128,-1,3
 156 709 156 709 156 724 c 0,4,5
 156 829 156 829 171 924 c 1,6,-1
 -9 924 l 1,7,-1
 -9 1021 l 1,8,-1
 191 1021 l 1,9,10
 225 1151 225 1151 287.5 1252 c 128,-1,11
 350 1353 350 1353 436 1422 c 128,-1,12
 522 1491 522 1491 629 1527 c 128,-1,13
 736 1563 736 1563 859 1563 c 0,14,15
 929 1563 929 1563 990 1555 c 128,-1,16
 1051 1547 1051 1547 1102 1536 c 128,-1,17
 1153 1525 1153 1525 1194.5 1512 c 128,-1,18
 1236 1499 1236 1499 1268 1490 c 1,19,-1
 1254 1229 l 1,20,-1
 1187 1229 l 1,21,-1
 1149 1396 l 1,22,23
 1123 1415 1123 1415 1086.5 1430 c 128,-1,24
 1050 1445 1050 1445 1006.5 1454.5 c 128,-1,25
 963 1464 963 1464 914 1469 c 128,-1,26
 865 1474 865 1474 814 1474 c 0,27,28
 725 1474 725 1474 647 1445.5 c 128,-1,29
 569 1417 569 1417 507 1360 c 128,-1,30
 445 1303 445 1303 400 1218 c 128,-1,31
 355 1133 355 1133 331 1021 c 1,32,-1
 949 1021 l 1,33,-1
 949 924 l 1,34,-1
 316 924 l 1,35,36
 312 888 312 888 310 850.5 c 128,-1,37
 308 813 308 813 308 772 c 0,38,39
 308 717 308 717 311 665 c 1,40,-1
 919 665 l 1,41,-1
 919 569 l 1,42,-1
 321 569 l 1,43,44
 337 456 337 456 373 361 c 128,-1,45
 409 266 409 266 469 197.5 c 128,-1,46
 529 129 529 129 614.5 90.5 c 128,-1,47
 700 52 700 52 814 54 c 1,48,49
 933 55 933 55 1019 78 c 128,-1,50
 1105 101 1105 101 1163 152 c 1,51,52
 1167 167 1167 167 1171.5 189.5 c 128,-1,53
 1176 212 1176 212 1180.5 237 c 128,-1,54
 1185 262 1185 262 1190 284.5 c 128,-1,55
 1195 307 1195 307 1199 322 c 1,56,57
 1214 322 1214 322 1234.5 321.5 c 128,-1,58
 1255 321 1255 321 1270 321 c 1,59,-1
 1270 63 l 1,60,61
 1235 58 1235 58 1191.5 43 c 128,-1,62
 1148 28 1148 28 1089 12 c 128,-1,63
 1030 -4 1030 -4 951.5 -16 c 128,-1,64
 873 -28 873 -28 768 -28 c 0,65,66
 638 -28 638 -28 534 15 c 128,-1,67
 430 58 430 58 353.5 136 c 128,-1,68
 277 214 277 214 229.5 324 c 128,-1,69
 182 434 182 434 165 569 c 1,70,-1
 -39 569 l 1,71,-1
 -39 665 l 1,0,-1
EndSplineSet
EndChar

StartChar: yen
Encoding: 165 165 150
Width: 1407
Flags: W
LayerCount: 2
Fore
SplineSet
417 67 m 1,0,-1
 626 92 l 1,1,-1
 626 408 l 1,2,-1
 182 408 l 1,3,-1
 182 507 l 1,4,-1
 626 507 l 1,5,-1
 626 765 l 1,6,-1
 182 765 l 1,7,-1
 182 864 l 1,8,-1
 572 864 l 1,9,-1
 163 1461 l 1,10,-1
 25 1477 l 1,11,-1
 25 1553 l 1,12,-1
 493 1553 l 1,13,-1
 493 1476 l 1,14,-1
 332 1462 l 1,15,-1
 648 981 l 1,16,-1
 706 864 l 1,17,-1
 729 864 l 1,18,-1
 796 987 l 2,19,20
 817 1024 817 1024 854 1083.5 c 128,-1,21
 891 1143 891 1143 932.5 1210 c 128,-1,22
 974 1277 974 1277 1015.5 1344 c 128,-1,23
 1057 1411 1057 1411 1088 1462 c 1,24,-1
 932 1477 l 1,25,-1
 932 1553 l 1,26,-1
 1360 1553 l 1,27,-1
 1360 1477 l 1,28,-1
 1216 1453 l 1,29,-1
 829 864 l 1,30,-1
 1210 864 l 1,31,-1
 1210 765 l 1,32,-1
 773 765 l 1,33,-1
 773 507 l 1,34,-1
 1210 507 l 1,35,-1
 1210 408 l 1,36,-1
 773 408 l 1,37,-1
 773 92 l 1,38,-1
 987 67 l 1,39,-1
 987 0 l 1,40,-1
 417 0 l 1,41,-1
 417 67 l 1,0,-1
EndSplineSet
EndChar

StartChar: florin
Encoding: 402 402 151
Width: 1063
Flags: W
LayerCount: 2
Fore
SplineSet
404 996 m 1,0,-1
 179 996 l 1,1,-1
 183 1056 l 1,2,-1
 413 1100 l 1,3,-1
 422 1205 l 2,4,5
 428 1280 428 1280 450.5 1344 c 128,-1,6
 473 1408 473 1408 507 1461 c 128,-1,7
 541 1514 541 1514 584 1555 c 128,-1,8
 627 1596 627 1596 673.5 1624.5 c 128,-1,9
 720 1653 720 1653 767.5 1667.5 c 128,-1,10
 815 1682 815 1682 859 1682 c 0,11,12
 920 1682 920 1682 950.5 1677.5 c 128,-1,13
 981 1673 981 1673 1000 1665 c 1,14,-1
 991 1536 l 1,15,16
 974 1547 974 1547 931 1556 c 128,-1,17
 888 1565 888 1565 821 1565 c 0,18,19
 779 1565 779 1565 737.5 1553.5 c 128,-1,20
 696 1542 696 1542 661.5 1509 c 128,-1,21
 627 1476 627 1476 603 1416.5 c 128,-1,22
 579 1357 579 1357 571 1261 c 2,23,-1
 556 1100 l 1,24,-1
 885 1100 l 1,25,-1
 877 996 l 1,26,-1
 548 996 l 1,27,-1
 447 -355 l 1,28,-1
 303 -355 l 1,29,-1
 404 996 l 1,0,-1
EndSplineSet
EndChar

StartChar: at
Encoding: 64 64 152
Width: 2133
Flags: W
LayerCount: 2
Fore
SplineSet
236 414 m 0,0,1
 236 570 236 570 272.5 706.5 c 128,-1,2
 309 843 309 843 374.5 957 c 128,-1,3
 440 1071 440 1071 530.5 1160.5 c 128,-1,4
 621 1250 621 1250 730 1311.5 c 128,-1,5
 839 1373 839 1373 962 1405.5 c 128,-1,6
 1085 1438 1085 1438 1215 1438 c 0,7,8
 1359 1438 1359 1438 1484 1395.5 c 128,-1,9
 1609 1353 1609 1353 1701.5 1272 c 128,-1,10
 1794 1191 1794 1191 1847.5 1075 c 128,-1,11
 1901 959 1901 959 1901 812 c 0,12,13
 1901 675 1901 675 1876.5 564 c 128,-1,14
 1852 453 1852 453 1810 367 c 128,-1,15
 1768 281 1768 281 1713 219 c 128,-1,16
 1658 157 1658 157 1598 116.5 c 128,-1,17
 1538 76 1538 76 1476 57 c 128,-1,18
 1414 38 1414 38 1359 38 c 0,19,20
 1316 38 1316 38 1292 90.5 c 128,-1,21
 1268 143 1268 143 1268 245 c 1,22,23
 1270 303 1270 303 1282 387 c 128,-1,24
 1294 471 1294 471 1311 574 c 1,25,26
 1276 472 1276 472 1227.5 373.5 c 128,-1,27
 1179 275 1179 275 1121.5 197.5 c 128,-1,28
 1064 120 1064 120 1000.5 72.5 c 128,-1,29
 937 25 937 25 871 25 c 0,30,31
 825 25 825 25 779.5 52.5 c 128,-1,32
 734 80 734 80 698 132.5 c 128,-1,33
 662 185 662 185 639.5 260 c 128,-1,34
 617 335 617 335 617 430 c 0,35,36
 617 494 617 494 630.5 565.5 c 128,-1,37
 644 637 644 637 670.5 706 c 128,-1,38
 697 775 697 775 736 838 c 128,-1,39
 775 901 775 901 826 949 c 128,-1,40
 877 997 877 997 938.5 1025.5 c 128,-1,41
 1000 1054 1000 1054 1073 1054 c 0,42,43
 1108 1054 1108 1054 1147.5 1049 c 128,-1,44
 1187 1044 1187 1044 1226 1035.5 c 128,-1,45
 1265 1027 1265 1027 1300.5 1015 c 128,-1,46
 1336 1003 1336 1003 1362 989 c 1,47,48
 1370 1014 1370 1014 1379 1028 c 128,-1,49
 1388 1042 1388 1042 1404 1038 c 1,50,-1
 1492 1009 l 1,51,52
 1479 956 1479 956 1465.5 879 c 128,-1,53
 1452 802 1452 802 1440 717 c 128,-1,54
 1428 632 1428 632 1417.5 546 c 128,-1,55
 1407 460 1407 460 1399 389 c 0,56,57
 1393 336 1393 336 1391.5 289 c 128,-1,58
 1390 242 1390 242 1393 207 c 128,-1,59
 1396 172 1396 172 1403 151.5 c 128,-1,60
 1410 131 1410 131 1422 131 c 0,61,62
 1458 131 1458 131 1499.5 151.5 c 128,-1,63
 1541 172 1541 172 1582 210.5 c 128,-1,64
 1623 249 1623 249 1661 304.5 c 128,-1,65
 1699 360 1699 360 1728 429.5 c 128,-1,66
 1757 499 1757 499 1774.5 581 c 128,-1,67
 1792 663 1792 663 1792 755 c 0,68,69
 1792 859 1792 859 1768 943 c 128,-1,70
 1744 1027 1744 1027 1701.5 1092 c 128,-1,71
 1659 1157 1659 1157 1599.5 1203.5 c 128,-1,72
 1540 1250 1540 1250 1469.5 1280.5 c 128,-1,73
 1399 1311 1399 1311 1319 1325 c 128,-1,74
 1239 1339 1239 1339 1155 1339 c 0,75,76
 1049 1339 1049 1339 948 1313 c 128,-1,77
 847 1287 847 1287 757.5 1236 c 128,-1,78
 668 1185 668 1185 593 1109.5 c 128,-1,79
 518 1034 518 1034 464 936.5 c 128,-1,80
 410 839 410 839 379.5 719.5 c 128,-1,81
 349 600 349 600 349 460 c 0,82,83
 349 327 349 327 377 221 c 128,-1,84
 405 115 405 115 454.5 33.5 c 128,-1,85
 504 -48 504 -48 572.5 -106 c 128,-1,86
 641 -164 641 -164 722 -201.5 c 128,-1,87
 803 -239 803 -239 894 -256.5 c 128,-1,88
 985 -274 985 -274 1079 -274 c 0,89,90
 1135 -274 1135 -274 1191 -267 c 128,-1,91
 1247 -260 1247 -260 1296.5 -249 c 128,-1,92
 1346 -238 1346 -238 1386.5 -223.5 c 128,-1,93
 1427 -209 1427 -209 1454 -195 c 1,94,-1
 1482 -260 l 1,95,96
 1449 -286 1449 -286 1397.5 -308 c 128,-1,97
 1346 -330 1346 -330 1284.5 -345.5 c 128,-1,98
 1223 -361 1223 -361 1155.5 -369.5 c 128,-1,99
 1088 -378 1088 -378 1024 -378 c 0,100,101
 853 -378 853 -378 708.5 -322.5 c 128,-1,102
 564 -267 564 -267 459 -163.5 c 128,-1,103
 354 -60 354 -60 295 86 c 128,-1,104
 236 232 236 232 236 414 c 0,0,1
738 486 m 0,105,106
 738 432 738 432 747 373 c 128,-1,107
 756 314 756 314 775.5 264.5 c 128,-1,108
 795 215 795 215 825.5 183 c 128,-1,109
 856 151 856 151 900 151 c 0,110,111
 939 151 939 151 982.5 185 c 128,-1,112
 1026 219 1026 219 1070 275.5 c 128,-1,113
 1114 332 1114 332 1155.5 406 c 128,-1,114
 1197 480 1197 480 1232 559.5 c 128,-1,115
 1267 639 1267 639 1293 719 c 128,-1,116
 1319 799 1319 799 1331 868 c 1,117,118
 1314 883 1314 883 1283 896.5 c 128,-1,119
 1252 910 1252 910 1215 920.5 c 128,-1,120
 1178 931 1178 931 1140.5 937 c 128,-1,121
 1103 943 1103 943 1072 943 c 0,122,123
 986 943 986 943 923.5 903 c 128,-1,124
 861 863 861 863 819.5 798 c 128,-1,125
 778 733 778 733 758 651.5 c 128,-1,126
 738 570 738 570 738 486 c 0,105,106
EndSplineSet
EndChar

StartChar: copyright
Encoding: 169 169 153
Width: 2032
Flags: W
LayerCount: 2
Fore
SplineSet
1016 220 m 256,0,1
 900 220 900 220 792.5 251 c 128,-1,2
 685 282 685 282 591 337.5 c 128,-1,3
 497 393 497 393 420 471 c 128,-1,4
 343 549 343 549 288 643.5 c 128,-1,5
 233 738 233 738 202.5 845.5 c 128,-1,6
 172 953 172 953 172 1069 c 256,7,8
 172 1185 172 1185 202.5 1293 c 128,-1,9
 233 1401 233 1401 288 1495.5 c 128,-1,10
 343 1590 343 1590 420 1668 c 128,-1,11
 497 1746 497 1746 591 1802 c 128,-1,12
 685 1858 685 1858 792.5 1888.5 c 128,-1,13
 900 1919 900 1919 1016 1919 c 256,14,15
 1132 1919 1132 1919 1239.5 1888.5 c 128,-1,16
 1347 1858 1347 1858 1440.5 1802 c 128,-1,17
 1534 1746 1534 1746 1611.5 1668 c 128,-1,18
 1689 1590 1689 1590 1744 1495.5 c 128,-1,19
 1799 1401 1799 1401 1829.5 1293 c 128,-1,20
 1860 1185 1860 1185 1860 1069 c 0,21,22
 1860 954 1860 954 1829.5 846 c 128,-1,23
 1799 738 1799 738 1744 643.5 c 128,-1,24
 1689 549 1689 549 1611.5 471 c 128,-1,25
 1534 393 1534 393 1440.5 337.5 c 128,-1,26
 1347 282 1347 282 1239.5 251 c 128,-1,27
 1132 220 1132 220 1016 220 c 256,0,1
1016 314 m 256,28,29
 1119 314 1119 314 1214 341.5 c 128,-1,30
 1309 369 1309 369 1391 418.5 c 128,-1,31
 1473 468 1473 468 1541 537.5 c 128,-1,32
 1609 607 1609 607 1657 690.5 c 128,-1,33
 1705 774 1705 774 1731.5 870 c 128,-1,34
 1758 966 1758 966 1758 1069 c 256,35,36
 1758 1172 1758 1172 1731.5 1268.5 c 128,-1,37
 1705 1365 1705 1365 1657 1449 c 128,-1,38
 1609 1533 1609 1533 1541 1602 c 128,-1,39
 1473 1671 1473 1671 1391 1720.5 c 128,-1,40
 1309 1770 1309 1770 1214 1797.5 c 128,-1,41
 1119 1825 1119 1825 1016 1825 c 256,42,43
 913 1825 913 1825 818 1797.5 c 128,-1,44
 723 1770 723 1770 640.5 1720.5 c 128,-1,45
 558 1671 558 1671 490.5 1602 c 128,-1,46
 423 1533 423 1533 375 1449 c 128,-1,47
 327 1365 327 1365 300.5 1268.5 c 128,-1,48
 274 1172 274 1172 274 1069 c 256,49,50
 274 966 274 966 300.5 870 c 128,-1,51
 327 774 327 774 375 690.5 c 128,-1,52
 423 607 423 607 490.5 537.5 c 128,-1,53
 558 468 558 468 640.5 418.5 c 128,-1,54
 723 369 723 369 818 341.5 c 128,-1,55
 913 314 913 314 1016 314 c 256,28,29
1024 584 m 0,56,57
 913 584 913 584 829.5 619.5 c 128,-1,58
 746 655 746 655 690 718.5 c 128,-1,59
 634 782 634 782 605.5 869.5 c 128,-1,60
 577 957 577 957 577 1061 c 0,61,62
 577 1131 577 1131 595.5 1195.5 c 128,-1,63
 614 1260 614 1260 646 1315.5 c 128,-1,64
 678 1371 678 1371 721.5 1417 c 128,-1,65
 765 1463 765 1463 814 1496.5 c 128,-1,66
 863 1530 863 1530 916 1549.5 c 128,-1,67
 969 1569 969 1569 1021 1573 c 0,68,69
 1065 1576 1065 1576 1114.5 1574 c 128,-1,70
 1164 1572 1164 1572 1208.5 1564.5 c 128,-1,71
 1253 1557 1253 1557 1288 1544.5 c 128,-1,72
 1323 1532 1323 1532 1338 1514 c 1,73,-1
 1338 1321 l 1,74,-1
 1248 1321 l 1,75,-1
 1208 1450 l 1,76,77
 1197 1457 1197 1457 1182.5 1464.5 c 128,-1,78
 1168 1472 1168 1472 1146.5 1477 c 128,-1,79
 1125 1482 1125 1482 1094 1485 c 128,-1,80
 1063 1488 1063 1488 1020 1488 c 0,81,82
 953 1487 953 1487 897 1456.5 c 128,-1,83
 841 1426 841 1426 801 1373.5 c 128,-1,84
 761 1321 761 1321 739 1249.5 c 128,-1,85
 717 1178 717 1178 717 1096 c 0,86,87
 717 1011 717 1011 741.5 936.5 c 128,-1,88
 766 862 766 862 812.5 806.5 c 128,-1,89
 859 751 859 751 927 719 c 128,-1,90
 995 687 995 687 1082 687 c 0,91,92
 1120 687 1120 687 1158.5 695.5 c 128,-1,93
 1197 704 1197 704 1230 716 c 128,-1,94
 1263 728 1263 728 1288 742 c 128,-1,95
 1313 756 1313 756 1325 767 c 1,96,-1
 1348 706 l 1,97,98
 1327 682 1327 682 1293.5 659.5 c 128,-1,99
 1260 637 1260 637 1218 620.5 c 128,-1,100
 1176 604 1176 604 1126.5 594 c 128,-1,101
 1077 584 1077 584 1024 584 c 0,56,57
EndSplineSet
EndChar

StartChar: registered
Encoding: 174 174 154
Width: 2032
Flags: W
LayerCount: 2
Fore
SplineSet
1016 220 m 256,0,1
 900 220 900 220 792.5 251 c 128,-1,2
 685 282 685 282 591 337.5 c 128,-1,3
 497 393 497 393 420 471 c 128,-1,4
 343 549 343 549 288 643.5 c 128,-1,5
 233 738 233 738 202.5 845.5 c 128,-1,6
 172 953 172 953 172 1069 c 256,7,8
 172 1185 172 1185 202.5 1293 c 128,-1,9
 233 1401 233 1401 288 1495.5 c 128,-1,10
 343 1590 343 1590 420 1668 c 128,-1,11
 497 1746 497 1746 591 1802 c 128,-1,12
 685 1858 685 1858 792.5 1888.5 c 128,-1,13
 900 1919 900 1919 1016 1919 c 256,14,15
 1132 1919 1132 1919 1239.5 1888.5 c 128,-1,16
 1347 1858 1347 1858 1440.5 1802 c 128,-1,17
 1534 1746 1534 1746 1611.5 1668 c 128,-1,18
 1689 1590 1689 1590 1744 1495.5 c 128,-1,19
 1799 1401 1799 1401 1829.5 1293 c 128,-1,20
 1860 1185 1860 1185 1860 1069 c 0,21,22
 1860 954 1860 954 1829.5 846 c 128,-1,23
 1799 738 1799 738 1744 643.5 c 128,-1,24
 1689 549 1689 549 1611.5 471 c 128,-1,25
 1534 393 1534 393 1440.5 337.5 c 128,-1,26
 1347 282 1347 282 1239.5 251 c 128,-1,27
 1132 220 1132 220 1016 220 c 256,0,1
1016 314 m 256,28,29
 1119 314 1119 314 1214 341.5 c 128,-1,30
 1309 369 1309 369 1391 418.5 c 128,-1,31
 1473 468 1473 468 1541 537.5 c 128,-1,32
 1609 607 1609 607 1657 690.5 c 128,-1,33
 1705 774 1705 774 1731.5 870 c 128,-1,34
 1758 966 1758 966 1758 1069 c 256,35,36
 1758 1172 1758 1172 1731.5 1268.5 c 128,-1,37
 1705 1365 1705 1365 1657 1449 c 128,-1,38
 1609 1533 1609 1533 1541 1602 c 128,-1,39
 1473 1671 1473 1671 1391 1720.5 c 128,-1,40
 1309 1770 1309 1770 1214 1797.5 c 128,-1,41
 1119 1825 1119 1825 1016 1825 c 256,42,43
 913 1825 913 1825 818 1797.5 c 128,-1,44
 723 1770 723 1770 640.5 1720.5 c 128,-1,45
 558 1671 558 1671 490.5 1602 c 128,-1,46
 423 1533 423 1533 375 1449 c 128,-1,47
 327 1365 327 1365 300.5 1268.5 c 128,-1,48
 274 1172 274 1172 274 1069 c 256,49,50
 274 966 274 966 300.5 870 c 128,-1,51
 327 774 327 774 375 690.5 c 128,-1,52
 423 607 423 607 490.5 537.5 c 128,-1,53
 558 468 558 468 640.5 418.5 c 128,-1,54
 723 369 723 369 818 341.5 c 128,-1,55
 913 314 913 314 1016 314 c 256,28,29
634 660 m 1,56,-1
 735 685 l 1,57,-1
 735 1458 l 1,58,-1
 634 1481 l 1,59,-1
 634 1555 l 1,60,-1
 790 1555 l 2,61,62
 821 1555 821 1555 844 1555.5 c 128,-1,63
 867 1556 867 1556 893.5 1557.5 c 128,-1,64
 920 1559 920 1559 955 1560 c 128,-1,65
 990 1561 990 1561 1044 1562 c 1,66,67
 1129 1562 1129 1562 1193 1545 c 128,-1,68
 1257 1528 1257 1528 1299.5 1496.5 c 128,-1,69
 1342 1465 1342 1465 1363.5 1421.5 c 128,-1,70
 1385 1378 1385 1378 1386 1324 c 0,71,72
 1386 1279 1386 1279 1375 1232.5 c 128,-1,73
 1364 1186 1364 1186 1334.5 1144.5 c 128,-1,74
 1305 1103 1305 1103 1254 1071.5 c 128,-1,75
 1203 1040 1203 1040 1122 1026 c 1,76,77
 1167 1001 1167 1001 1198.5 965 c 128,-1,78
 1230 929 1230 929 1255 889 c 128,-1,79
 1280 849 1280 849 1301 809 c 128,-1,80
 1322 769 1322 769 1346 737.5 c 128,-1,81
 1370 706 1370 706 1399.5 686 c 128,-1,82
 1429 666 1429 666 1471 666 c 1,83,-1
 1471 592 l 1,84,-1
 1353 592 l 2,85,86
 1306 592 1306 592 1274.5 617 c 128,-1,87
 1243 642 1243 642 1219.5 681.5 c 128,-1,88
 1196 721 1196 721 1176 769 c 128,-1,89
 1156 817 1156 817 1132 863.5 c 128,-1,90
 1108 910 1108 910 1075 949 c 128,-1,91
 1042 988 1042 988 992 1009 c 1,92,93
 963 1009 963 1009 933 1008.5 c 128,-1,94
 903 1008 903 1008 871 1009 c 1,95,-1
 871 681 l 1,96,-1
 982 660 l 1,97,-1
 982 594 l 1,98,-1
 634 594 l 1,99,-1
 634 660 l 1,56,-1
871 1090 m 1,100,101
 906 1085 906 1085 941.5 1083.5 c 128,-1,102
 977 1082 977 1082 1028 1083 c 0,103,104
 1079 1083 1079 1083 1119.5 1100 c 128,-1,105
 1160 1117 1160 1117 1188.5 1145 c 128,-1,106
 1217 1173 1217 1173 1232.5 1210 c 128,-1,107
 1248 1247 1248 1247 1248 1287 c 0,108,109
 1248 1339 1248 1339 1230.5 1376.5 c 128,-1,110
 1213 1414 1213 1414 1182.5 1437 c 128,-1,111
 1152 1460 1152 1460 1111 1471 c 128,-1,112
 1070 1482 1070 1482 1024 1482 c 0,113,114
 1004 1482 1004 1482 987 1482 c 128,-1,115
 970 1482 970 1482 952.5 1481.5 c 128,-1,116
 935 1481 935 1481 915.5 1478.5 c 128,-1,117
 896 1476 896 1476 871 1471 c 1,118,-1
 871 1090 l 1,100,101
EndSplineSet
EndChar

StartChar: trademark
Encoding: 8482 8482 155
Width: 2180
Flags: W
LayerCount: 2
Fore
SplineSet
964 838 m 1,0,-1
 1075 853 l 1,1,-1
 1108 1477 l 1,2,-1
 998 1486 l 1,3,-1
 998 1553 l 1,4,-1
 1299 1553 l 1,5,-1
 1487 1048 l 1,6,-1
 1522 924 l 1,7,-1
 1730 1553 l 1,8,-1
 1998 1553 l 1,9,-1
 1998 1486 l 1,10,-1
 1894 1477 l 1,11,-1
 1950 852 l 1,12,-1
 2050 838 l 1,13,-1
 2050 777 l 1,14,-1
 1731 777 l 1,15,-1
 1731 838 l 1,16,-1
 1827 852 l 1,17,-1
 1796 1263 l 1,18,-1
 1787 1480 l 1,19,-1
 1757 1383 l 1,20,-1
 1547 769 l 1,21,-1
 1462 769 l 1,22,-1
 1244 1331 l 1,23,-1
 1187 1482 l 1,24,-1
 1181 1309 l 1,25,-1
 1161 853 l 1,26,-1
 1264 838 l 1,27,-1
 1264 777 l 1,28,-1
 964 777 l 1,29,-1
 964 838 l 1,0,-1
319 838 m 1,30,-1
 450 852 l 1,31,-1
 450 1478 l 1,32,-1
 258 1468 l 1,33,-1
 220 1323 l 1,34,-1
 167 1322 l 1,35,-1
 184 1553 l 1,36,-1
 860 1553 l 1,37,-1
 860 1323 l 1,38,-1
 809 1318 l 1,39,-1
 784 1470 l 1,40,-1
 585 1480 l 1,41,-1
 585 852 l 1,42,-1
 727 838 l 1,43,-1
 727 777 l 1,44,-1
 319 777 l 1,45,-1
 319 838 l 1,30,-1
EndSplineSet
EndChar

StartChar: asciicircum
Encoding: 94 94 156
Width: 1289
Flags: W
LayerCount: 2
Fore
SplineSet
568 1531 m 1,0,-1
 717 1531 l 1,1,-1
 1117 564 l 1,2,3
 1087 564 1087 564 1048.5 563.5 c 128,-1,4
 1010 563 1010 563 981 563 c 1,5,-1
 636 1379 l 1,6,-1
 293 563 l 1,7,8
 267 563 267 563 232.5 563.5 c 128,-1,9
 198 564 198 564 172 564 c 1,10,-1
 568 1531 l 1,0,-1
EndSplineSet
EndChar

StartChar: underscore
Encoding: 95 95 157
Width: 1415
Flags: W
LayerCount: 2
Fore
SplineSet
1435 -192 m 1,0,-1
 1435 -304 l 1,1,-1
 -20 -304 l 1,2,-1
 -20 -192 l 1,3,-1
 1435 -192 l 1,0,-1
EndSplineSet
EndChar

StartChar: section
Encoding: 167 167 158
Width: 1327
Flags: W
LayerCount: 2
Fore
SplineSet
250 103 m 1,0,-1
 299 -97 l 1,1,2
 334 -131 334 -131 377 -151.5 c 128,-1,3
 420 -172 420 -172 466.5 -182.5 c 128,-1,4
 513 -193 513 -193 560.5 -196 c 128,-1,5
 608 -199 608 -199 652 -199 c 0,6,7
 712 -199 712 -199 775 -186 c 128,-1,8
 838 -173 838 -173 889.5 -142 c 128,-1,9
 941 -111 941 -111 973.5 -61 c 128,-1,10
 1006 -11 1006 -11 1006 64 c 0,11,12
 1006 133 1006 133 971 184.5 c 128,-1,13
 936 236 936 236 878.5 276.5 c 128,-1,14
 821 317 821 317 747.5 350.5 c 128,-1,15
 674 384 674 384 598 417 c 128,-1,16
 522 450 522 450 448.5 486 c 128,-1,17
 375 522 375 522 318 568 c 128,-1,18
 261 614 261 614 226 673.5 c 128,-1,19
 191 733 191 733 191 812 c 0,20,21
 191 858 191 858 200 902 c 128,-1,22
 209 946 209 946 225 986.5 c 128,-1,23
 241 1027 241 1027 263 1061.5 c 128,-1,24
 285 1096 285 1096 311 1123 c 1,25,26
 263 1168 263 1168 234.5 1223.5 c 128,-1,27
 206 1279 206 1279 206 1351 c 0,28,29
 206 1424 206 1424 228.5 1482 c 128,-1,30
 251 1540 251 1540 289 1585.5 c 128,-1,31
 327 1631 327 1631 376.5 1663.5 c 128,-1,32
 426 1696 426 1696 480 1716.5 c 128,-1,33
 534 1737 534 1737 588 1747 c 128,-1,34
 642 1757 642 1757 690 1757 c 0,35,36
 768 1757 768 1757 831 1749.5 c 128,-1,37
 894 1742 894 1742 942.5 1730 c 128,-1,38
 991 1718 991 1718 1026 1704 c 128,-1,39
 1061 1690 1061 1690 1084 1677 c 1,40,-1
 1084 1410 l 1,41,-1
 1015 1410 l 1,42,-1
 957 1609 l 1,43,44
 938 1627 938 1627 908 1640 c 128,-1,45
 878 1653 878 1653 841.5 1661 c 128,-1,46
 805 1669 805 1669 763.5 1672.5 c 128,-1,47
 722 1676 722 1676 680 1676 c 0,48,49
 648 1676 648 1676 610.5 1669.5 c 128,-1,50
 573 1663 573 1663 535.5 1648.5 c 128,-1,51
 498 1634 498 1634 463.5 1611 c 128,-1,52
 429 1588 429 1588 402.5 1555 c 128,-1,53
 376 1522 376 1522 360.5 1478.5 c 128,-1,54
 345 1435 345 1435 345 1379 c 0,55,56
 345 1312 345 1312 380 1262.5 c 128,-1,57
 415 1213 415 1213 472.5 1173.5 c 128,-1,58
 530 1134 530 1134 603 1101 c 128,-1,59
 676 1068 676 1068 752.5 1035.5 c 128,-1,60
 829 1003 829 1003 902 966.5 c 128,-1,61
 975 930 975 930 1032.5 883.5 c 128,-1,62
 1090 837 1090 837 1125 777 c 128,-1,63
 1160 717 1160 717 1160 637 c 0,64,65
 1160 591 1160 591 1153 545.5 c 128,-1,66
 1146 500 1146 500 1133 458 c 128,-1,67
 1120 416 1120 416 1101.5 379 c 128,-1,68
 1083 342 1083 342 1060 313 c 1,69,70
 1099 272 1099 272 1122 221.5 c 128,-1,71
 1145 171 1145 171 1145 108 c 0,72,73
 1145 4 1145 4 1103.5 -70.5 c 128,-1,74
 1062 -145 1062 -145 991.5 -192 c 128,-1,75
 921 -239 921 -239 828 -261 c 128,-1,76
 735 -283 735 -283 633 -283 c 0,77,78
 559 -283 559 -283 486.5 -274.5 c 128,-1,79
 414 -266 414 -266 353 -253 c 128,-1,80
 292 -240 292 -240 246.5 -224.5 c 128,-1,81
 201 -209 201 -209 180 -196 c 1,82,-1
 180 103 l 1,83,-1
 250 103 l 1,0,-1
329 840 m 0,84,85
 329 778 329 778 360 731 c 128,-1,86
 391 684 391 684 442.5 646.5 c 128,-1,87
 494 609 494 609 560.5 577.5 c 128,-1,88
 627 546 627 546 698.5 516 c 128,-1,89
 770 486 770 486 840.5 454.5 c 128,-1,90
 911 423 911 423 971 384 c 1,91,92
 994 427 994 427 1008 482.5 c 128,-1,93
 1022 538 1022 538 1021 593 c 1,94,95
 1021 657 1021 657 991.5 706 c 128,-1,96
 962 755 962 755 912.5 794 c 128,-1,97
 863 833 863 833 798.5 865.5 c 128,-1,98
 734 898 734 898 664.5 928.5 c 128,-1,99
 595 959 595 959 525 990.5 c 128,-1,100
 455 1022 455 1022 395 1060 c 1,101,102
 366 1018 366 1018 347.5 960.5 c 128,-1,103
 329 903 329 903 329 840 c 0,84,85
EndSplineSet
EndChar

StartChar: acute
Encoding: 180 180 159
Width: 884
Flags: W
LayerCount: 2
Fore
SplineSet
267 1386 m 1,0,-1
 580 1770 l 1,1,-1
 686 1661 l 1,2,3
 663 1625 663 1625 618 1582 c 128,-1,4
 573 1539 573 1539 520 1496.5 c 128,-1,5
 467 1454 467 1454 411 1414 c 128,-1,6
 355 1374 355 1374 310 1343 c 1,7,-1
 267 1386 l 1,0,-1
EndSplineSet
EndChar

StartChar: grave
Encoding: 96 96 160
Width: 884
Flags: W
LayerCount: 2
Fore
SplineSet
556 1343 m 1,0,1
 510 1374 510 1374 455 1413 c 128,-1,2
 400 1452 400 1452 346.5 1494.5 c 128,-1,3
 293 1537 293 1537 248.5 1580 c 128,-1,4
 204 1623 204 1623 179 1661 c 1,5,-1
 285 1770 l 1,6,-1
 598 1386 l 1,7,-1
 556 1343 l 1,8,-1
 556 1343 l 1,0,1
EndSplineSet
EndChar

StartChar: tilde
Encoding: 732 732 161
Width: 886
Flags: W
LayerCount: 2
Fore
SplineSet
55 1498 m 1,0,1
 74 1531 74 1531 103 1560.5 c 128,-1,2
 132 1590 132 1590 166.5 1612.5 c 128,-1,3
 201 1635 201 1635 240 1648.5 c 128,-1,4
 279 1662 279 1662 320 1662 c 0,5,6
 368 1662 368 1662 403.5 1638.5 c 128,-1,7
 439 1615 439 1615 469.5 1586.5 c 128,-1,8
 500 1558 500 1558 530 1534.5 c 128,-1,9
 560 1511 560 1511 598 1511 c 0,10,11
 629 1511 629 1511 656.5 1520.5 c 128,-1,12
 684 1530 684 1530 708 1545.5 c 128,-1,13
 732 1561 732 1561 752 1580 c 128,-1,14
 772 1599 772 1599 789 1618 c 1,15,-1
 831 1559 l 1,16,17
 812 1526 812 1526 783.5 1496.5 c 128,-1,18
 755 1467 755 1467 720.5 1444 c 128,-1,19
 686 1421 686 1421 647 1407.5 c 128,-1,20
 608 1394 608 1394 568 1394 c 0,21,22
 536 1394 536 1394 510 1405.5 c 128,-1,23
 484 1417 484 1417 461.5 1433.5 c 128,-1,24
 439 1450 439 1450 419 1470 c 128,-1,25
 399 1490 399 1490 378.5 1506.5 c 128,-1,26
 358 1523 358 1523 336.5 1534.5 c 128,-1,27
 315 1546 315 1546 289 1546 c 0,28,29
 257 1546 257 1546 229.5 1536.5 c 128,-1,30
 202 1527 202 1527 178 1511.5 c 128,-1,31
 154 1496 154 1496 134 1477 c 128,-1,32
 114 1458 114 1458 97 1439 c 1,33,-1
 55 1498 l 1,0,1
EndSplineSet
EndChar

StartChar: asciitilde
Encoding: 126 126 162
Width: 1257
Flags: W
LayerCount: 2
Fore
SplineSet
153 865 m 1,0,1
 175 899 175 899 207.5 932 c 128,-1,2
 240 965 240 965 281 990 c 128,-1,3
 322 1015 322 1015 371.5 1030.5 c 128,-1,4
 421 1046 421 1046 476 1046 c 0,5,6
 515 1046 515 1046 547 1032.5 c 128,-1,7
 579 1019 579 1019 606.5 998.5 c 128,-1,8
 634 978 634 978 659.5 954 c 128,-1,9
 685 930 685 930 710 909.5 c 128,-1,10
 735 889 735 889 762 875.5 c 128,-1,11
 789 862 789 862 820 862 c 0,12,13
 859 862 859 862 891.5 873 c 128,-1,14
 924 884 924 884 952 901 c 128,-1,15
 980 918 980 918 1002.5 939 c 128,-1,16
 1025 960 1025 960 1045 980 c 1,17,-1
 1101 912 l 1,18,19
 1079 877 1079 877 1046 844.5 c 128,-1,20
 1013 812 1013 812 972 786.5 c 128,-1,21
 931 761 931 761 881.5 745.5 c 128,-1,22
 832 730 832 730 777 730 c 0,23,24
 739 730 739 730 707 743.5 c 128,-1,25
 675 757 675 757 647 778 c 128,-1,26
 619 799 619 799 594 822.5 c 128,-1,27
 569 846 569 846 543.5 867 c 128,-1,28
 518 888 518 888 491 901.5 c 128,-1,29
 464 915 464 915 433 915 c 0,30,31
 394 915 394 915 361 904 c 128,-1,32
 328 893 328 893 301 875.5 c 128,-1,33
 274 858 274 858 251 837 c 128,-1,34
 228 816 228 816 208 796 c 1,35,-1
 153 865 l 1,0,1
EndSplineSet
EndChar

StartChar: dieresis
Encoding: 168 168 163
Width: 1004
Flags: W
LayerCount: 2
Fore
SplineSet
712 1425 m 0,0,1
 693 1425 693 1425 675 1431 c 128,-1,2
 657 1437 657 1437 643.5 1449 c 128,-1,3
 630 1461 630 1461 622 1478.5 c 128,-1,4
 614 1496 614 1496 614 1518 c 0,5,6
 614 1541 614 1541 624 1561.5 c 128,-1,7
 634 1582 634 1582 650.5 1597 c 128,-1,8
 667 1612 667 1612 688 1620.5 c 128,-1,9
 709 1629 709 1629 730 1629 c 0,10,11
 781 1629 781 1629 805 1601 c 128,-1,12
 829 1573 829 1573 829 1534 c 0,13,14
 829 1509 829 1509 819 1489 c 128,-1,15
 809 1469 809 1469 792.5 1454.5 c 128,-1,16
 776 1440 776 1440 755 1432.5 c 128,-1,17
 734 1425 734 1425 712 1425 c 0,0,1
257 1425 m 0,18,19
 238 1425 238 1425 220 1431 c 128,-1,20
 202 1437 202 1437 188.5 1449 c 128,-1,21
 175 1461 175 1461 167 1478.5 c 128,-1,22
 159 1496 159 1496 159 1518 c 0,23,24
 159 1541 159 1541 169 1561.5 c 128,-1,25
 179 1582 179 1582 195.5 1597 c 128,-1,26
 212 1612 212 1612 233 1620.5 c 128,-1,27
 254 1629 254 1629 275 1629 c 0,28,29
 327 1629 327 1629 350.5 1601 c 128,-1,30
 374 1573 374 1573 374 1534 c 0,31,32
 374 1509 374 1509 364 1489 c 128,-1,33
 354 1469 354 1469 337.5 1454.5 c 128,-1,34
 321 1440 321 1440 300 1432.5 c 128,-1,35
 279 1425 279 1425 257 1425 c 0,18,19
EndSplineSet
EndChar

StartChar: cedilla
Encoding: 184 184 164
Width: 615
Flags: W
LayerCount: 2
Fore
SplineSet
316 0 m 1,0,1
 312 -25 312 -25 309.5 -60.5 c 128,-1,2
 307 -96 307 -96 310 -127 c 1,3,4
 380 -124 380 -124 431.5 -138.5 c 128,-1,5
 483 -153 483 -153 517 -179.5 c 128,-1,6
 551 -206 551 -206 567.5 -241.5 c 128,-1,7
 584 -277 584 -277 584 -316 c 0,8,9
 584 -366 584 -366 563.5 -404.5 c 128,-1,10
 543 -443 543 -443 508.5 -469.5 c 128,-1,11
 474 -496 474 -496 428 -510.5 c 128,-1,12
 382 -525 382 -525 331 -527 c 0,13,14
 292 -529 292 -529 263.5 -527.5 c 128,-1,15
 235 -526 235 -526 212.5 -523 c 128,-1,16
 190 -520 190 -520 171.5 -515.5 c 128,-1,17
 153 -511 153 -511 134 -506 c 1,18,19
 134 -489 134 -489 134.5 -465.5 c 128,-1,20
 135 -442 135 -442 135 -425 c 1,21,22
 149 -429 149 -429 167 -432.5 c 128,-1,23
 185 -436 185 -436 203.5 -439 c 128,-1,24
 222 -442 222 -442 239 -443.5 c 128,-1,25
 256 -445 256 -445 267 -445 c 0,26,27
 295 -445 295 -445 325 -441 c 128,-1,28
 355 -437 355 -437 380 -423.5 c 128,-1,29
 405 -410 405 -410 421.5 -384.5 c 128,-1,30
 438 -359 438 -359 438 -315 c 0,31,32
 438 -282 438 -282 425 -259 c 128,-1,33
 412 -236 412 -236 388 -221.5 c 128,-1,34
 364 -207 364 -207 331 -200 c 128,-1,35
 298 -193 298 -193 259 -193 c 0,36,37
 252 -193 252 -193 243 -193.5 c 128,-1,38
 234 -194 234 -194 225 -195 c 128,-1,39
 216 -196 216 -196 208.5 -196.5 c 128,-1,40
 201 -197 201 -197 197 -198 c 1,41,42
 197 -149 197 -149 204.5 -101.5 c 128,-1,43
 212 -54 212 -54 227 0 c 1,44,-1
 316 0 l 1,0,1
EndSplineSet
EndChar

StartChar: circumflex
Encoding: 710 710 165
Width: 1063
Flags: W
LayerCount: 2
Fore
SplineSet
180 1373 m 1,0,-1
 460 1772 l 1,1,-1
 603 1772 l 1,2,-1
 876 1374 l 1,3,-1
 808 1337 l 1,4,-1
 531 1643 l 1,5,-1
 241 1337 l 1,6,-1
 180 1373 l 1,0,-1
EndSplineSet
EndChar

StartChar: macron
Encoding: 175 175 166
Width: 909
Flags: W
LayerCount: 2
Fore
SplineSet
195 1589 m 1,0,-1
 726 1589 l 1,1,-1
 726 1472 l 1,2,-1
 195 1472 l 1,3,-1
 195 1589 l 1,0,-1
EndSplineSet
EndChar

StartChar: breve
Encoding: 728 728 167
Width: 1063
Flags: W
LayerCount: 2
Fore
SplineSet
529 1393 m 0,0,1
 453 1393 453 1393 392 1419 c 128,-1,2
 331 1445 331 1445 288.5 1488.5 c 128,-1,3
 246 1532 246 1532 223 1588.5 c 128,-1,4
 200 1645 200 1645 200 1706 c 1,5,-1
 275 1706 l 1,6,7
 280 1682 280 1682 294 1647 c 128,-1,8
 308 1612 308 1612 337 1579.5 c 128,-1,9
 366 1547 366 1547 413.5 1524 c 128,-1,10
 461 1501 461 1501 532 1501 c 0,11,12
 580 1501 580 1501 617.5 1512 c 128,-1,13
 655 1523 655 1523 682 1541 c 128,-1,14
 709 1559 709 1559 728.5 1581.5 c 128,-1,15
 748 1604 748 1604 760 1627 c 128,-1,16
 772 1650 772 1650 779 1671 c 128,-1,17
 786 1692 786 1692 790 1707 c 1,18,-1
 862 1707 l 1,19,20
 862 1644 862 1644 837.5 1587.5 c 128,-1,21
 813 1531 813 1531 768.5 1487.5 c 128,-1,22
 724 1444 724 1444 663 1418.5 c 128,-1,23
 602 1393 602 1393 529 1393 c 0,0,1
EndSplineSet
EndChar

StartChar: dotaccent
Encoding: 729 729 168
Width: 504
Flags: W
LayerCount: 2
Fore
SplineSet
241 1410 m 0,0,1
 222 1410 222 1410 204 1416.5 c 128,-1,2
 186 1423 186 1423 172.5 1435.5 c 128,-1,3
 159 1448 159 1448 150.5 1465.5 c 128,-1,4
 142 1483 142 1483 142 1505 c 0,5,6
 142 1529 142 1529 152.5 1549.5 c 128,-1,7
 163 1570 163 1570 179.5 1585 c 128,-1,8
 196 1600 196 1600 217 1608.5 c 128,-1,9
 238 1617 238 1617 259 1617 c 0,10,11
 311 1617 311 1617 334.5 1588.5 c 128,-1,12
 358 1560 358 1560 358 1522 c 0,13,14
 358 1497 358 1497 348 1476.5 c 128,-1,15
 338 1456 338 1456 321.5 1441 c 128,-1,16
 305 1426 305 1426 284 1418 c 128,-1,17
 263 1410 263 1410 241 1410 c 0,0,1
EndSplineSet
EndChar

